<svg width="32" height="32" viewBox="0 0 32 32" fill="none" xmlns="http://www.w3.org/2000/svg">
<path d="M22.9035 9.73541H20.5371V7.36306L22.9035 9.73541Z" fill="#7AC5AA" stroke="#7AC5AA"/>
<path d="M15.4158 16.0024C14.6784 16.0024 14.417 16.756 14.417 17.4014C14.417 18.0516 14.7277 18.7512 15.4097 18.7512C16.0997 18.7512 16.4085 18.0517 16.4085 17.3583C16.4083 16.7053 16.0978 16.0024 15.4158 16.0024V16.0024Z" fill="#7AC5AA"/>
<path d="M24.253 11.8607H20.0369C19.1392 11.8607 18.4115 11.133 18.4115 10.2353V6H8.69998C8.31337 6 8 6.31339 8 6.69998V25.5C8 25.8866 8.31339 26.2 8.69998 26.2H23.553C23.9396 26.2 24.253 25.8867 24.253 25.5001C24.2533 22.6237 24.253 11.8608 24.253 11.8608V11.8607ZM13.1174 19.7821H10.1476V14.9716H11.3446V18.671H13.1174L13.1176 19.7819L13.1174 19.7821ZM15.3785 19.8498C14.0857 19.8498 13.1826 18.848 13.1826 17.4139C13.1826 15.9362 14.1109 14.9041 15.4401 14.9041C16.733 14.9041 17.636 15.9032 17.636 17.3339C17.6358 19.0719 16.5021 19.8498 15.3785 19.8498V19.8498ZM22.1049 19.4994C21.5922 19.6971 21.0521 19.8251 20.4999 19.8251C19.7531 19.8251 19.171 19.616 18.7205 19.1857C18.2876 18.7678 18.0394 18.1175 18.0394 17.4014C18.0467 15.9223 19.0826 14.9285 20.6169 14.9285C21.1157 14.9285 21.6089 15.0371 22.048 15.2742L21.7321 16.3424C21.3794 16.1598 21.0062 16.0394 20.6048 16.0394C19.7675 16.0394 19.2675 16.5394 19.2675 17.3767C19.2675 18.218 19.7421 18.7203 20.5371 18.7203C20.7144 18.7203 20.8407 18.7064 20.9203 18.6934V18.0339H20.0769V16.9415H22.1049L22.1049 19.4994Z" fill="#7AC5AA"/>
</svg>
