<svg width="32" height="32" viewBox="0 0 32 32" fill="none" xmlns="http://www.w3.org/2000/svg">
<path d="M27.1816 5.47C27.1816 5.445 27.1991 5.415 27.1991 5.38249C27.1866 4.62748 26.5841 4.015 25.8291 4.0075C25.7491 4.0075 25.6741 4 25.5941 4H5.47663C5.21163 4 4.95412 4.0475 4.71663 4.1775C4.26163 4.425 4.00911 4.90998 4.00664 5.4175V6.49498V23.305C4.00664 23.6625 3.96414 24.0826 4.09414 24.4225C4.24414 24.815 4.56166 25.115 4.96413 25.245C5.12663 25.2975 5.29413 25.3025 5.46415 25.3025H9.84915C9.79915 25.2275 9.75165 25.1325 9.70665 25.045C9.66165 24.96 9.61915 24.875 9.57665 24.7875C9.51665 24.6625 9.46165 24.5375 9.40915 24.41C8.85413 23.05 8.78917 21.48 9.20415 20.07C9.40165 19.3975 9.70664 18.7575 10.1042 18.1775C10.1217 18.1525 10.1367 18.13 10.1542 18.105C10.1867 18.0575 10.2217 18.01 10.2567 17.9625C10.2742 17.94 10.2917 17.915 10.3092 17.8925C10.3267 17.87 10.3442 17.845 10.3642 17.8225C10.3817 17.8 10.3992 17.7775 10.4192 17.755C10.4367 17.7325 10.4567 17.71 10.4742 17.6875C10.4917 17.665 10.5117 17.6425 10.5292 17.62C10.5792 17.56 10.6317 17.5025 10.6817 17.445C10.7317 17.3875 10.7892 17.33 10.8442 17.275C10.8567 17.26 10.8717 17.2475 10.8867 17.2325C10.8967 17.2225 10.9042 17.215 10.9142 17.205C10.9192 17.2 10.9242 17.195 10.9292 17.1925C11.0117 17.11 11.0967 17.0325 11.1867 16.955C11.2142 16.93 11.2442 16.905 11.2717 16.88C11.2742 16.8775 11.2767 16.875 11.2817 16.8725C11.2842 16.87 11.2892 16.865 11.2917 16.8625C11.3167 16.8425 11.3417 16.8225 11.3667 16.8C11.3792 16.79 11.3917 16.78 11.4042 16.77C11.4267 16.7525 11.4492 16.735 11.4717 16.7175C11.4742 16.715 11.4767 16.715 11.4767 16.7125H11.4792C11.5117 16.6875 11.5442 16.6625 11.5767 16.6375C11.6092 16.6125 11.6442 16.5875 11.6767 16.5625C11.7042 16.5425 11.7317 16.5225 11.7592 16.5025C11.7717 16.4925 11.7867 16.4825 11.7992 16.4725C11.8292 16.4525 11.8567 16.4325 11.8867 16.4125C11.9167 16.3925 11.9492 16.37 11.9792 16.35C12.0192 16.3225 12.0617 16.2975 12.1017 16.2725C12.1267 16.2575 12.1492 16.2425 12.1742 16.2275C12.2242 16.1975 12.2742 16.1675 12.3242 16.14C12.3442 16.1275 12.3642 16.1175 12.3842 16.1075C12.4142 16.09 12.4417 16.075 12.4717 16.06C12.4967 16.0475 12.5217 16.0325 12.5467 16.02C12.5642 16.01 12.5842 16 12.6017 15.9925C12.6292 15.9775 12.6567 15.965 12.6867 15.95C12.6992 15.9425 12.7117 15.9375 12.7242 15.9325C12.7667 15.91 12.8117 15.89 12.8542 15.87C12.9267 15.8375 12.9967 15.8 13.0692 15.775C13.1067 15.75 13.1417 15.7475 13.1792 15.7325C13.1892 15.73 13.1967 15.725 13.2067 15.7225C13.2167 15.72 13.2242 15.715 13.2342 15.7125C13.2817 15.695 13.3292 15.6775 13.3767 15.66C13.3867 15.6575 13.3942 15.6525 13.4042 15.65C13.4217 15.6425 13.4392 15.6375 13.4567 15.6325L13.4742 15.6275L13.4842 15.625C13.4942 15.6225 13.5017 15.62 13.5117 15.615C13.8467 15.505 14.1917 15.42 14.5416 15.3675C15.6242 15.205 16.7117 15.2925 17.7391 15.635C17.7966 15.655 17.8541 15.675 17.9116 15.695C18.0616 15.75 18.2116 15.805 18.3616 15.87C18.3641 15.87 18.3666 15.8725 18.3691 15.8725C18.3891 15.88 18.4066 15.89 18.4266 15.8975C18.4566 15.9125 18.4891 15.9225 18.5191 15.935C18.5491 15.95 18.5816 15.9475 18.6116 15.9725C18.7041 16.0225 18.7941 16.075 18.8816 16.125C18.8966 16.1325 18.9091 16.1425 18.9241 16.1525C18.9991 16.195 19.0716 16.2425 19.1441 16.2875C19.5716 16.5575 19.9691 16.8775 20.3266 17.2375C20.4091 17.32 20.4816 17.405 20.5591 17.4925C20.6116 17.55 20.6541 17.61 20.7041 17.67C20.7291 17.7 20.7616 17.73 20.7866 17.76C20.8366 17.82 20.8866 17.8825 20.9341 17.945C21.0266 18.07 21.1216 18.1975 21.2066 18.3275C21.9066 19.3975 22.2816 20.6725 22.2816 21.9475V21.9525C22.2816 22.37 22.2366 22.79 22.1591 23.2C22.0591 23.7475 21.8841 24.2825 21.6466 24.7875C21.6066 24.875 21.5616 24.96 21.5166 25.045C21.4716 25.1325 21.4216 25.2275 21.3741 25.3025H23.2766C24.1241 25.3025 24.9741 25.3175 25.8241 25.3075C26.5816 25.3 27.1841 24.7 27.1941 23.94C27.1941 23.8575 27.1816 23.7775 27.1816 23.695L27.1816 5.47ZM13.2241 12.1027C13.0541 12.1927 12.8316 12.0827 12.8316 11.8802V5.73252C12.8316 5.59252 12.9591 5.45002 13.0966 5.45002H18.1014C18.1814 5.45002 18.2414 5.49252 18.2814 5.53753C18.3264 5.58003 18.3539 5.65252 18.3539 5.73502V11.8799C18.3539 12.0824 18.1439 12.1899 17.9739 12.0999C17.8689 12.0449 17.7714 11.9899 17.6664 11.9349C16.9789 11.5749 16.2914 11.2124 15.6014 10.85C15.5414 10.8825 15.4764 10.9175 15.4164 10.95C14.6889 11.3325 13.9539 11.7175 13.2239 12.1025L13.2241 12.1027Z" fill="#7B439E" fill-opacity="0.7"/>
<path d="M21.2317 21.5175C21.2267 21.4475 21.2192 21.375 21.2117 21.305C21.2092 21.27 21.2092 21.235 21.2042 21.2L21.2067 21.1975C21.1817 20.91 21.0992 20.625 21.0192 20.3475C20.9767 20.205 20.9292 20.0625 20.8767 19.9225C20.8567 19.87 20.8367 19.7725 20.7992 19.7325C20.8067 19.7475 20.8092 19.76 20.8142 19.77C20.8117 19.7675 20.8117 19.765 20.8092 19.7625C20.8042 19.7525 20.7992 19.7425 20.7942 19.7325C20.7817 19.7025 20.7667 19.67 20.7517 19.64C20.6342 19.3825 20.4967 19.135 20.3442 18.8975C20.2642 18.775 20.1817 18.655 20.0942 18.5375C20.0817 18.52 20.0667 18.5025 20.0542 18.4825C20.0667 18.5 20.0817 18.5175 20.0942 18.5325C20.0842 18.5075 20.0492 18.475 20.0317 18.4525C19.9892 18.4 19.9467 18.3475 19.9017 18.2975C19.7192 18.085 19.5217 17.885 19.3117 17.7C19.2517 17.6475 19.1917 17.5975 19.1317 17.5475C19.1067 17.525 19.0792 17.505 19.0517 17.485L19.0492 17.4825C18.9417 17.4025 18.8317 17.3225 18.7192 17.25C18.4842 17.095 18.2367 16.955 17.9817 16.835C17.9192 16.805 17.8317 16.745 17.7642 16.7375C17.7817 16.745 17.7967 16.75 17.8067 16.755C17.8017 16.7525 17.7967 16.7525 17.7917 16.75C17.7817 16.745 17.7717 16.7425 17.7592 16.7375C17.7267 16.725 17.6967 16.7125 17.6642 16.7C17.5367 16.65 17.4067 16.6075 17.2742 16.565C16.9967 16.48 16.7142 16.415 16.4267 16.37C16.4042 16.3675 16.3792 16.3625 16.3567 16.36C16.3542 16.36 16.3517 16.36 16.3492 16.3575C16.3592 16.36 16.3742 16.36 16.3892 16.3625C16.3667 16.35 16.3117 16.3525 16.2842 16.35C16.2142 16.3425 16.1417 16.335 16.0717 16.33C15.9292 16.32 15.7842 16.3125 15.6392 16.3125C15.4817 16.3125 15.3267 16.3175 15.1717 16.3275C15.1017 16.3325 15.0292 16.3375 14.9592 16.345C14.9242 16.3475 14.8892 16.3525 14.8542 16.3575H14.8517C14.5642 16.4025 14.2792 16.46 14.0017 16.5425C13.8592 16.585 13.7167 16.6325 13.5767 16.685C13.5242 16.705 13.4267 16.7225 13.3867 16.76C13.4017 16.755 13.4117 16.75 13.4217 16.745C13.4267 16.7425 13.4317 16.74 13.4367 16.7375C13.4317 16.74 13.4267 16.7425 13.4217 16.745C13.4192 16.745 13.4167 16.7475 13.4167 16.7475C13.4067 16.7525 13.3967 16.7575 13.3867 16.76C13.3542 16.7725 13.3242 16.7875 13.2942 16.8025C13.0367 16.92 12.7892 17.0575 12.5517 17.21C12.4292 17.29 12.3092 17.3725 12.1917 17.46C12.1742 17.4725 12.1567 17.4875 12.1367 17.5C12.1542 17.4875 12.1717 17.4725 12.1867 17.46C12.1617 17.47 12.1292 17.505 12.1067 17.5225C12.0542 17.565 12.0017 17.6075 11.9517 17.6525C11.7392 17.835 11.5392 18.0325 11.3542 18.2425C11.3017 18.3 11.2517 18.36 11.2017 18.4225C11.1817 18.45 11.1592 18.475 11.1392 18.5025L11.1367 18.505C11.0567 18.6125 10.9767 18.7225 10.9042 18.835C10.7492 19.07 10.6092 19.3175 10.4892 19.5725C10.4592 19.635 10.3992 19.7225 10.3917 19.79C10.3992 19.775 10.4042 19.76 10.4067 19.7525C10.4067 19.755 10.4042 19.7575 10.4017 19.7625C10.3967 19.7725 10.3942 19.785 10.3892 19.795C10.3767 19.8275 10.3642 19.8575 10.3517 19.89C10.3017 20.0175 10.2567 20.1475 10.2167 20.28C10.1317 20.5575 10.0667 20.84 10.0217 21.1275C10.0192 21.15 10.0142 21.175 10.0117 21.1975C10.0092 21.21 10.0092 21.2175 10.0067 21.225C10.0092 21.215 10.0117 21.195 10.0142 21.1675C10.0017 21.19 10.0042 21.245 10.0017 21.2725C9.99425 21.3425 9.98675 21.415 9.98175 21.485C9.97175 21.6275 9.96425 21.7725 9.96425 21.915C9.96175 22.1125 9.97175 22.3075 9.98925 22.505C9.99425 22.55 9.99925 22.595 10.0017 22.64C10.0042 22.65 10.0117 22.72 10.0142 22.73C10.0242 22.8025 10.0367 22.875 10.0517 22.9475C10.1192 23.31 10.2192 23.6675 10.3517 24.0125C10.3667 24.0525 10.3817 24.0925 10.3992 24.1325C10.3992 24.1325 10.4017 24.135 10.4017 24.1375C10.4092 24.155 10.4317 24.2025 10.4342 24.2125C10.4692 24.2925 10.5067 24.37 10.5467 24.45C10.6217 24.6 10.7042 24.7475 10.7917 24.89C10.8767 25.0275 10.9642 25.1625 11.0592 25.2925C11.0817 25.3225 11.1042 25.3525 11.1243 25.3825C11.1268 25.385 11.1293 25.3875 11.1293 25.39C11.1293 25.39 11.1293 25.3925 11.1318 25.3925L11.1343 25.395C11.1818 25.4525 11.2267 25.51 11.2743 25.5675C11.4743 25.8025 11.6917 26.0225 11.9243 26.2275C11.9893 26.285 12.0568 26.34 12.1243 26.395C12.1268 26.3975 12.1318 26.4025 12.1368 26.405C12.1368 26.405 12.1393 26.405 12.1393 26.4075C12.1418 26.41 12.1443 26.4125 12.1468 26.415C12.1718 26.435 12.1993 26.4525 12.2243 26.4725C12.3443 26.56 12.4668 26.645 12.5943 26.7225C12.7318 26.8075 12.8718 26.89 13.0143 26.9625C13.1443 27.03 13.2818 27.1125 13.4218 27.155C13.2868 27.1125 13.4468 27.165 13.4718 27.175C13.5068 27.19 13.5418 27.2025 13.5768 27.215C13.6468 27.2425 13.7193 27.2675 13.7918 27.29C13.9368 27.3375 14.0818 27.38 14.2293 27.4175C14.3918 27.4575 14.5543 27.4925 14.7193 27.52C14.7568 27.5275 14.7968 27.5325 14.8343 27.5375C14.8368 27.5375 14.8393 27.5375 14.8418 27.54H14.8443H14.8518C14.9293 27.5475 15.0068 27.5575 15.0868 27.565C15.4168 27.5925 15.7468 27.5925 16.0768 27.5675C16.1668 27.56 16.2593 27.55 16.3493 27.54H16.3568H16.3593C16.3618 27.54 16.3643 27.54 16.3668 27.5375C16.4043 27.5325 16.4443 27.525 16.4818 27.52C16.6343 27.495 16.7843 27.4625 16.9343 27.4275C17.2243 27.3575 17.5218 27.27 17.7967 27.1475C17.8017 27.145 17.8067 27.1425 17.8117 27.14C17.8367 27.1275 17.8742 27.11 17.8842 27.105C17.9192 27.09 17.9517 27.0725 17.9867 27.0575C18.0542 27.025 18.1217 26.9925 18.1867 26.9575C18.3192 26.8875 18.4492 26.815 18.5767 26.735C18.7142 26.65 18.8467 26.56 18.9767 26.465C19.0017 26.445 19.0292 26.4275 19.0542 26.4075C19.0567 26.405 19.0592 26.4025 19.0617 26.4C19.0667 26.395 19.0742 26.39 19.0767 26.3875C19.1342 26.34 19.1917 26.295 19.2492 26.245C19.4842 26.0425 19.7017 25.825 19.9042 25.59C19.9617 25.525 20.0142 25.4575 20.0692 25.39C20.0692 25.3875 20.0717 25.3875 20.0717 25.3875L20.0742 25.385C20.0767 25.3825 20.0767 25.38 20.0792 25.3775C20.1017 25.3475 20.1242 25.3175 20.1442 25.2875C20.2317 25.1675 20.3142 25.0425 20.3917 24.9175C20.4867 24.765 20.5742 24.6075 20.6542 24.445C20.6942 24.3675 20.7317 24.2875 20.7667 24.2075C20.7717 24.1975 20.7992 24.135 20.8017 24.1275C20.8117 24.1025 20.8217 24.075 20.8317 24.05C20.9667 23.705 21.0742 23.35 21.1467 22.9875C21.1642 22.9 21.1967 22.8125 21.1967 22.725C21.1967 22.7125 21.2017 22.645 21.2042 22.635C21.2092 22.59 21.2117 22.545 21.2167 22.5C21.2317 22.315 21.2392 22.1325 21.2392 21.9475C21.2467 21.805 21.2417 21.66 21.2317 21.5175L21.2317 21.5175ZM18.7042 20.7774C18.5617 20.9199 18.4192 21.0625 18.2767 21.2025C17.6617 21.8174 17.0467 22.4324 16.4292 23.0499C16.0417 23.4374 15.6517 23.8275 15.2643 24.2149C14.9693 24.5099 14.4668 24.5099 14.1718 24.2149L12.5068 22.5499C12.2018 22.2449 12.2243 21.7649 12.5068 21.4574C12.7893 21.1499 13.3143 21.1699 13.5992 21.4574C13.6692 21.5274 13.7367 21.5949 13.8068 21.6624C14.1118 21.9674 14.4142 22.2674 14.7193 22.57C15.2942 21.995 15.8692 21.425 16.4442 20.85C16.8317 20.4625 17.2217 20.0725 17.6092 19.685C17.9142 19.38 18.3942 19.4025 18.7017 19.685C19.0117 19.9675 18.9892 20.49 18.7042 20.7775L18.7042 20.7774Z" fill="#7B439E" fill-opacity="0.7"/>
</svg>
