<svg width="32" height="32" viewBox="0 0 32 32" fill="none" xmlns="http://www.w3.org/2000/svg">
<path d="M17.8943 5.48305H17.9056C18.1549 5.48909 18.3745 5.69391 18.3926 5.96961L18.3928 25.5398C18.3928 26.0772 17.9567 26.499 17.4335 26.499H5.29913C4.76167 26.499 4.33984 26.0629 4.33984 25.5399V6.44234C4.33984 5.91913 4.7617 5.48305 5.29913 5.48305H17.8943ZM9.76553 16.4262V16.4263L9.76571 18.0391C9.76571 18.0391 9.76571 18.0391 9.76571 18.0391C9.76574 18.4433 10.0919 18.7695 10.4961 18.7695H12.2113C12.4157 18.7695 12.5897 18.6758 12.705 18.5687C12.8255 18.4568 12.9416 18.2743 12.9416 18.0391V18.039L12.9415 16.4262C12.9415 16.4262 12.9415 16.4262 12.9415 16.4262C12.9414 16.022 12.6153 15.6959 12.2111 15.6959H10.4959C10.0917 15.6959 9.76553 16.0221 9.76553 16.4262ZM8.03838 18.795H8.53838V18.6125C8.55511 18.5977 8.57136 18.5819 8.58707 18.565C8.73513 18.4056 8.78808 18.2015 8.76874 18.0079V16.4262C8.76874 16.0221 8.44256 15.6959 8.03838 15.6959H6.32318C5.919 15.6959 5.59282 16.0221 5.59282 16.4262V18.0646C5.59282 18.4688 5.919 18.795 6.32318 18.795H8.03838ZM7.81998 20.7526V20.7526L7.82015 24.5158C7.82015 24.92 8.14633 25.2462 8.55051 25.2462H10.8289C11.0418 25.2462 11.2331 25.1557 11.3664 25.0109C11.4997 25.1557 11.691 25.2462 11.9039 25.2462H14.1825C14.5866 25.2462 14.9128 24.92 14.9128 24.5158L14.9126 20.7526C14.9126 20.7526 14.9126 20.7526 14.9126 20.7526C14.9126 20.3484 14.5864 20.0222 14.1823 20.0222H11.9039C11.6995 20.0222 11.5255 20.1159 11.4102 20.223C11.3969 20.2353 11.3837 20.2484 11.3707 20.2624C11.2372 20.1148 11.044 20.0222 10.8287 20.0222H8.55033C8.14616 20.0222 7.81998 20.3484 7.81998 20.7526ZM10.4959 6.99198C10.0917 6.99198 9.76553 7.31816 9.76553 7.72234V9.36074C9.76553 9.76492 10.0917 10.0911 10.4959 10.0911H12.2111C12.4155 10.0911 12.5895 9.99745 12.7048 9.89039C12.8253 9.77849 12.9415 9.59591 12.9415 9.36074V7.72234C12.9415 7.31816 12.6153 6.99198 12.2111 6.99198H10.4959ZM10.4959 11.3182C10.2581 11.3182 10.0707 11.437 9.95475 11.5709C9.84002 11.7034 9.76553 11.8818 9.76553 12.0743V13.7127C9.76553 14.1169 10.0917 14.4431 10.4959 14.4431H12.2111C12.4155 14.4431 12.5895 14.3494 12.7048 14.2423C12.8253 14.1304 12.9415 13.9479 12.9415 13.7127V12.0743C12.9415 11.8818 12.867 11.7034 12.7522 11.5709C12.6363 11.437 12.4489 11.3182 12.2111 11.3182H10.4959ZM6.29749 6.99189C5.89331 6.99189 5.56714 7.31807 5.56714 7.72225V9.36065C5.56714 9.76483 5.89331 10.091 6.29749 10.091H8.01269C8.41687 10.091 8.74305 9.76483 8.74305 9.36065V7.72225C8.74305 7.31807 8.41687 6.99189 8.01269 6.99189H6.29749ZM6.29749 11.3181C6.05968 11.3181 5.87233 11.4369 5.75635 11.5708C5.64162 11.7033 5.56714 11.8817 5.56714 12.0742V13.7126C5.56714 14.1168 5.89331 14.443 6.29749 14.443H8.01269C8.41687 14.443 8.74305 14.1168 8.74305 13.7126V12.0742C8.74305 11.8817 8.66857 11.7033 8.55384 11.5708C8.43786 11.4369 8.25051 11.3181 8.01269 11.3181H6.29749ZM11.1735 20.7526H11.0591H11.1735ZM16.4096 18.7694C16.8138 18.7694 17.14 18.4432 17.14 18.039V16.4006C17.14 15.9964 16.8138 15.6702 16.4096 15.6702H14.6944C14.2902 15.6702 13.9641 15.9964 13.9641 16.4006V18.039C13.9641 18.4432 14.2902 18.7694 14.6944 18.7694H16.4096ZM16.4096 14.4429C16.8138 14.4429 17.14 14.1167 17.14 13.7126V12.0742C17.14 11.8816 17.0655 11.7032 16.9508 11.5708C16.8348 11.4369 16.6474 11.3181 16.4096 11.3181H14.6944C14.4566 11.3181 14.2693 11.4369 14.1533 11.5708C14.0385 11.7032 13.9641 11.8816 13.9641 12.0742V13.7126C13.9641 14.1167 14.2902 14.4429 14.6944 14.4429H16.4096ZM16.4096 10.091C16.8138 10.091 17.14 9.76477 17.14 9.3606V7.7222C17.14 7.31803 16.8138 6.99184 16.4096 6.99184H14.6944C14.2902 6.99184 13.9641 7.31802 13.9641 7.7222V9.3606C13.9641 9.76478 14.2902 10.091 14.6944 10.091H16.4096Z" fill="#70B6F6" stroke="#70B6F6"/>
<path d="M27.9041 18.9094C27.7762 17.6806 26.7265 16.759 25.4721 16.759H23.7569C22.5024 16.759 21.4785 17.6806 21.3249 18.9351L21.0946 20.9319C21.069 21.188 21.2226 21.4439 21.4785 21.4951C21.8369 21.5719 22.2208 21.6232 22.6049 21.6744L22.8865 26.3592C22.9121 26.7176 23.2194 27.0248 23.5778 27.0248H25.7026C26.061 27.0248 26.3682 26.7432 26.3939 26.3592L26.6755 21.6744C27.0594 21.6232 27.4178 21.5721 27.8019 21.4951C28.058 21.4439 28.2371 21.188 28.1858 20.9319L27.9041 18.9094Z" fill="#70B6F6"/>
<path d="M26.9312 13.8151C26.9312 15.0877 25.8997 16.1192 24.6272 16.1192C23.3548 16.1192 22.3232 15.0877 22.3232 13.8151C22.3232 12.5428 23.3548 11.5112 24.6272 11.5112C25.8997 11.5112 26.9312 12.5428 26.9312 13.8151" fill="#70B6F6"/>
</svg>
