<svg width="32" height="32" viewBox="0 0 32 32" fill="none" xmlns="http://www.w3.org/2000/svg">
<path d="M20.6591 13.8473C21.7703 13.8473 22.7076 14.5417 23.0895 15.5139L25.1034 8.53485C25.277 7.94462 25.1729 7.31947 24.7909 6.79878C24.409 6.31269 23.8534 6.00024 23.2285 6.00024L10.3121 6C9.37456 6 8.54137 6.59024 8.22869 7.4929L5.90234 14.1247C6.24966 13.9164 6.66622 13.8123 7.11772 13.8123H20.6591L20.6591 13.8473Z" fill="#E38163"/>
<path d="M20.6595 18.9167C21.8053 18.9167 22.743 17.9791 22.743 16.8333V16.4167C22.743 15.2709 21.8054 14.3333 20.6595 14.3333L7.08342 14.3335C5.9376 14.3335 5 15.271 5 16.4169V16.8335C5 17.9793 5.93754 18.9169 7.08342 18.9169L20.6595 18.9167ZM8.26395 16.1389H19.4443C19.7221 16.1389 19.965 16.3821 19.965 16.6596C19.965 16.9374 19.7218 17.1803 19.4443 17.1803L8.26395 17.1806C7.98615 17.1806 7.74322 16.9374 7.74322 16.6599C7.74322 16.3821 7.98639 16.1389 8.26395 16.1389V16.1389Z" fill="#E38163"/>
<path d="M22.0829 22.4584C23.2287 22.4584 24.1663 21.5208 24.1663 20.3749V19.9584C24.1663 19.125 23.6802 18.3959 22.9509 18.0835C22.8468 18.2918 22.7078 18.4654 22.569 18.6042C22.0829 19.125 21.3885 19.4723 20.6592 19.4723H7.08312C6.90946 19.4723 6.70117 19.4376 6.52752 19.4028C6.45801 19.5764 6.45801 19.7847 6.45801 19.993V20.4096C6.45801 21.5554 7.39555 22.493 8.54142 22.493H22.0828L22.0829 22.4584ZM9.72203 20.3403H12.3608C12.6386 20.3403 12.8815 20.5835 12.8815 20.8611C12.8815 21.1389 12.6384 21.3818 12.3608 21.3818L9.72203 21.382C9.44423 21.382 9.20131 21.1389 9.20131 20.8613C9.23594 20.5835 9.44423 20.3403 9.72203 20.3403V20.3403Z" fill="#E38163"/>
<path d="M25.2431 23.361C25.2085 22.7012 24.8265 22.111 24.3056 21.7637C24.2361 21.9025 24.1319 22.0068 24.0278 22.111C23.5417 22.6317 22.8473 22.979 22.0834 22.979H8.542C8.22956 22.979 7.91714 22.9095 7.6393 22.8402C7.56979 23.0485 7.53516 23.2917 7.53516 23.5V23.9166C7.53516 25.0624 8.4727 26 9.61858 26H23.1947C24.3405 26 25.2782 25.0624 25.2782 23.9166V23.5C25.2433 23.4651 25.2433 23.4305 25.2433 23.361L25.2431 23.361ZM21.9792 24.8888H10.7989C10.5211 24.8888 10.2782 24.6456 10.2782 24.368C10.2782 24.0902 10.5213 23.8473 10.7989 23.8473H21.9792C22.257 23.8473 22.5 24.0905 22.5 24.368C22.5 24.6458 22.257 24.8888 21.9792 24.8888Z" fill="#E38163"/>
<path d="M23.2641 16.8681V16.9723V17.0764V17.1111V17.1457V17.2152V17.2847V17.3542V17.4237C23.2641 17.4584 23.2295 17.5279 23.2295 17.5625C23.8197 17.8403 24.3058 18.3264 24.549 18.9167L26.4933 12.2154C26.6669 11.6252 26.5628 11 26.1808 10.4793C25.9725 10.1669 25.6601 9.95863 25.3128 9.81958L23.2641 16.7986L23.2641 16.8681Z" fill="#E38163"/>
<path d="M27.2213 13.639C27.0826 13.4653 26.9089 13.2916 26.7352 13.1875L24.7213 20.1665V20.4097V20.5485V20.5831V20.6177V20.7219V20.7565V20.826V20.8955C24.7213 20.9302 24.6867 20.9997 24.6867 21.0343V21.069V21.1036C24.6867 21.1731 24.6521 21.2077 24.6172 21.2773L24.6867 21.3119C25.0687 21.5897 25.416 21.9368 25.5894 22.3536L27.638 15.3051C27.7075 14.75 27.6033 14.1252 27.2214 13.6391L27.2213 13.639Z" fill="#E38163"/>
</svg>
