<svg width="32" height="32" viewBox="0 0 32 32" fill="none" xmlns="http://www.w3.org/2000/svg">
<path d="M8.048 5L6.19191 9.672H13.2639L14.192 5H8.04795H8.048ZM18.288 5L19.2161 9.672H26.2881L24.432 5H18.288H18.288ZM6 10.28V26.504H26.48V10.28H19.312V17.288L18.2881 16.2641L17.2642 17.288L16.2403 16.2641L15.2164 17.288L14.1925 16.2641L13.1686 17.288V10.28H6ZM9.07196 20.36H15.216C15.7811 20.36 16.2399 20.7696 16.2399 21.3839V23.432C16.2399 23.9439 15.7811 24.4559 15.216 24.4559H9.07196C8.50642 24.4559 8.04805 23.9439 8.04805 23.432V21.3839C8.04805 20.7695 8.50642 20.36 9.07196 20.36V20.36ZM9.07196 21.3839V23.432H10.0959V21.3839H9.07196ZM11.12 21.3839V23.432H15.2157V21.3839H11.12Z" fill="#7AA9ED"/>
</svg>
