<svg width="32" height="32" viewBox="0 0 32 32" fill="none" xmlns="http://www.w3.org/2000/svg">
<path d="M27.1214 27.2001H26.3935V18.8C26.3924 18.482 26.2658 18.1774 26.041 17.9525C25.816 17.7277 25.5114 17.6009 25.1935 17.6V17.2C25.1924 16.882 25.0658 16.5774 24.841 16.3525C24.616 16.1277 24.3114 16.0009 23.9935 16H19.1936C18.8756 16.0009 18.5709 16.1277 18.3461 16.3525C18.1211 16.5774 17.9945 16.882 17.9936 17.2V17.6C17.6756 17.6009 17.3709 17.7277 17.1461 17.9525C16.9211 18.1774 16.7945 18.482 16.7936 18.8V27.2001H13.9936V22.4001C13.9942 22.1881 14.0786 21.9849 14.2286 21.8351C14.3785 21.6852 14.5815 21.6006 14.7936 21.6001H15.9936V18.8001H12.7936C12.5726 18.8001 12.3936 18.6209 12.3936 18.4001C12.3936 18.1792 12.5726 18 12.7936 18H15.9936C16.0484 18.0006 16.1027 18.0115 16.1536 18.032C16.352 17.5504 16.7309 17.1658 17.2095 16.9601C17.2354 16.7427 17.299 16.5315 17.3975 16.3361C17.3365 16.3751 17.2659 16.3972 17.1936 16.4001H12.7937C12.5751 16.3967 12.3997 16.2186 12.3997 16.0001C12.3997 15.7815 12.5751 15.6035 12.7937 15.6001H17.1936C17.3016 15.5995 17.405 15.6433 17.4799 15.7211C17.5547 15.799 17.5943 15.9042 17.5895 16.012C17.9656 15.5027 18.5606 15.2016 19.1936 15.2H21.9936V6.80001C21.9925 6.48197 21.8659 6.17733 21.6411 5.9525C21.4161 5.72768 21.1114 5.6009 20.7936 5.6V5.2C20.7925 4.88197 20.6659 4.57732 20.4411 4.3525C20.2161 4.12768 19.9115 4.00089 19.5936 4H13.1937C12.8756 4.00089 12.571 4.12768 12.3462 4.3525C12.1212 4.57732 11.9946 4.88197 11.9937 5.2V5.6C11.6757 5.6009 11.371 5.72768 11.1462 5.9525C10.9212 6.17733 10.7946 6.48197 10.7937 6.80001V27.2001H9.99371V13.4483L6.70159 11.0322C6.4623 10.8559 6.16587 10.7748 5.87014 10.8048C5.57425 10.835 5.30032 10.9739 5.10142 11.1948C4.90231 11.4159 4.79267 11.7029 4.79374 12.0002V27.2003H4.39375C4.17536 27.2038 4 27.3819 4 27.6003C4.00018 27.8187 4.17535 27.9967 4.39375 28.0003H27.1213C27.3397 27.9967 27.515 27.8187 27.515 27.6003C27.515 27.3819 27.3397 27.2038 27.1213 27.2003L27.1214 27.2001ZM18.7937 17.2C18.7942 16.9793 18.973 16.8007 19.1937 16.8H23.9936C24.2141 16.8007 24.3929 16.9793 24.3936 17.2V17.6H18.7937V17.2ZM18.7937 20H24.3936C24.6122 20.0033 24.7877 20.1815 24.7877 20.4C24.7877 20.6186 24.6122 20.7968 24.3936 20.8H18.7937C18.5751 20.7967 18.3997 20.6186 18.3997 20.4C18.3997 20.1815 18.5751 20.0034 18.7937 20ZM18.7937 22.4001H24.3936C24.6122 22.4033 24.7877 22.5815 24.7877 22.8001C24.7877 23.0186 24.6122 23.1968 24.3936 23.2001H18.7937C18.5751 23.1967 18.3997 23.0186 18.3997 22.8001C18.3997 22.5815 18.5751 22.4034 18.7937 22.4001ZM18.7937 24.8001H24.3936C24.6122 24.8033 24.7877 24.9815 24.7877 25.2001C24.7877 25.4186 24.6122 25.5969 24.3936 25.6001H18.7937C18.5751 25.5967 18.3997 25.4186 18.3997 25.2001C18.3997 24.9815 18.5751 24.8035 18.7937 24.8001ZM6.38786 15.6H9.18783C9.40639 15.6031 9.58211 15.7813 9.58211 16C9.58211 16.2188 9.40639 16.397 9.18783 16.4H6.38786C6.16911 16.397 5.9934 16.2188 5.9934 16C5.9934 15.7813 6.16911 15.6031 6.38786 15.6ZM6.38786 18H9.18783C9.40639 18.0031 9.58211 18.1813 9.58211 18.4C9.58211 18.6188 9.40639 18.797 9.18783 18.8H6.38786C6.16911 18.797 5.9934 18.6188 5.9934 18.4C5.9934 18.1813 6.16911 18.0031 6.38786 18ZM6.38786 20.4H9.18783C9.40639 20.4031 9.58211 20.5813 9.58211 20.8C9.58211 21.0188 9.40639 21.197 9.18783 21.2H6.38786C6.16911 21.197 5.9934 21.0188 5.9934 20.8C5.9934 20.5813 6.16911 20.4031 6.38786 20.4ZM6.38786 22.8001H9.18783C9.40639 22.8031 9.58211 22.9813 9.58211 23.2001C9.58211 23.4188 9.40639 23.597 9.18783 23.6001H6.38786C6.16911 23.597 5.9934 23.4188 5.9934 23.2001C5.9934 22.9813 6.16911 22.8031 6.38786 22.8001ZM19.9932 14H12.7933C12.5747 13.9966 12.3994 13.8186 12.3994 13.6C12.3994 13.3814 12.5747 13.2034 12.7933 13.2H19.9932C20.2116 13.2034 20.3869 13.3814 20.3869 13.6C20.3869 13.8186 20.2116 13.9966 19.9932 14ZM19.9932 11.6H12.7933C12.5747 11.5966 12.3994 11.4186 12.3994 11.2C12.3994 10.9814 12.5747 10.8034 12.7933 10.8H19.9932C20.2116 10.8034 20.3869 10.9814 20.3869 11.2C20.3869 11.4186 20.2116 11.5966 19.9932 11.6ZM19.9932 9.19998H12.7933C12.5747 9.19659 12.3994 9.01855 12.3994 8.79998C12.3994 8.58141 12.5747 8.40337 12.7933 8.39998H19.9932C20.2116 8.40337 20.3869 8.58141 20.3869 8.79998C20.3869 9.01855 20.2116 9.19659 19.9932 9.19998ZM12.7933 5.19996C12.7938 4.97925 12.9726 4.80068 13.1933 4.79996H19.5932C19.8137 4.80068 19.9925 4.97925 19.9932 5.19996V5.59997H12.7933V5.19996Z" fill="#FFC700"/>
</svg>
