<svg width="32" height="32" viewBox="0 0 32 32" fill="none" xmlns="http://www.w3.org/2000/svg">
<path d="M7 7.4939V28.3581C7 28.6792 7.3531 29.0001 7.67419 29.0001H25.0075C25.3286 29.0001 25.6175 28.679 25.6175 28.3581L25.6173 7.4939H7ZM16.5012 23.1581C12.7777 23.1581 9.7284 20.1408 9.7284 16.3853C9.7284 12.6298 12.7777 9.64452 16.5012 9.64452C20.2248 9.64452 23.2741 12.6619 23.2741 16.4174C23.2741 20.1729 20.2248 23.1581 16.5012 23.1581Z" fill="#7AA9ED"/>
<path d="M25.0076 3H7.67419C7.35311 3 7 3.25682 7 3.57766V7.17291H25.6173L25.6171 3.57766C25.6171 3.25681 25.3283 3 25.0074 3H25.0076ZM16.3409 6.30618C15.6667 6.30618 15.1211 5.76053 15.1211 5.08637C15.1211 4.41218 15.6667 3.86655 16.3409 3.86655C17.0151 3.86655 17.5607 4.41221 17.5607 5.08637C17.5607 5.76056 17.015 6.30618 16.3409 6.30618ZM22.4397 5.50371C22.1828 5.50371 21.9583 5.27891 21.9583 5.02232C21.9583 4.7655 22.1831 4.54093 22.4397 4.54093C22.6965 4.54093 22.921 4.76573 22.921 5.02232C22.921 5.31116 22.6965 5.50371 22.4397 5.50371ZM23.7558 5.50371C23.4989 5.50371 23.2744 5.27891 23.2744 5.02232C23.2744 4.7655 23.4992 4.54093 23.7558 4.54093C24.0126 4.54093 24.2372 4.76573 24.2372 5.02232C24.2372 5.31116 24.0124 5.50371 23.7558 5.50371Z" fill="#7AA9ED"/>
<path d="M16.5018 10.4791C13.2276 10.4791 10.5635 13.1433 10.5635 16.4174C10.5635 19.6915 13.2277 22.3556 16.5018 22.3556C19.7759 22.3554 22.44 19.6912 22.44 16.4168C22.44 13.1429 19.7758 10.4785 16.5018 10.4785V10.4791ZM14.3832 19.884C14.3512 20.0123 14.2226 20.1088 14.0943 20.1088H13.9981C13.8375 20.0446 13.7412 19.884 13.8055 19.7237C14.3832 17.7977 14.0623 17.1558 13.7412 16.5138C13.3881 15.7756 13.003 15.0372 13.8375 12.9829C13.9018 12.8223 14.0943 12.7581 14.2549 12.8223C14.4154 12.8866 14.4797 13.0791 14.4154 13.2397C13.6772 15.0371 13.966 15.615 14.3191 16.257C14.608 16.8989 15.0253 17.7014 14.3832 19.884L14.3832 19.884ZM16.8869 19.884C16.8549 20.0123 16.7263 20.1088 16.598 20.1088H16.5018C16.3412 20.0446 16.2449 19.884 16.3092 19.7237C16.8869 17.7977 16.566 17.1558 16.2449 16.5138C15.8918 15.7756 15.5067 15.0372 16.3412 12.9829C16.4055 12.8223 16.598 12.7581 16.7586 12.8223C16.9191 12.8866 16.9834 13.0791 16.9191 13.2397C16.1809 15.0371 16.4697 15.615 16.8228 16.257C17.1117 16.8989 17.529 17.7014 16.8869 19.884L16.8869 19.884ZM19.3908 19.884C19.3588 20.0123 19.2303 20.1088 19.102 20.1088H19.0057C18.8452 20.0446 18.7489 19.884 18.8131 19.7237C19.3908 17.7977 19.07 17.1558 18.7489 16.5138C18.3958 15.7756 18.0107 15.0372 18.8452 12.9829C18.9094 12.8223 19.102 12.7581 19.2625 12.8223C19.4231 12.8866 19.4873 13.0791 19.4231 13.2397C18.6848 15.0371 18.9737 15.615 19.3268 16.257C19.6154 16.8989 20.0327 17.7014 19.3908 19.884L19.3908 19.884Z" fill="#7AA9ED"/>
</svg>
