<svg width="32" height="32" viewBox="0 0 32 32" fill="none" xmlns="http://www.w3.org/2000/svg">
<path fill-rule="evenodd" clip-rule="evenodd" d="M10.9193 6.59037C11.9523 6.23109 12.568 6.12857 13.3466 6.00002C13.427 6.77611 13.7959 7.46699 14.3441 7.96304C14.8909 8.45767 15.6154 8.75929 16.4089 8.75929C17.2025 8.75929 17.927 8.45786 18.4737 7.96304C19.0214 7.4675 19.39 6.77803 19.4711 6.00304L19.4716 6C20.2501 6.12822 20.8659 6.23089 21.8987 6.59036C23.1378 7.02125 27.8183 13.9947 27.8183 13.9947L23.852 16.5081L22.7513 15.2306V26.8471L16.4094 26.8469H10.067V15.2304L8.96645 16.5079L5 13.9947C5 13.9947 9.68023 7.02094 10.9195 6.59031L10.9193 6.59037ZM14.8557 6.61377C14.4623 6.51662 14.1221 6.38216 13.8605 6.22145C13.9758 6.76787 14.2628 7.25107 14.6617 7.61217C15.123 8.02967 15.7358 8.28394 16.4091 8.28394C17.0823 8.28394 17.6951 8.02965 18.1564 7.61217C18.5555 7.25128 18.8423 6.76787 18.9578 6.22145C18.696 6.38234 18.3559 6.51662 17.9625 6.61377C17.5059 6.72663 16.9741 6.79144 16.4092 6.79144C15.8441 6.79144 15.3125 6.72644 14.8557 6.61377V6.61377Z" fill="#F5FAFA"/>
<path fill-rule="evenodd" clip-rule="evenodd" d="M14.8556 6.61376C14.4622 6.51661 14.122 6.38215 13.8604 6.22144C13.9757 6.76786 14.2627 7.25106 14.6616 7.61215C15.1228 8.02965 15.7357 8.28392 16.4089 8.28392C17.0822 8.28392 17.695 8.02964 18.1563 7.61215C18.5554 7.25126 18.8422 6.76786 18.9577 6.22144C18.6959 6.38233 18.3557 6.51661 17.9623 6.61376C17.5057 6.72661 16.974 6.79143 16.4091 6.79143C15.8439 6.79143 15.3123 6.72643 14.8556 6.61376V6.61376Z" fill="#F5FAFA"/>
</svg>
