<svg width="32" height="32" viewBox="0 0 32 32" fill="none" xmlns="http://www.w3.org/2000/svg">
<path d="M8.18024 27.528H24.508C24.8207 27.5274 25.1205 27.4028 25.3417 27.1817C25.5628 26.9605 25.6874 26.6607 25.688 26.348V10.1204H7L7.00018 26.348C7.00071 26.6607 7.12536 26.9605 7.34643 27.1817C7.56767 27.4028 7.86748 27.5274 8.18016 27.528H8.18024ZM8.32363 15.3963C8.32363 15.2549 8.43827 15.1403 8.57971 15.1403H10.3717C11.4483 13.3931 13.2354 12.2044 15.2631 11.8867C17.2906 11.569 19.3556 12.1542 20.9147 13.4883C22.4742 14.8224 23.372 16.772 23.372 18.8241C23.372 20.8761 22.4742 22.8258 20.9147 24.1598C19.3555 25.4939 17.2905 26.0791 15.2631 25.7614C13.2356 25.4437 11.4485 24.255 10.3717 22.5078H8.57971C8.43827 22.5078 8.32363 22.3932 8.32363 22.2518V15.3963Z" fill="#7AA9ED"/>
<path d="M9.32221 18.8239C9.32435 17.7209 9.58739 16.6339 10.0903 15.6521H8.83594V21.9959H10.0827H10.0825C9.58237 21.0134 9.3218 19.9266 9.32216 18.8241L9.32221 18.8239Z" fill="#7AA9ED"/>
<path d="M10.3231 21.2942C10.399 21.4803 10.4845 21.6622 10.579 21.8396C10.6558 21.9906 10.7402 22.134 10.8351 22.2772C11.842 23.8849 13.5003 24.9733 15.376 25.2578C17.2515 25.5422 19.1578 24.9944 20.5965 23.7578C22.0349 22.521 22.8624 20.7183 22.8624 18.8216C22.8624 16.9244 22.0349 15.1219 20.5965 13.8853C19.158 12.6485 17.2517 12.1007 15.376 12.3852C13.5003 12.6696 11.842 13.758 10.8351 15.3657C10.7454 15.5091 10.661 15.6525 10.579 15.8034V15.8036C10.4845 15.9807 10.399 16.1627 10.3231 16.3488C9.67094 17.9312 9.67094 19.7071 10.3231 21.2895V21.2942ZM16.3441 13.6092C17.7272 13.6092 19.0536 14.1585 20.0314 15.1365C21.0095 16.1144 21.5588 17.4408 21.5588 18.8238C21.5588 20.2068 21.0095 21.5333 20.0314 22.5111C19.0536 23.4892 17.7272 24.0384 16.3441 24.0384C14.9611 24.0384 13.6346 23.4891 12.6568 22.5111C11.6788 21.5332 11.1295 20.2068 11.1295 18.8238C11.1315 17.4415 11.6815 16.1161 12.659 15.1386C13.6365 14.1611 14.9618 13.6111 16.3441 13.6092V13.6092Z" fill="#7AA9ED"/>
<path d="M21.0468 18.824C21.0468 21.4213 18.9415 23.5266 16.3442 23.5266C13.747 23.5266 11.6416 21.4212 11.6416 18.824C11.6416 16.2267 13.747 14.1213 16.3442 14.1213C18.9415 14.1213 21.0468 16.2267 21.0468 18.824Z" fill="#7AA9ED"/>
<path d="M25.6887 6.17999C25.6882 5.86731 25.5635 5.56751 25.3425 5.34625C25.1212 5.12518 24.8214 5.00053 24.5087 5H8.18096C7.86829 5.00054 7.56848 5.12518 7.34723 5.34625C7.12616 5.5675 7.00151 5.8673 7.00098 6.17999V9.60783H25.689L25.6887 6.17999ZM9.56072 8.87572H9.5609C9.14393 8.87572 8.74412 8.71018 8.44931 8.41537C8.15467 8.12055 7.98897 7.72093 7.98897 7.30397C7.98897 6.88701 8.15468 6.48737 8.44931 6.19256C8.74413 5.89774 9.14394 5.73222 9.5609 5.73222C9.97769 5.73222 10.3775 5.89775 10.6723 6.19256C10.9671 6.48738 11.1326 6.88701 11.1326 7.30397C11.1326 7.72093 10.9671 8.12056 10.6723 8.41537C10.3775 8.7102 9.97768 8.87572 9.5609 8.87572H9.56072ZM14.96 8.26895V8.26913C14.7041 8.26913 14.4586 8.16734 14.2777 7.98645C14.0966 7.80538 13.995 7.55984 13.995 7.30394C13.995 7.04803 14.0966 6.80249 14.2777 6.62142C14.4586 6.44053 14.7041 6.33874 14.96 6.33874C15.2161 6.33874 15.4615 6.44053 15.6425 6.62142C15.8234 6.80249 15.9252 7.04803 15.9252 7.30394C15.9252 7.55984 15.8234 7.80538 15.6425 7.98645C15.4615 8.16734 15.2161 8.26913 14.96 8.26913V8.26895ZM18.4979 8.26895L18.4981 8.26913C18.242 8.26913 17.9965 8.16734 17.8156 7.98645C17.6345 7.80538 17.5329 7.55984 17.5329 7.30394C17.5329 7.04803 17.6345 6.80249 17.8156 6.62142C17.9965 6.44053 18.242 6.33874 18.4981 6.33874C18.754 6.33874 18.9995 6.44053 19.1804 6.62142C19.3615 6.80249 19.4631 7.04803 19.4631 7.30394C19.4631 7.55984 19.3615 7.80538 19.1804 7.98645C18.9995 8.16734 18.754 8.26913 18.4981 8.26913L18.4979 8.26895ZM22.0358 8.26895L22.036 8.26913C21.7801 8.26913 21.5345 8.16734 21.3534 7.98645C21.1726 7.80538 21.0708 7.55984 21.0708 7.30394C21.0708 7.04803 21.1726 6.80249 21.3534 6.62142C21.5345 6.44053 21.7801 6.33874 22.036 6.33874C22.2919 6.33874 22.5374 6.44053 22.7185 6.62142C22.8994 6.80249 23.0012 7.04803 23.0012 7.30394C23.0012 7.55984 22.8994 7.80538 22.7185 7.98645C22.5374 8.16734 22.2919 8.26913 22.036 8.26913L22.0358 8.26895Z" fill="#7AA9ED"/>
<path d="M10.6208 7.30398C10.6208 7.88935 10.1462 8.36382 9.561 8.36382C8.97563 8.36382 8.50098 7.88935 8.50098 7.30398C8.50098 6.71861 8.97563 6.24414 9.561 6.24414C10.1462 6.24414 10.6208 6.71861 10.6208 7.30398Z" fill="#7AA9ED"/>
<path d="M14.959 6.85083C14.7758 6.85083 14.6106 6.96119 14.5404 7.13047C14.4702 7.29976 14.509 7.49476 14.6386 7.62423C14.7683 7.75387 14.9631 7.79262 15.1324 7.72244C15.3017 7.65244 15.4122 7.48709 15.4122 7.30387C15.4122 7.0537 15.2093 6.85084 14.959 6.85084L14.959 6.85083Z" fill="#7AA9ED"/>
<path d="M18.4971 6.85083C18.3137 6.85083 18.1485 6.96119 18.0784 7.13047C18.0084 7.29976 18.0471 7.49476 18.1766 7.62423C18.3062 7.75387 18.501 7.79262 18.6705 7.72244C18.8398 7.65244 18.9502 7.48709 18.9502 7.30387C18.9502 7.1837 18.9025 7.06852 18.8175 6.98352C18.7325 6.89852 18.6173 6.85084 18.4971 6.85084L18.4971 6.85083Z" fill="#7AA9ED"/>
<path d="M22.0352 6.85083C21.8519 6.85083 21.6866 6.96119 21.6166 7.13047C21.5464 7.29976 21.5851 7.49476 21.7148 7.62423C21.8443 7.75387 22.0393 7.79262 22.2086 7.72244C22.3778 7.65244 22.4882 7.48709 22.4882 7.30387C22.4882 7.0537 22.2853 6.85084 22.0352 6.85084L22.0352 6.85083Z" fill="#7AA9ED"/>
</svg>
