<svg width="32" height="32" viewBox="0 0 32 32" fill="none" xmlns="http://www.w3.org/2000/svg">
<path d="M12.9027 17.0026L11.1433 16.5933L9.62931 20.6853L9.13836 18.3119H9.17917C9.38383 18.3119 9.58849 18.1484 9.58849 17.9026V17.3705C9.58849 17.1659 9.42494 16.9612 9.17917 16.9612H8.27893C8.07427 16.9612 7.86961 17.1248 7.86961 17.3705V17.9026C7.86961 18.1073 8.03316 18.3119 8.27893 18.3119H8.31974L7.82879 20.6445L6.31481 16.5525L4.55538 16.9618C3.65484 17.2073 3.04082 18.0257 3.04082 18.9668L3 22.7722C3 23.427 3.53205 23.9999 4.18654 23.9999H13.2299C13.8847 23.9999 14.4576 23.4678 14.4165 22.7722L14.3757 18.9668C14.4165 18.0257 13.8028 17.2073 12.9025 17.0027L12.9027 17.0026Z" fill="#314692" fill-opacity="0.5"/>
<path d="M12.8208 12.092C12.8208 14.3519 10.9889 16.1841 8.72874 16.1841C6.46892 16.1841 4.63672 14.3519 4.63672 12.092C4.63672 9.83192 6.46892 8 8.72874 8C10.9889 8 12.8208 9.83192 12.8208 12.092Z" fill="#314692" fill-opacity="0.5"/>
<path d="M26.6107 17.0026L24.8512 16.5933L23.3373 20.6853L22.846 18.353H22.8868C23.0915 18.353 23.2962 18.1894 23.2962 17.9437V17.4116C23.2962 17.2069 23.1326 17.0023 22.8868 17.0023H21.9866C21.7819 17.0023 21.5773 17.1658 21.5773 17.4116V17.9437C21.5773 18.1483 21.7408 18.353 21.9866 18.353H22.0274L21.5365 20.6856L20.0225 16.5936L18.2631 17.0029C17.3625 17.2072 16.7488 18.0256 16.708 18.9667V22.7724C16.708 23.4272 17.2401 24.0001 17.8946 24.0001H26.9379C27.5927 24.0001 28.1656 23.4681 28.1245 22.7724L28.0837 18.967C28.1245 18.0256 27.5108 17.2073 26.6105 17.0026H26.6107Z" fill="#314692" fill-opacity="0.5"/>
<path d="M26.5288 12.092C26.5288 14.3519 24.6969 16.1841 22.4368 16.1841C20.1766 16.1841 18.3447 14.3519 18.3447 12.092C18.3447 9.83192 20.1766 8 22.4368 8C24.6969 8 26.5288 9.83192 26.5288 12.092Z" fill="#314692" fill-opacity="0.5"/>
</svg>
