<svg width="32" height="32" viewBox="0 0 32 32" fill="none" xmlns="http://www.w3.org/2000/svg">
<mask id="path-1-inside-1_10_3405" fill="white">
<path fill-rule="evenodd" clip-rule="evenodd" d="M10.6736 15.1254V15.3386L12.0083 15.5399C12.1063 15.5534 12.1791 15.6363 12.1859 15.7309C12.2045 15.8545 12.2333 15.9813 12.267 16.1083L12.2688 16.1134C12.3025 16.2454 12.3449 16.3722 12.3906 16.494C12.4243 16.5802 12.3958 16.675 12.3263 16.7292L11.2707 17.5717L11.4856 17.942L12.7423 17.4465C12.832 17.4126 12.9318 17.4431 12.9859 17.5176C13.0688 17.6208 13.1568 17.7188 13.2498 17.8102C13.3463 17.9067 13.4461 17.9963 13.5509 18.0808C13.6218 18.1383 13.6456 18.2365 13.6134 18.3177L13.1195 19.5763L13.49 19.7893L14.3307 18.7338C14.39 18.6593 14.4915 18.6358 14.5761 18.6729C14.6963 18.7186 14.8215 18.7591 14.9516 18.7947C15.0852 18.8302 15.2172 18.859 15.3473 18.8791C15.4388 18.8927 15.5081 18.9656 15.52 19.0516L15.7231 20.3861H16.1493L16.349 19.0532C16.3641 18.9552 16.4454 18.8825 16.54 18.8756C16.6652 18.8552 16.792 18.8282 16.919 18.7943C17.0525 18.7588 17.1811 18.7165 17.3031 18.6691C17.3893 18.637 17.4857 18.664 17.5398 18.7334L18.3822 19.789L18.7527 19.5759L18.257 18.3174C18.2215 18.2277 18.2554 18.1261 18.3297 18.0738C18.4279 17.9927 18.5259 17.9047 18.6206 17.8099C18.7188 17.7118 18.81 17.6102 18.8913 17.5104C18.9488 17.4377 19.0468 17.414 19.1281 17.4461L20.3866 17.9417L20.5997 17.5713L19.5441 16.7306C19.468 16.6697 19.4461 16.5683 19.4832 16.4854C19.5289 16.3652 19.5695 16.2384 19.605 16.1083C19.6406 15.9745 19.6693 15.8427 19.6895 15.7124C19.7031 15.6211 19.7757 15.5534 19.8622 15.5399L21.1966 15.3386V14.9106L19.8622 14.7109C19.7639 14.6956 19.6929 14.6145 19.6863 14.5199C19.6659 14.3947 19.6389 14.2695 19.605 14.1427C19.5695 14.0091 19.5272 13.8806 19.4798 13.757C19.4461 13.6708 19.4748 13.5759 19.5441 13.5202L20.5997 12.6795L20.3866 12.3091L19.1281 12.8031C19.0384 12.8386 18.9402 12.8065 18.8861 12.7338C18.8048 12.634 18.7168 12.5358 18.6204 12.4411C18.5223 12.3413 18.4207 12.2516 18.3193 12.1688C18.2482 12.1113 18.2263 12.0149 18.2566 11.932L18.7524 10.6734L18.3818 10.4604L17.5395 11.5175C17.4802 11.592 17.3788 11.614 17.2941 11.5784C17.1741 11.5311 17.049 11.4904 16.9186 11.4567C16.785 11.4211 16.6531 11.3924 16.5229 11.3722C16.4316 11.3586 16.3622 11.2859 16.3504 11.1979L16.1491 9.86327H15.7229L15.5215 11.1979C15.5063 11.2959 15.425 11.3688 15.3304 11.3756C15.2052 11.3941 15.08 11.4229 14.9531 11.4568L14.9463 11.4586C14.8143 11.4941 14.6875 11.5347 14.5674 11.5804C14.4809 11.6143 14.3863 11.5854 14.3304 11.5161L13.4897 10.4606L13.1191 10.6736L13.6131 11.9322C13.6486 12.0218 13.6165 12.1216 13.542 12.1757C13.4406 12.2586 13.3423 12.3465 13.2511 12.4397C13.1547 12.5345 13.0634 12.6359 12.9804 12.7407C12.9213 12.8118 12.8248 12.8356 12.7418 12.8034L11.485 12.3095L11.2702 12.6798L12.3273 13.5206C12.4034 13.5815 12.4256 13.6863 12.3848 13.7709C12.3409 13.8893 12.3002 14.0129 12.2665 14.1413C12.2309 14.2749 12.2022 14.4068 12.182 14.537C12.1684 14.63 12.0957 14.6977 12.0079 14.7095L10.6733 14.9107L10.6736 15.1254ZM20.6823 5.95237L20.0547 6.77272C20.3779 6.93343 20.6907 7.11111 20.9918 7.30556L21.5061 6.62378L20.6823 5.95237ZM15.9358 12.9096C16.5463 12.9096 17.0996 13.1582 17.5022 13.5591C17.9031 13.9584 18.1517 14.5132 18.1517 15.1255C18.1517 15.7379 17.903 16.2911 17.5022 16.692C17.1012 17.0929 16.5465 17.3414 15.9358 17.3414C15.3235 17.3414 14.7687 17.0929 14.3678 16.692L14.356 16.6784C13.9617 16.2791 13.7199 15.7295 13.7199 15.1255C13.7199 14.5132 13.9669 13.9584 14.3678 13.5591L14.3813 13.5473C14.7804 13.1532 15.3303 12.9096 15.9358 12.9096L15.9358 12.9096ZM15.9358 5.8134H15.9696L15.9915 5.81501H16.1146L16.1263 5.8168H16.1601L16.194 5.8184H16.2395L16.2497 5.82001H16.2937L16.2953 5.8218H16.3172L16.329 5.8234H16.3628L16.3746 5.82501H16.3965C16.6688 5.83858 16.9396 5.86394 17.2067 5.89947L17.9306 4H13.9369L14.6608 5.89947C14.9282 5.86394 15.1987 5.83858 15.471 5.82501H15.4946L15.5048 5.8234H15.5385L15.5503 5.8218H15.5723L15.5739 5.82001H15.6178L15.6296 5.8184H15.6751L15.7091 5.8168H15.7412L15.753 5.81501H15.8762L15.9 5.8134H15.9358ZM20.953 10.0643C19.6724 8.78373 17.9031 7.99036 15.9477 7.99036C13.9939 7.99036 12.2229 8.78373 10.9424 10.0643C9.66187 11.3448 8.86868 13.1157 8.86868 15.0695C8.86868 17.0249 9.66192 18.7943 10.9424 20.0748C12.223 21.3571 13.994 22.1487 15.9477 22.1487C17.903 22.1487 19.6724 21.3571 20.953 20.0748C22.2351 18.7942 23.0269 17.025 23.0269 15.0695C23.0269 13.1158 22.2351 11.3449 20.953 10.0643ZM15.9477 7.56751C18.0196 7.56751 19.8957 8.40645 21.2542 9.76481C22.6108 11.1214 23.4515 12.9973 23.4515 15.0695C23.4515 17.1417 22.6108 19.0175 21.2542 20.376C19.8958 21.7326 18.0199 22.5733 15.9477 22.5733C13.8755 22.5733 11.9997 21.7326 10.643 20.376C9.28459 19.0178 8.44569 17.1417 8.44569 15.0695C8.44569 12.9973 9.28464 11.1215 10.643 9.76481C11.9994 8.40659 13.8753 7.56751 15.9477 7.56751ZM26.398 15.1254C26.398 15.0104 26.491 14.9174 26.606 14.9174C26.721 14.9174 26.8141 15.0104 26.8141 15.1254C26.8141 18.1297 25.596 20.8493 23.6273 22.8169C21.66 24.7858 18.9383 26.0037 15.9358 26.0037C15.8208 26.0037 15.7276 25.9106 15.7276 25.7956C15.7276 25.6806 15.8207 25.5876 15.9358 25.5876C18.8249 25.5876 21.4403 24.4171 23.3329 22.5242C25.2275 20.6297 26.3981 18.0146 26.3981 15.1253L26.398 15.1254ZM5.47179 15.1254C5.47179 15.2404 5.37875 15.3335 5.26375 15.3335C5.15035 15.3335 5.05732 15.2404 5.05732 15.1254C5.05732 13.3831 5.46678 11.7372 6.1941 10.2774C6.95017 8.76175 8.05143 7.44586 9.39109 6.43425C9.48252 6.36657 9.6127 6.38353 9.68198 6.47478C9.75144 6.56621 9.7327 6.69639 9.64127 6.76568C8.35057 7.73834 7.29342 9.00353 6.56606 10.4618C5.8659 11.8659 5.47175 13.4491 5.47175 15.1255L5.47179 15.1254ZM5.20804 25.488C5.09464 25.488 5 25.3949 5 25.2815C5 25.1665 5.09482 25.0733 5.20804 25.0733H13.4659C13.5809 25.0733 13.6739 25.1664 13.6739 25.2815C13.6739 25.3948 13.5809 25.488 13.4659 25.488H5.20804ZM9.67876 27.0003C9.56376 27.0003 9.47073 26.9072 9.47073 26.7921C9.47073 26.6789 9.56376 26.584 9.67876 26.584H23.1723C23.2855 26.584 23.3787 26.6789 23.3787 26.7921C23.3787 26.9071 23.2857 27.0003 23.1723 27.0003H9.67876ZM22.2251 8.8348C20.9226 7.53391 19.2192 6.63228 17.3144 6.33642H17.3093L17.3041 6.33463C17.0046 6.28892 16.7017 6.25678 16.3923 6.2416C16.3246 6.2382 16.2553 6.23481 16.1877 6.2332H16.1337L16.1219 6.23142H16.0237L16.0018 6.22963H15.87L15.848 6.23142H15.748L15.7378 6.2332H15.6835C15.6143 6.23481 15.5466 6.2382 15.4771 6.2416C13.2037 6.3566 11.1536 7.32768 9.64443 8.83483C8.03583 10.4452 7.03944 12.6695 7.03944 15.1256C7.03944 17.5817 8.03588 19.8063 9.64443 21.4145C11.2548 23.0249 13.4775 24.0211 15.9352 24.0211C18.3913 24.0211 20.614 23.0249 22.2241 21.4145C23.8345 19.8059 24.8291 17.5814 24.8291 15.1256C24.8294 12.6695 23.8348 10.4453 22.2244 8.83483L22.2251 8.8348Z"/>
</mask>
<path fill-rule="evenodd" clip-rule="evenodd" d="M10.6736 15.1254V15.3386L12.0083 15.5399C12.1063 15.5534 12.1791 15.6363 12.1859 15.7309C12.2045 15.8545 12.2333 15.9813 12.267 16.1083L12.2688 16.1134C12.3025 16.2454 12.3449 16.3722 12.3906 16.494C12.4243 16.5802 12.3958 16.675 12.3263 16.7292L11.2707 17.5717L11.4856 17.942L12.7423 17.4465C12.832 17.4126 12.9318 17.4431 12.9859 17.5176C13.0688 17.6208 13.1568 17.7188 13.2498 17.8102C13.3463 17.9067 13.4461 17.9963 13.5509 18.0808C13.6218 18.1383 13.6456 18.2365 13.6134 18.3177L13.1195 19.5763L13.49 19.7893L14.3307 18.7338C14.39 18.6593 14.4915 18.6358 14.5761 18.6729C14.6963 18.7186 14.8215 18.7591 14.9516 18.7947C15.0852 18.8302 15.2172 18.859 15.3473 18.8791C15.4388 18.8927 15.5081 18.9656 15.52 19.0516L15.7231 20.3861H16.1493L16.349 19.0532C16.3641 18.9552 16.4454 18.8825 16.54 18.8756C16.6652 18.8552 16.792 18.8282 16.919 18.7943C17.0525 18.7588 17.1811 18.7165 17.3031 18.6691C17.3893 18.637 17.4857 18.664 17.5398 18.7334L18.3822 19.789L18.7527 19.5759L18.257 18.3174C18.2215 18.2277 18.2554 18.1261 18.3297 18.0738C18.4279 17.9927 18.5259 17.9047 18.6206 17.8099C18.7188 17.7118 18.81 17.6102 18.8913 17.5104C18.9488 17.4377 19.0468 17.414 19.1281 17.4461L20.3866 17.9417L20.5997 17.5713L19.5441 16.7306C19.468 16.6697 19.4461 16.5683 19.4832 16.4854C19.5289 16.3652 19.5695 16.2384 19.605 16.1083C19.6406 15.9745 19.6693 15.8427 19.6895 15.7124C19.7031 15.6211 19.7757 15.5534 19.8622 15.5399L21.1966 15.3386V14.9106L19.8622 14.7109C19.7639 14.6956 19.6929 14.6145 19.6863 14.5199C19.6659 14.3947 19.6389 14.2695 19.605 14.1427C19.5695 14.0091 19.5272 13.8806 19.4798 13.757C19.4461 13.6708 19.4748 13.5759 19.5441 13.5202L20.5997 12.6795L20.3866 12.3091L19.1281 12.8031C19.0384 12.8386 18.9402 12.8065 18.8861 12.7338C18.8048 12.634 18.7168 12.5358 18.6204 12.4411C18.5223 12.3413 18.4207 12.2516 18.3193 12.1688C18.2482 12.1113 18.2263 12.0149 18.2566 11.932L18.7524 10.6734L18.3818 10.4604L17.5395 11.5175C17.4802 11.592 17.3788 11.614 17.2941 11.5784C17.1741 11.5311 17.049 11.4904 16.9186 11.4567C16.785 11.4211 16.6531 11.3924 16.5229 11.3722C16.4316 11.3586 16.3622 11.2859 16.3504 11.1979L16.1491 9.86327H15.7229L15.5215 11.1979C15.5063 11.2959 15.425 11.3688 15.3304 11.3756C15.2052 11.3941 15.08 11.4229 14.9531 11.4568L14.9463 11.4586C14.8143 11.4941 14.6875 11.5347 14.5674 11.5804C14.4809 11.6143 14.3863 11.5854 14.3304 11.5161L13.4897 10.4606L13.1191 10.6736L13.6131 11.9322C13.6486 12.0218 13.6165 12.1216 13.542 12.1757C13.4406 12.2586 13.3423 12.3465 13.2511 12.4397C13.1547 12.5345 13.0634 12.6359 12.9804 12.7407C12.9213 12.8118 12.8248 12.8356 12.7418 12.8034L11.485 12.3095L11.2702 12.6798L12.3273 13.5206C12.4034 13.5815 12.4256 13.6863 12.3848 13.7709C12.3409 13.8893 12.3002 14.0129 12.2665 14.1413C12.2309 14.2749 12.2022 14.4068 12.182 14.537C12.1684 14.63 12.0957 14.6977 12.0079 14.7095L10.6733 14.9107L10.6736 15.1254ZM20.6823 5.95237L20.0547 6.77272C20.3779 6.93343 20.6907 7.11111 20.9918 7.30556L21.5061 6.62378L20.6823 5.95237ZM15.9358 12.9096C16.5463 12.9096 17.0996 13.1582 17.5022 13.5591C17.9031 13.9584 18.1517 14.5132 18.1517 15.1255C18.1517 15.7379 17.903 16.2911 17.5022 16.692C17.1012 17.0929 16.5465 17.3414 15.9358 17.3414C15.3235 17.3414 14.7687 17.0929 14.3678 16.692L14.356 16.6784C13.9617 16.2791 13.7199 15.7295 13.7199 15.1255C13.7199 14.5132 13.9669 13.9584 14.3678 13.5591L14.3813 13.5473C14.7804 13.1532 15.3303 12.9096 15.9358 12.9096L15.9358 12.9096ZM15.9358 5.8134H15.9696L15.9915 5.81501H16.1146L16.1263 5.8168H16.1601L16.194 5.8184H16.2395L16.2497 5.82001H16.2937L16.2953 5.8218H16.3172L16.329 5.8234H16.3628L16.3746 5.82501H16.3965C16.6688 5.83858 16.9396 5.86394 17.2067 5.89947L17.9306 4H13.9369L14.6608 5.89947C14.9282 5.86394 15.1987 5.83858 15.471 5.82501H15.4946L15.5048 5.8234H15.5385L15.5503 5.8218H15.5723L15.5739 5.82001H15.6178L15.6296 5.8184H15.6751L15.7091 5.8168H15.7412L15.753 5.81501H15.8762L15.9 5.8134H15.9358ZM20.953 10.0643C19.6724 8.78373 17.9031 7.99036 15.9477 7.99036C13.9939 7.99036 12.2229 8.78373 10.9424 10.0643C9.66187 11.3448 8.86868 13.1157 8.86868 15.0695C8.86868 17.0249 9.66192 18.7943 10.9424 20.0748C12.223 21.3571 13.994 22.1487 15.9477 22.1487C17.903 22.1487 19.6724 21.3571 20.953 20.0748C22.2351 18.7942 23.0269 17.025 23.0269 15.0695C23.0269 13.1158 22.2351 11.3449 20.953 10.0643ZM15.9477 7.56751C18.0196 7.56751 19.8957 8.40645 21.2542 9.76481C22.6108 11.1214 23.4515 12.9973 23.4515 15.0695C23.4515 17.1417 22.6108 19.0175 21.2542 20.376C19.8958 21.7326 18.0199 22.5733 15.9477 22.5733C13.8755 22.5733 11.9997 21.7326 10.643 20.376C9.28459 19.0178 8.44569 17.1417 8.44569 15.0695C8.44569 12.9973 9.28464 11.1215 10.643 9.76481C11.9994 8.40659 13.8753 7.56751 15.9477 7.56751ZM26.398 15.1254C26.398 15.0104 26.491 14.9174 26.606 14.9174C26.721 14.9174 26.8141 15.0104 26.8141 15.1254C26.8141 18.1297 25.596 20.8493 23.6273 22.8169C21.66 24.7858 18.9383 26.0037 15.9358 26.0037C15.8208 26.0037 15.7276 25.9106 15.7276 25.7956C15.7276 25.6806 15.8207 25.5876 15.9358 25.5876C18.8249 25.5876 21.4403 24.4171 23.3329 22.5242C25.2275 20.6297 26.3981 18.0146 26.3981 15.1253L26.398 15.1254ZM5.47179 15.1254C5.47179 15.2404 5.37875 15.3335 5.26375 15.3335C5.15035 15.3335 5.05732 15.2404 5.05732 15.1254C5.05732 13.3831 5.46678 11.7372 6.1941 10.2774C6.95017 8.76175 8.05143 7.44586 9.39109 6.43425C9.48252 6.36657 9.6127 6.38353 9.68198 6.47478C9.75144 6.56621 9.7327 6.69639 9.64127 6.76568C8.35057 7.73834 7.29342 9.00353 6.56606 10.4618C5.8659 11.8659 5.47175 13.4491 5.47175 15.1255L5.47179 15.1254ZM5.20804 25.488C5.09464 25.488 5 25.3949 5 25.2815C5 25.1665 5.09482 25.0733 5.20804 25.0733H13.4659C13.5809 25.0733 13.6739 25.1664 13.6739 25.2815C13.6739 25.3948 13.5809 25.488 13.4659 25.488H5.20804ZM9.67876 27.0003C9.56376 27.0003 9.47073 26.9072 9.47073 26.7921C9.47073 26.6789 9.56376 26.584 9.67876 26.584H23.1723C23.2855 26.584 23.3787 26.6789 23.3787 26.7921C23.3787 26.9071 23.2857 27.0003 23.1723 27.0003H9.67876ZM22.2251 8.8348C20.9226 7.53391 19.2192 6.63228 17.3144 6.33642H17.3093L17.3041 6.33463C17.0046 6.28892 16.7017 6.25678 16.3923 6.2416C16.3246 6.2382 16.2553 6.23481 16.1877 6.2332H16.1337L16.1219 6.23142H16.0237L16.0018 6.22963H15.87L15.848 6.23142H15.748L15.7378 6.2332H15.6835C15.6143 6.23481 15.5466 6.2382 15.4771 6.2416C13.2037 6.3566 11.1536 7.32768 9.64443 8.83483C8.03583 10.4452 7.03944 12.6695 7.03944 15.1256C7.03944 17.5817 8.03588 19.8063 9.64443 21.4145C11.2548 23.0249 13.4775 24.0211 15.9352 24.0211C18.3913 24.0211 20.614 23.0249 22.2241 21.4145C23.8345 19.8059 24.8291 17.5814 24.8291 15.1256C24.8294 12.6695 23.8348 10.4453 22.2244 8.83483L22.2251 8.8348Z" fill="#3AA981" stroke="#3AA981" stroke-width="2" mask="url(#path-1-inside-1_10_3405)"/>
</svg>
