<svg width="32" height="32" viewBox="0 0 32 32" fill="none" xmlns="http://www.w3.org/2000/svg">
<path d="M16.0001 21.1995C16.164 21.1995 16.3119 21.2983 16.3747 21.4497C16.4374 21.6011 16.4028 21.7756 16.2869 21.8915C16.1708 22.0074 15.9965 22.0422 15.8451 21.9793C15.6935 21.9166 15.5947 21.7688 15.5947 21.6049C15.5951 21.3811 15.7763 21.1997 16.0001 21.1995L16.0001 21.1995ZM21.2056 22.0102C21.3695 22.0102 21.5173 21.9116 21.58 21.76C21.6429 21.6086 21.6082 21.4343 21.4923 21.3182C21.3764 21.2023 21.202 21.1677 21.0506 21.2304C20.8991 21.2931 20.8002 21.4407 20.8002 21.6048C20.8004 21.8286 20.9816 22.01 21.2056 22.0102L21.2056 22.0102ZM16.8002 15.1997H25.9211L25.3611 23.5997H6.6393L6.0793 15.1997H9.60021V18.2874C9.60021 18.5338 9.71378 18.7663 9.90789 18.9179C10.1022 19.0695 10.3554 19.1231 10.5943 19.0634L11.2124 18.909C11.467 18.8452 11.7336 18.8452 11.9883 18.909L12.6181 19.0665L12.6183 19.0663C13.0004 19.1616 13.4002 19.1616 13.7826 19.0663L14.4122 18.9088V18.909C14.6668 18.8452 14.9334 18.8452 15.1881 18.909L15.8063 19.0636C16.0452 19.1234 16.2985 19.0697 16.4928 18.9181C16.6869 18.7665 16.8003 18.5338 16.8003 18.2874L16.8002 15.1997ZM12.0002 21.6052C12.0002 21.2853 11.8732 20.9789 11.6472 20.7528C11.4211 20.5268 11.1145 20.3998 10.7947 20.3998C10.475 20.3998 10.1685 20.5269 9.94253 20.753C9.71646 20.9791 9.58949 21.2857 9.58949 21.6053C9.58949 21.925 9.71646 22.2316 9.94253 22.4577C10.1686 22.6836 10.4752 22.8106 10.7949 22.8106C11.1145 22.8102 11.4209 22.683 11.6469 22.4572C11.8729 22.2311 11.9999 21.9247 12.0002 21.6052L12.0002 21.6052ZM20.0002 21.6052C20.0002 21.9248 20.1272 22.2314 20.3532 22.4575C20.5793 22.6836 20.8859 22.8106 21.2056 22.8106C21.5252 22.8106 21.8318 22.6836 22.0579 22.4575C22.284 22.2314 22.411 21.9249 22.411 21.6052C22.411 21.2855 22.284 20.9789 22.0579 20.7528C21.8319 20.5268 21.5253 20.3998 21.2056 20.3998C20.8859 20.4001 20.5797 20.5273 20.3536 20.7532C20.1277 20.9793 20.0006 21.2855 20.0002 21.6052L20.0002 21.6052ZM16.0002 20.3998C15.6806 20.3998 15.374 20.5268 15.1479 20.7529C14.9218 20.9789 14.7948 21.2855 14.7948 21.6052C14.7947 21.9248 14.9218 22.2314 15.1479 22.4575C15.3738 22.6836 15.6803 22.8106 16.0002 22.8106C16.3199 22.8106 16.6265 22.6836 16.8526 22.4575C17.0786 22.2315 17.2056 21.9249 17.2056 21.6052C17.2052 21.2856 17.0781 20.9791 16.8522 20.7532C16.6261 20.5273 16.3199 20.4002 16.0002 20.3998L16.0002 20.3998ZM10.7947 21.1998C10.6308 21.1998 10.4829 21.2986 10.4203 21.45C10.3574 21.6014 10.3922 21.7759 10.5081 21.8918C10.624 22.0077 10.7985 22.0425 10.9499 21.9796C11.1013 21.917 11.2001 21.7691 11.2001 21.6052C11.1997 21.3814 11.0185 21.2002 10.7947 21.1998L10.7947 21.1998ZM26.6 11.5998H18.3998C18.3998 11.8207 18.2206 11.9998 17.9998 11.9998C17.7789 11.9998 17.5998 11.8207 17.5998 11.5998V10.7998C17.5998 10.5789 17.4206 10.3998 17.1998 10.3998C16.9789 10.3998 16.7998 10.5789 16.7998 10.7998V14.3998H26.6C27.1001 14.3998 27.5623 14.133 27.8125 13.6998C28.0625 13.2666 28.0625 12.7331 27.8125 12.2998C27.5623 11.8666 27.1001 11.5999 26.6 11.5999V11.5998ZM5.39998 14.3998H9.59998V11.5998H5.39998C4.89982 11.5998 4.43765 11.8666 4.1875 12.2998C3.9375 12.733 3.9375 13.2666 4.1875 13.6998C4.43768 14.133 4.89982 14.3998 5.39998 14.3998V14.3998ZM12.1822 18.133L12.8118 18.2905C13.0666 18.3541 13.333 18.3541 13.5879 18.2905L14.2175 18.133C14.5998 18.0377 14.9996 18.0377 15.382 18.133L15.9998 18.2875V16.7998H10.3998V18.2875L11.0179 18.133C11.4 18.0377 11.7998 18.0377 12.1822 18.133H12.1822ZM6.69232 24.4L6.70125 24.533C6.73607 25.0387 6.96143 25.5127 7.33161 25.8591C7.70197 26.2055 8.18966 26.3988 8.69677 26.4H23.3029C23.8101 26.3988 24.2978 26.2055 24.6681 25.8591C25.0383 25.5127 25.2636 25.039 25.2985 24.533L25.3074 24.4H6.69232ZM9.59984 10.8C9.61788 10.8023 9.63574 10.8059 9.65324 10.8107C9.73967 10.4657 9.9386 10.1593 10.2188 9.94C10.4988 9.72071 10.8441 9.60107 11.1998 9.6H12.7595C12.6666 9.14857 12.4211 8.74304 12.0641 8.45161C11.7071 8.16018 11.2607 8.00072 10.7998 8H7.59984C7.06965 8.00054 6.56126 8.21161 6.18627 8.58643C5.81145 8.96143 5.60039 9.46981 5.59984 10V10.8L9.59984 10.8ZM10.3998 11.2V16H15.9998V10.8C16.0013 10.6634 16.0261 10.528 16.0736 10.4H11.2C10.9879 10.4002 10.7845 10.4846 10.6345 10.6345C10.4846 10.7845 10.4002 10.9879 10.4 11.2L10.3998 11.2ZM22.7998 6C21.5068 5.9984 20.2947 6.62894 19.5538 7.68874C19.5829 7.78998 19.5984 7.89463 19.5998 7.99999V9.19999C19.5998 9.42088 19.4207 9.59999 19.1998 9.59999C18.9789 9.59999 18.7998 9.42088 18.7998 9.19999V7.99999C18.7995 7.77927 18.6205 7.60034 18.3998 7.59999H17.1998C16.6332 7.60088 16.0852 7.80213 15.6525 8.16821C15.2198 8.53411 14.9305 9.04127 14.8359 9.59999H17.1998C17.518 9.60034 17.8231 9.72695 18.0481 9.95177C18.2729 10.1768 18.3995 10.4818 18.3998 10.8H26.7148C26.7707 10.537 26.7991 10.2689 26.7996 10C26.7984 8.93947 26.3766 7.9227 25.6268 7.17285C24.877 6.42299 23.8602 6.00123 22.7996 6L22.7998 6Z" fill="#7AA9ED"/>
</svg>
