<svg width="32" height="32" viewBox="0 0 32 32" fill="none" xmlns="http://www.w3.org/2000/svg">
<path d="M28.1291 12.2654H3.77713C3.52106 12.2654 3.3291 12.4573 3.3291 12.7134V14.4414C3.3291 14.6975 3.52107 14.8895 3.77713 14.8895H4.9291L6.72107 23.8814C6.88107 24.6175 7.52107 25.1295 8.25713 25.1295H23.1691C23.9052 25.1295 24.5452 24.6175 24.7052 23.8814L26.5611 14.8575H28.1291C28.3852 14.8575 28.5772 14.6655 28.5772 14.4094V12.6814C28.5772 12.4575 28.3852 12.2655 28.1291 12.2655V12.2654ZM9.28113 23.1774C8.8972 23.4013 8.38507 23.1774 8.0972 22.6654C7.80916 22.1854 7.90523 21.6093 8.28916 21.3854C8.6731 21.1615 9.18523 21.3854 9.4731 21.8974C9.72917 22.4093 9.66524 22.9534 9.28113 23.1774ZM9.28113 20.8413C8.8972 21.0652 8.38507 20.8413 8.0972 20.3293C7.80916 19.8493 7.90523 19.2733 8.28916 19.0493C8.6731 18.8254 9.18523 19.0493 9.4731 19.5613C9.72917 20.0734 9.66524 20.6174 9.28113 20.8413ZM9.28113 18.6013C8.8972 18.8252 8.38507 18.6013 8.0972 18.0893C7.80916 17.6093 7.90523 17.0333 8.28916 16.8093C8.6731 16.5854 9.18523 16.8093 9.4731 17.3213C9.72917 17.8013 9.66524 18.3774 9.28113 18.6013ZM11.5533 23.1773C11.1693 23.4012 10.6572 23.1773 10.3693 22.6653C10.0813 22.1853 10.1774 21.6093 10.5613 21.3853C10.9452 21.1614 11.4574 21.3853 11.7452 21.8973C12.0011 22.4093 11.9372 22.9534 11.5533 23.1773ZM11.5533 20.8412C11.1693 21.0652 10.6572 20.8412 10.3693 20.3293C10.0813 19.8493 10.1774 19.2732 10.5613 19.0493C10.9452 18.8253 11.4574 19.0493 11.7452 19.5612C12.0011 20.0734 11.9372 20.6173 11.5533 20.8412ZM11.5533 18.6012C11.1693 18.8252 10.6572 18.6012 10.3693 18.0893C10.0813 17.6093 10.1774 17.0332 10.5613 16.8093C10.9452 16.5853 11.4574 16.8093 11.7452 17.3212C12.0011 17.8012 11.9372 18.3773 11.5533 18.6012ZM13.8252 23.1772C13.4413 23.4012 12.9292 23.1772 12.6413 22.6653C12.3533 22.1853 12.4493 21.6092 12.8333 21.3853C13.2172 21.1613 13.7293 21.3853 14.0172 21.8972C14.3052 22.4092 14.2092 22.9533 13.8252 23.1772ZM13.8252 20.8412C13.4413 21.0651 12.9292 20.8412 12.6413 20.3292C12.3533 19.8492 12.4493 19.2731 12.8333 19.0492C13.2172 18.8253 13.7293 19.0492 14.0172 19.5612C14.3052 20.0733 14.2092 20.6172 13.8252 20.8412ZM13.8252 18.6012C13.4413 18.8251 12.9292 18.6012 12.6413 18.0892C12.3533 17.6092 12.4493 17.0331 12.8333 16.8092C13.2172 16.5853 13.7293 16.8092 14.0172 17.3212C14.3052 17.8012 14.2092 18.3772 13.8252 18.6012ZM16.0972 23.1772C15.7133 23.4011 15.2011 23.1772 14.9133 22.6652C14.6252 22.1852 14.7213 21.6091 15.1052 21.3852C15.4892 21.1613 16.0013 21.3852 16.2892 21.8972C16.5772 22.4091 16.4811 22.9532 16.0972 23.1772ZM16.0972 20.8411C15.7133 21.065 15.2011 20.8411 14.9133 20.3291C14.6252 19.8491 14.7213 19.2731 15.1052 19.0491C15.4892 18.8252 16.0013 19.0491 16.2892 19.5611C16.5772 20.0732 16.4811 20.6172 16.0972 20.8411ZM16.0972 18.6011C15.7133 18.825 15.2011 18.6011 14.9133 18.0891C14.6252 17.6091 14.7213 17.0331 15.1052 16.8091C15.4892 16.5852 16.0013 16.8091 16.2892 17.3211C16.5772 17.8011 16.4811 18.3772 16.0972 18.6011ZM18.3692 23.1771C17.9852 23.401 17.4731 23.1771 17.1852 22.6651C16.8972 22.1851 16.9933 21.6091 17.3772 21.3851C17.7611 21.1612 18.2733 21.3851 18.5611 21.8971C18.8492 22.4091 18.7533 22.9532 18.3692 23.1771ZM18.3692 20.841C17.9852 21.065 17.4731 20.841 17.1852 20.3291C16.8972 19.8491 16.9933 19.273 17.3772 19.0491C17.7611 18.8251 18.2733 19.0491 18.5611 19.561C18.8492 20.0732 18.7533 20.6171 18.3692 20.841ZM18.3692 18.601C17.9852 18.825 17.4731 18.601 17.1852 18.0891C16.8972 17.6091 16.9933 17.033 17.3772 16.8091C17.7611 16.5852 18.2733 16.8091 18.5611 17.321C18.8492 17.801 18.7533 18.3771 18.3692 18.601ZM20.6733 23.177C20.2893 23.401 19.7772 23.177 19.4893 22.6651C19.2013 22.1851 19.2974 21.609 19.6813 21.3851C20.0652 21.1611 20.5774 21.3851 20.8652 21.897C21.1211 22.409 21.0572 22.9531 20.6733 23.177ZM20.6733 20.841C20.2893 21.0649 19.7772 20.841 19.4893 20.329C19.2013 19.849 19.2974 19.2729 19.6813 19.049C20.0652 18.8251 20.5774 19.049 20.8652 19.561C21.1211 20.0731 21.0572 20.617 20.6733 20.841ZM20.6733 18.601C20.2893 18.8249 19.7772 18.601 19.4893 18.089C19.2013 17.609 19.2974 17.033 19.6813 16.809C20.0652 16.5851 20.5774 16.809 20.8652 17.321C21.1211 17.801 21.0572 18.377 20.6733 18.601ZM22.9452 23.177C22.5613 23.4009 22.0492 23.177 21.7613 22.665C21.4733 22.185 21.5693 21.6089 21.9533 21.385C22.3372 21.1611 22.8493 21.385 23.1372 21.897C23.3933 22.4089 23.3292 22.953 22.9452 23.177ZM22.9452 20.8409C22.5613 21.0648 22.0492 20.8409 21.7613 20.3289C21.4733 19.8489 21.5693 19.2729 21.9533 19.0489C22.3372 18.825 22.8493 19.0489 23.1372 19.5609C23.3933 20.073 23.3292 20.617 22.9452 20.8409ZM22.9452 18.6009C22.5613 18.8248 22.0492 18.6009 21.7613 18.089C21.4733 17.609 21.5693 17.0329 21.9533 16.809C22.3372 16.585 22.8493 16.809 23.1372 17.3209C23.3933 17.8009 23.3292 18.377 22.9452 18.6009Z" fill="#7AA9ED"/>
<path d="M3.5215 17.3215V18.3776C3.5215 18.3776 3.23347 17.9936 1.79347 18.0256C0.353469 18.0895 1.31347 12.6176 1.31347 12.6176C1.31347 12.6176 0.961501 10.6976 4.0015 10.3456C4.0015 10.3456 4.70544 9.60956 5.9215 9.19365C6.27347 9.06562 6.04954 8.20168 9.4415 8.77759C9.4415 8.77759 9.4415 6.34561 12.8015 6.79365C12.8015 6.79365 17.8255 8.04168 18.5935 6.15364C18.5935 6.15364 19.0735 5.32167 21.9535 7.52971C21.9535 7.52971 23.8735 8.39365 24.4496 8.32971C24.9935 8.26578 25.3456 9.03365 25.3456 9.03365C25.3456 9.03365 29.9536 7.88168 30.9136 11.6897C31.8736 15.4977 31.8736 19.4017 31.8736 19.4017L29.9536 20.4578C29.9536 20.4578 29.2497 20.5217 29.6017 19.5939C29.9536 18.6658 29.1856 14.3779 29.1856 14.3779C29.1856 14.3779 30.5617 11.7539 26.0817 11.6578L4.80166 11.7218C4.83363 11.7537 1.72953 10.8257 3.52147 17.3215L3.5215 17.3215Z" fill="#7AA9ED"/>
</svg>
