<svg width="21" height="20" viewBox="0 0 21 20" fill="none" xmlns="http://www.w3.org/2000/svg">
<path d="M16.75 3.125H4.25C3.90482 3.125 3.625 3.40482 3.625 3.75V16.25C3.625 16.5952 3.90482 16.875 4.25 16.875H16.75C17.0952 16.875 17.375 16.5952 17.375 16.25V3.75C17.375 3.40482 17.0952 3.125 16.75 3.125Z" stroke="#1B1F3B" stroke-opacity="0.4" stroke-linecap="round" stroke-linejoin="round"/>
<path d="M14.25 1.875V4.375" stroke="#1B1F3B" stroke-opacity="0.4" stroke-linecap="round" stroke-linejoin="round"/>
<path d="M6.75 1.875V4.375" stroke="#1B1F3B" stroke-opacity="0.4" stroke-linecap="round" stroke-linejoin="round"/>
<path d="M3.625 6.875H17.375" stroke="#1B1F3B" stroke-opacity="0.4" stroke-linecap="round" stroke-linejoin="round"/>
<path d="M7.6875 9.99976H9.875L8.625 11.5623C8.83053 11.5623 9.03289 11.6129 9.21416 11.7098C9.39543 11.8067 9.55002 11.9468 9.66423 12.1176C9.77845 12.2885 9.84876 12.4849 9.86895 12.6895C9.88915 12.894 9.85859 13.1003 9.78 13.2903C9.7014 13.4802 9.57719 13.6478 9.41836 13.7782C9.25953 13.9087 9.07099 13.9979 8.86942 14.0381C8.66786 14.0783 8.4595 14.0682 8.26278 14.0086C8.06607 13.9491 7.88708 13.8419 7.74166 13.6967" stroke="#1B1F3B" stroke-opacity="0.4" stroke-linecap="round" stroke-linejoin="round"/>
<path d="M11.75 10.9373L13 9.99976V14.0623" stroke="#1B1F3B" stroke-opacity="0.4" stroke-linecap="round" stroke-linejoin="round"/>
</svg>
