<svg width="32" height="32" viewBox="0 0 32 32" fill="none" xmlns="http://www.w3.org/2000/svg">
<path d="M12.2653 12.6264H17.3946C17.8539 12.6264 18.2258 12.9966 18.2258 13.4563V13.9028C18.2258 14.3621 17.8541 14.732 17.3946 14.732L12.2653 14.7322C11.8036 14.7322 11.4341 14.3623 11.4341 13.903V13.4565C11.4343 12.9968 11.804 12.6264 12.2653 12.6264V12.6264ZM6.00037 10.4034C5.44614 10.4034 5 10.8827 5 11.479V25.3491C5 25.9455 5.44615 26.4249 6.00037 26.4249H18.232C17.2365 25.3297 16.622 23.8773 16.622 22.2805C16.622 18.8756 19.3826 16.1147 22.7894 16.1147C23.3485 16.1147 23.8865 16.196 24.4017 16.3347L24.4015 11.4789C24.4015 10.8829 23.9546 10.4033 23.4008 10.4033L6.00037 10.4034Z" fill="#3082F7"/>
<path d="M15.6703 5.0004L16.2833 9.16465H23.3765C23.7743 9.16465 24.0215 8.72145 23.8246 8.3645L22.0157 5.7994C21.7418 5.30531 21.2318 5.0008 20.681 5.0008H15.6704L15.6703 5.0004ZM8.7209 5.0004C8.16944 5.0004 7.65983 5.30491 7.38558 5.79899L5.57661 8.3641C5.37976 8.72106 5.62887 9.16425 6.02531 9.16425H13.1186L13.7309 5L8.72094 5.0002L8.7209 5.0004Z" fill="#3082F7"/>
<path d="M24.8793 20.0096C24.9853 20.0128 25.0845 20.0499 25.1612 20.1269L25.5313 20.4974C25.7059 20.6711 25.6828 20.9731 25.4822 21.1734L22.2277 24.4279C22.0713 24.5843 21.7712 24.5978 21.6018 24.4279L20.0954 22.9217C19.8952 22.7217 19.8723 22.4197 20.0469 22.2457L20.4168 21.8752C20.5911 21.7027 20.8924 21.7237 21.0934 21.9239L21.9148 22.7453L24.4864 20.1752C24.5985 20.0635 24.7441 20.0065 24.8793 20.0096L24.8793 20.0096ZM22.7894 17.5601C20.1816 17.5601 18.0693 19.6723 18.0693 22.2803C18.0693 24.8864 20.1816 26.9999 22.7894 26.9999C25.3955 26.9999 27.5095 24.8865 27.5095 22.2803C27.5097 19.6723 25.3955 17.5601 22.7894 17.5601V17.5601Z" fill="#3082F7"/>
</svg>
