<svg width="32" height="32" viewBox="0 0 32 32" fill="none" xmlns="http://www.w3.org/2000/svg">
<path d="M5.50357 10.7544C5.50377 10.6139 5.58174 10.4812 5.71348 10.4156L5.71893 10.413L13.7272 6.5757L13.748 6.56571L13.7678 6.55385C14.0188 6.40366 14.3439 6.58664 14.3439 6.88159V8.03428V8.53428H14.8439H20.801C21.0115 8.53428 21.182 8.70493 21.182 8.91533V12.5873C21.182 12.739 21.1296 12.8172 21.077 12.8633C21.0148 12.9179 20.9165 12.9565 20.8009 12.9565C20.6854 12.9565 20.5871 12.9179 20.5249 12.8633C20.4723 12.8172 20.4199 12.739 20.4199 12.5873V9.79638V9.29638H19.9199H14.8438H14.3438V9.79638V23.1102V23.6102H14.8438H19.9199H20.4199V23.1102V20.3193C20.4199 20.1677 20.4723 20.0895 20.5248 20.0435C20.5871 19.9889 20.6854 19.9502 20.8009 19.9502C20.9165 19.9502 21.0148 19.9889 21.0771 20.0435C21.1296 20.0895 21.182 20.1677 21.182 20.3193V23.9913C21.182 24.2019 21.0116 24.3723 20.801 24.3723H14.8439H14.3454L14.3439 24.8708L14.3405 26.0237L14.3405 26.0256C14.3408 26.3004 14.0501 26.4853 13.8001 26.3657L5.79215 22.5286L5.77122 22.5185L5.74944 22.5105C5.60292 22.4563 5.50007 22.3154 5.5 22.153C5.5 22.153 5.5 22.153 5.5 22.1529C5.5 22.1529 5.5 22.1529 5.5 22.1529L5.50357 10.7546C5.50357 10.7545 5.50357 10.7545 5.50357 10.7544ZM17.0672 16.0148C17.1487 15.9219 17.2778 15.8427 17.4916 15.837H17.5161H24.0231H25.2304L24.3766 14.9834L23.1136 13.7208C23.1136 13.7208 23.1136 13.7208 23.1136 13.7208C22.9522 13.5593 22.9139 13.4056 22.9223 13.2777C22.9315 13.137 23.0014 12.9853 23.1245 12.8622C23.2475 12.7392 23.3992 12.6693 23.54 12.66C23.6678 12.6516 23.8216 12.6899 23.9831 12.8513C23.9831 12.8513 23.9831 12.8514 23.9832 12.8514L27.1425 16.011L27.4961 15.6574L27.1425 16.011C27.3984 16.2668 27.3835 16.6519 27.1425 16.8928L27.4961 17.2463L27.1425 16.8928L23.9832 20.0523C23.8216 20.2138 23.6678 20.2521 23.5399 20.2437C23.3991 20.2344 23.2474 20.1645 23.1244 20.0415C23.0014 19.9184 22.9315 19.7667 22.9223 19.626C22.9139 19.4981 22.9522 19.3444 23.1136 19.1829L24.3766 17.9203L25.2304 17.0667H24.0231H17.5161C17.2876 17.0667 17.1518 16.9851 17.0672 16.8886C16.9742 16.7825 16.9163 16.6258 16.9163 16.4517C16.9163 16.2777 16.9742 16.1209 17.0672 16.0148Z" fill="white" stroke="white"/>
</svg>
