<svg width="32" height="32" viewBox="0 0 32 32" fill="none" xmlns="http://www.w3.org/2000/svg">
<path d="M22.5893 17.9469C22.4769 17.7689 22.3551 17.6002 22.224 17.4315C22.0367 17.1691 21.8118 16.9162 21.5118 16.6164C21.24 16.3446 20.9589 16.1011 20.6591 15.8855C19.2911 14.8362 17.6234 14.2833 15.8805 14.2833C14.1189 14.2833 12.4511 14.8549 11.0925 15.8855C10.5302 16.3071 10.0243 16.8131 9.58377 17.3846C9.44332 17.5626 9.31199 17.75 9.18088 17.9469C8.36578 19.2117 7.91602 20.7204 7.91602 22.2478V25.9956C7.91602 26.7734 8.54378 27.4011 9.32157 27.4011H22.4396C23.2173 27.4011 23.8451 26.7734 23.8451 25.9956V22.2476C23.8449 20.7015 23.3951 19.1929 22.5894 17.9469L22.5893 17.9469Z" fill="white"/>
<path d="M20.097 8.66089C20.097 10.9847 18.2043 12.8773 15.8805 12.8773C13.5568 12.8773 11.6641 10.9846 11.6641 8.66089C11.6641 6.32776 13.5568 4.44446 15.8805 4.44446C18.2043 4.44446 20.097 6.32776 20.097 8.66089Z" fill="white"/>
<path d="M28.9985 8.66089C28.9985 10.9847 27.1058 12.8773 24.7821 12.8773C22.4583 12.8773 20.5654 10.9846 20.5654 8.66089C20.5654 6.32776 22.4581 4.44446 24.7819 4.44446C27.1056 4.44446 28.9985 6.32776 28.9985 8.66089Z" fill="white"/>
<path d="M30.8731 20.3732V24.1212C30.8731 24.899 30.2453 25.5267 29.4676 25.5267H25.2511V22.2472C25.2511 20.4577 24.7264 18.6585 23.78 17.1968C23.6396 16.9812 23.4896 16.7752 23.3678 16.6159C23.1429 16.2972 22.8805 15.9974 22.5058 15.6228C22.2902 15.4072 22.0747 15.2106 21.8594 15.0326C22.74 14.5452 23.7427 14.283 24.7827 14.283C26.4036 14.283 27.931 14.9108 29.0837 16.0539C30.2452 17.225 30.8732 18.7524 30.8732 20.3732L30.8731 20.3732Z" fill="white"/>
<path d="M9.91194 15.0325C9.38727 15.4636 8.89995 15.9694 8.4784 16.5129C8.31907 16.7191 8.15973 16.9344 8.00063 17.1875C7.02595 18.6962 6.51065 20.4484 6.51065 22.2473V25.5268H2.29422C1.51644 25.5268 0.888672 24.899 0.888672 24.1212V20.3732C0.888672 17.0188 3.62468 14.2827 6.97919 14.2827C8.0194 14.2827 9.02184 14.5452 9.91209 15.0323L9.91194 15.0325Z" fill="white"/>
<path d="M11.1958 8.66089C11.1958 10.9847 9.30309 12.8773 6.97935 12.8773C4.65561 12.8773 2.7627 10.9846 2.7627 8.66089C2.7627 6.32776 4.65539 4.44446 6.97912 4.44446C9.30286 4.44446 11.1958 6.32776 11.1958 8.66089Z" fill="white"/>
</svg>
