<svg width="32" height="32" viewBox="0 0 32 32" fill="none" xmlns="http://www.w3.org/2000/svg">
<path d="M16.0282 19.6656C18.0092 19.6656 19.6149 18.0599 19.6149 16.0789C19.6149 14.0978 18.0092 12.4921 16.0282 12.4921C14.0472 12.4921 12.4414 14.0978 12.4414 16.0789C12.4414 18.0599 14.0472 19.6656 16.0282 19.6656Z" fill="white" stroke="white" stroke-width="1.5"/>
<path d="M23.3109 16.6293C23.3109 16.4175 23.4801 16.2482 23.6919 16.2059L24.8351 15.9941C25.0893 15.9517 25.2585 15.6976 25.1739 15.4437L24.7082 13.1573C24.6659 12.9032 24.4118 12.7339 24.1579 12.8185L23.0146 13.0303C22.8028 13.0727 22.5913 12.9457 22.5066 12.7762C22.2525 12.2682 21.9137 11.7599 21.5327 11.3366C21.4057 11.1673 21.3634 10.9555 21.4903 10.7862L22.1255 9.81228C22.2525 9.60048 22.2102 9.30425 21.9986 9.17708L20.0509 7.86461C19.8391 7.73766 19.5429 7.77997 19.4157 7.99156L18.7805 8.96553C18.6536 9.13481 18.4418 9.21965 18.2302 9.13481C17.6799 8.96553 17.087 8.83837 16.5366 8.79605C16.3248 8.79605 16.1556 8.62677 16.1133 8.41497L15.9015 7.27175C15.8591 7.01763 15.605 6.84836 15.3511 6.93299L13.0647 7.3987C12.8106 7.44102 12.6413 7.69514 12.7259 7.94903L12.9377 9.09225C12.98 9.30405 12.8531 9.51564 12.6836 9.60028C12.1756 9.8544 11.6673 10.1932 11.244 10.5742C11.0747 10.7012 10.8629 10.7435 10.6936 10.6166L9.71966 9.98137C9.50786 9.85442 9.21163 9.89673 9.08446 10.1083L7.77199 12.056C7.64504 12.2678 7.68735 12.564 7.89894 12.6912L8.87291 13.3264C9.04219 13.4533 9.12704 13.6651 9.04219 13.8767C8.87291 14.427 8.74575 15.0199 8.70343 15.5703C8.70343 15.7821 8.53416 15.9513 8.32235 15.9936L7.17913 16.2054C6.92501 16.2478 6.75574 16.5019 6.84037 16.7558L7.30608 19.0422C7.3484 19.2963 7.60252 19.4656 7.85641 19.381L8.99963 19.1692C9.21143 19.1269 9.42302 19.2538 9.50766 19.4233C9.76178 19.9313 10.1006 20.4396 10.4816 20.8629C10.6086 21.0322 10.6509 21.244 10.5239 21.4133L9.88875 22.3872C9.7618 22.599 9.80411 22.8953 10.0157 23.0224L11.9634 24.3349C12.1752 24.4619 12.4714 24.4195 12.5986 24.2079L13.2338 23.234C13.3607 23.0647 13.5725 22.9799 13.7841 23.0647C14.3344 23.234 14.9273 23.3611 15.4776 23.4035C15.6894 23.4035 15.8587 23.5727 15.901 23.7845L16.1128 24.9278C16.1551 25.1819 16.4093 25.3511 16.6632 25.2665L18.9496 24.8008C19.2037 24.7585 19.373 24.5044 19.2884 24.2505L19.0766 23.1073C19.0342 22.8955 19.1612 22.6839 19.3307 22.5992C19.8387 22.3451 20.3469 22.0063 20.7703 21.6253C20.9396 21.4983 21.1514 21.456 21.3206 21.5829L22.2946 22.2181C22.5064 22.3451 22.8026 22.3028 22.9298 22.0912L24.2423 20.1435C24.3692 19.9317 24.3269 19.6355 24.1153 19.5083L23.1414 18.8731C22.9721 18.7462 22.8872 18.5344 22.9721 18.3228C23.1416 17.815 23.2685 17.2221 23.3109 16.6293ZM17.0019 20.9059C14.3344 21.4563 11.7092 19.7204 11.2014 17.0105C10.6511 14.343 12.3869 11.7178 15.0968 11.2101C17.7643 10.6597 20.3895 12.3956 20.8973 15.1054C21.4053 17.7727 19.6694 20.398 17.0019 20.9059Z" fill="white"/>
<path d="M6.67037 6.72135C10.8622 2.52954 17.1287 1.76739 22.1251 4.35026C22.252 4.43489 22.2943 4.64669 22.1674 4.73133L21.744 5.15472C21.617 5.28167 21.7017 5.53579 21.9133 5.57811L24.8772 5.83223C25.0465 5.83223 25.1736 5.70528 25.1313 5.57811L24.8772 2.61417C24.8772 2.40237 24.6231 2.31773 24.4538 2.4449L23.9035 2.99522C23.8189 3.07986 23.6917 3.07986 23.6071 3.03754C17.8485 -0.307473 10.3119 0.454675 5.39991 5.40864C0.572911 10.2782 -0.273725 17.5611 2.81705 23.2772C3.11349 23.8275 3.83332 23.9124 4.25669 23.489C4.55313 23.1926 4.59545 22.7691 4.42597 22.4304C1.6738 17.3916 2.43595 10.9557 6.67011 6.72147L6.67037 6.72135Z" fill="white"/>
<path d="M29.2382 8.88096C28.9418 8.33063 28.2219 8.24576 27.7986 8.66916C27.5021 8.9656 27.4598 9.38901 27.6293 9.72773C30.3815 14.724 29.6193 21.1599 25.3852 25.3942C21.1085 29.7132 14.5877 30.4331 9.54935 27.596C9.4224 27.5537 9.4224 27.3842 9.50703 27.2996L10.0999 26.7067C10.2269 26.5797 10.1422 26.4102 9.97298 26.4102L6.83973 26.1138C6.71278 26.1138 6.62793 26.1984 6.62793 26.3256L6.92437 29.4588C6.92437 29.6281 7.13617 29.6706 7.22081 29.5858L7.856 28.9506C7.89832 28.9083 8.02527 28.866 8.0678 28.9083C13.8683 32.4649 21.5747 31.7451 26.6136 26.7488C31.4825 21.8799 32.3292 14.5974 29.2384 8.88133L29.2382 8.88096Z" fill="white"/>
</svg>
