<svg width="32" height="32" viewBox="0 0 32 32" fill="none" xmlns="http://www.w3.org/2000/svg">
<path d="M10.6399 20.1751V19.6904H20.6725V20.1751V27.1307H10.6399V20.1751ZM12.745 25.6168H18.5704C19.1186 25.6168 19.5627 25.1723 19.5627 24.6245C19.5627 24.0765 19.1188 23.6321 18.5704 23.6321H12.745C12.1966 23.6321 11.7527 24.0765 11.7527 24.6245C11.7527 25.1725 12.1966 25.6168 12.745 25.6168ZM12.745 23.1897H18.5704C19.1186 23.1897 19.5627 22.7451 19.5627 22.1973C19.5627 21.6493 19.1188 21.205 18.5704 21.205H12.745C12.1966 21.205 11.7527 21.6493 11.7527 22.1973C11.7527 22.7454 12.1966 23.1897 12.745 23.1897Z" fill="white" stroke="white"/>
<path d="M25.3664 10.966H5.94967C4.87145 10.966 4.00018 11.8374 4.00018 12.9155L4 20.9845C4 22.0627 4.87141 22.934 5.94949 22.934H9.15465V21.1592C8.34199 21.157 7.6816 20.4958 7.6816 19.6826C7.6816 18.8681 8.34409 18.2056 9.15858 18.2056L22.1561 18.2058C22.9705 18.2058 23.6331 18.8682 23.6331 19.6827C23.6331 20.4972 22.9706 21.1597 22.1561 21.1597V22.9342H25.3661C26.4393 22.9342 27.3156 22.0628 27.3156 20.9847L27.3158 12.9157C27.3158 11.8374 26.4395 10.966 25.3663 10.966L25.3664 10.966Z" fill="white"/>
<path d="M23.8352 8.76073C23.8352 7.95822 23.1755 7.29861 22.373 7.29861H22.1562V9.98181H23.8352L23.8352 8.76073Z" fill="white"/>
<path d="M9.15457 7.29839H8.94261C8.13529 7.29839 7.48047 7.95804 7.48047 8.76052V9.98159H9.15459L9.15457 7.29839Z" fill="white"/>
<path d="M21.1723 4.49233C21.1723 4.21662 20.9557 3.99998 20.68 3.99998H10.632C10.3613 3.99998 10.1396 4.21659 10.1396 4.49233V9.9817H21.1723V4.49233ZM18.5702 8.69502H12.7448C12.4727 8.69502 12.2525 8.47467 12.2525 8.20268C12.2525 7.93072 12.4726 7.71034 12.7448 7.71034H18.5702C18.8423 7.71034 19.0625 7.9307 19.0625 8.20268C19.0625 8.47465 18.8421 8.69502 18.5702 8.69502ZM18.5702 6.26787H12.7448C12.4727 6.26787 12.2525 6.04751 12.2525 5.77553C12.2525 5.50356 12.4726 5.28318 12.7448 5.28318H18.5702C18.8423 5.28318 19.0625 5.50354 19.0625 5.77553C19.0625 6.04749 18.8421 6.26787 18.5702 6.26787Z" fill="white"/>
</svg>
