<svg width="23" height="28" viewBox="0 0 23 28" fill="none" xmlns="http://www.w3.org/2000/svg">
<path d="M8.17267 24.5333V24.5333C8.5646 24.5332 8.94102 24.6885 9.21923 24.9654L9.21924 24.9655C9.49872 25.2437 9.65592 25.622 9.65592 26.0166C9.65592 26.41 9.49971 26.7872 9.22154 27.0656C8.94339 27.3437 8.56603 27.5 8.17267 27.5C7.77912 27.5 7.40181 27.3437 7.12373 27.0657L8.17267 24.5333ZM8.17267 24.5333C7.77908 24.5333 7.40173 24.6896 7.12359 24.9677C6.84549 25.2458 6.68922 25.6232 6.68922 26.0166C6.68922 26.41 6.84542 26.7872 7.12361 27.0656L8.17267 24.5333ZM14.3618 24.5333C13.9682 24.5333 13.5908 24.6896 13.3127 24.9677C13.0346 25.2458 12.8783 25.6232 12.8783 26.0166C12.8783 26.41 13.0345 26.7872 13.3127 27.0656C13.3128 27.0656 13.3128 27.0657 13.3128 27.0657M14.3618 24.5333L13.3128 27.0657M14.3618 24.5333V24.5333M14.3618 24.5333V24.5333M13.3128 27.0657C13.5909 27.3437 13.9682 27.5 14.3618 27.5C14.7551 27.5 15.1324 27.3438 15.4105 27.0657M13.3128 27.0657L15.4105 27.0657M15.4105 27.0657C15.4106 27.0657 15.4106 27.0656 15.4107 27.0656M15.4105 27.0657L15.4107 27.0656M15.4105 27.0657C15.4106 27.0657 15.4106 27.0656 15.4107 27.0656M15.4105 27.0657L14.3618 24.5333M15.4107 27.0656C15.6888 26.7872 15.845 26.41 15.845 26.0166C15.845 25.622 15.6878 25.2437 15.4084 24.9655L15.4083 24.9654C15.1302 24.6885 14.7539 24.5332 14.3618 24.5333M19.502 27.0657C19.5019 27.0657 19.5019 27.0656 19.5018 27.0656C19.2237 26.7872 19.0674 26.41 19.0674 26.0166C19.0674 25.6232 19.2237 25.2458 19.5018 24.9677C19.78 24.6896 20.1573 24.5333 20.5507 24.5333L19.1483 27.4192L19.502 27.0657ZM19.502 27.0657C19.7801 27.3438 20.1574 27.5 20.5507 27.5C20.9443 27.5 21.3216 27.3437 21.5998 27.0656M19.502 27.0657L21.5998 27.0656M21.5998 27.0656C21.5997 27.0656 21.5997 27.0657 21.5997 27.0657L21.9518 27.4177L21.5998 27.0656ZM21.5998 27.0656C21.8779 26.7872 22.0341 26.41 22.0341 26.0166C22.0341 25.622 21.8769 25.2437 21.5975 24.9655L21.5975 24.9654C21.3193 24.6885 20.943 24.5332 20.5509 24.5333V24.0333L21.5998 27.0656ZM13.7415 13.9479L13.7414 13.9479C13.7397 14.6043 13.4783 15.2333 13.0141 15.6975C12.5484 16.1634 11.9167 16.425 11.2582 16.425C10.5995 16.425 9.96835 16.1634 9.50261 15.6981L9.5025 15.698C9.03684 15.2326 8.77523 14.6014 8.77492 13.943C8.77492 13.9429 8.77492 13.9429 8.77492 13.9428L9.27492 13.9426C9.2745 13.4167 9.48306 12.9123 9.85477 12.5402L13.7415 13.9479ZM13.7415 13.9479L13.7415 13.9381C13.7407 13.2796 13.4783 12.6485 13.0121 12.1836C12.546 11.7185 11.9143 11.4576 11.2557 11.4583M13.7415 13.9479L11.2557 11.4583M11.2557 11.4583C10.5974 11.4588 9.96618 11.721 9.50102 12.1868L11.2557 11.4583ZM3.03231 27.0656C3.31049 26.7872 3.4667 26.41 3.4667 26.0166C3.4667 25.6232 3.31043 25.2458 3.03233 24.9677C2.75417 24.6896 2.37681 24.5333 1.98345 24.5333C1.58985 24.5333 1.2125 24.6896 0.934409 24.9677C0.934403 24.9677 0.934397 24.9677 0.934392 24.9677M3.03231 27.0656L0.934392 24.9677M3.03231 27.0656C3.03227 27.0656 3.03223 27.0657 3.03219 27.0657M3.03231 27.0656L3.03219 27.0657M0.934392 24.9677C0.656276 25.2458 0.5 25.6232 0.5 26.0166C0.5 26.41 0.656205 26.7872 0.934374 27.0656C0.934412 27.0656 0.93445 27.0657 0.934488 27.0657M0.934392 24.9677L1.98345 28C1.4573 28 0.952769 27.7911 0.580839 27.4192L0.934488 27.0657M0.934488 27.0657C1.21261 27.3437 1.58991 27.5 1.98345 27.5C2.37677 27.5 2.75409 27.3438 3.03219 27.0657M0.934488 27.0657L3.03219 27.0657M17.3734 19.5637H17.354H5.13384C4.70416 19.5631 4.2922 19.3921 3.98811 19.0882C3.68462 18.7846 3.51375 18.3733 3.51274 17.9441C3.51273 17.9436 3.51273 17.943 3.51273 17.9425L3.55362 10.2401L3.18163 10.2381L3.55363 10.2376V10.2374L3.34722 10.2369L3.55363 10.2364C3.55269 9.87147 3.67453 9.51688 3.89952 9.22965L3.89962 9.22952C4.12443 8.94233 4.43953 8.73898 4.79391 8.65248L5.17534 8.55937V8.16674L5.17534 6.55683L5.17534 6.55557C5.17121 4.92076 5.83432 3.35531 7.01142 2.221L7.01142 2.22101L7.01325 2.21923C8.1489 1.11366 9.67229 0.496598 11.2571 0.500015H11.2582H11.3997C14.6169 0.594951 17.2742 3.36418 17.2742 6.68808V8.14642V8.35353L17.4206 8.49998L17.4208 8.50018L17.53 8.60932L17.6816 8.63795C18.0532 8.70811 18.3886 8.90563 18.6302 9.19684C18.8713 9.48749 19.0035 9.85331 19.0039 10.231C19.0039 10.2314 19.0039 10.2318 19.0039 10.2322L18.963 17.9351L18.963 17.9385C18.9636 18.3674 18.7944 18.7792 18.4924 19.0837L18.4923 19.0838C18.1956 19.3831 17.7942 19.555 17.3734 19.5637ZM14.5873 8.11406L14.5872 6.66458L14.5874 6.65425C14.5995 5.81648 14.3032 5.00351 13.7553 4.36989L13.7553 4.36983C13.2072 3.73611 12.4455 3.32601 11.615 3.21705L11.615 3.21702L11.6093 3.21634C11.4772 3.20055 11.3446 3.1927 11.2125 3.19246L11.2119 3.19246C10.3887 3.19198 9.59451 3.49745 8.98415 4.05001C8.27284 4.6867 7.86606 5.5957 7.8649 6.55015V6.55076V8.11411V8.61411H8.3649H14.0873H14.5874L14.5873 8.11406Z" fill="white" stroke="white"/>
</svg>
