<svg width="32" height="32" viewBox="0 0 32 32" fill="none" xmlns="http://www.w3.org/2000/svg">
<path d="M23.389 19.9565H23.3888L23.3892 19.9704C23.3935 20.1268 23.398 20.2823 23.4025 20.4366C23.4446 21.8783 23.4837 23.2211 23.3481 24.3741C23.2026 25.6108 22.867 26.5125 22.2261 27.0604L22.1505 27.1222C21.9775 27.2638 21.683 27.4111 21.2546 27.5462C20.8336 27.6789 20.3167 27.7896 19.7272 27.8767C18.5485 28.0509 17.1184 28.1253 15.6644 28.1088C14.2115 28.0924 12.7488 27.9854 11.507 27.8018C10.2814 27.6205 9.32975 27.3726 8.80462 27.0963C8.01324 26.386 7.70143 25.2646 7.61626 23.9234C7.57354 23.2506 7.58924 22.5499 7.61688 21.8563C7.62373 21.6845 7.63137 21.5121 7.63898 21.3405C7.66162 20.8298 7.68392 20.3266 7.68392 19.8677C7.68392 19.5061 7.67686 19.1777 7.67027 18.8836L7.6695 18.8496C7.66317 18.5674 7.65765 18.3219 7.65894 18.1019C7.66172 17.6287 7.69825 17.3555 7.77491 17.1813C7.83185 17.0519 7.92133 16.9502 8.16682 16.8683C8.44445 16.7758 8.88187 16.7246 9.58309 16.7246H15.6256C16.7618 16.7246 17.7431 16.7135 18.5892 16.7027C18.6886 16.7014 18.7861 16.7002 18.8816 16.6989C19.6013 16.6896 20.2139 16.6817 20.7391 16.6829C21.3352 16.6843 21.8044 16.6975 22.1772 16.7318C22.5535 16.7665 22.8014 16.8203 22.9684 16.8879C23.123 16.9505 23.1959 17.0195 23.2433 17.0932C23.298 17.1785 23.3468 17.3153 23.3759 17.5583C23.4049 17.8019 23.4098 18.1096 23.4057 18.5154C23.4043 18.6488 23.4019 18.7932 23.3994 18.9475C23.3945 19.2489 23.389 19.588 23.389 19.9565Z" fill="white" stroke="white"/>
<path fill-rule="evenodd" clip-rule="evenodd" d="M6.11791 18.979V17.735H2.65248C2.65248 16.8465 14.9146 11.5149 15.5365 11.5149C15.6254 11.5149 28.4205 16.7575 28.4205 17.6463L24.9551 17.7352V18.9792H27.8874C36.9507 18.8902 17.2247 10.6266 16.1584 10.3603C16.1584 8.05002 16.3361 9.47173 17.8467 7.9611C20.157 5.56194 16.9582 1.38541 13.7594 3.51816C12.2488 4.49567 11.8046 7.51673 13.6705 6.98359C14.1149 6.00609 13.4038 4.93982 14.8257 4.31797C17.2248 3.2517 18.3799 7.07257 15.9809 7.69442C14.6479 8.04984 14.9146 7.96109 14.9146 10.36C12.3377 11.0709 -3.03445 17.4689 2.20813 18.8902C3.09666 19.0679 4.4296 18.9792 6.11772 18.9792L6.11791 18.979Z" fill="white"/>
</svg>
