<svg width="28" height="28" viewBox="0 0 28 28" fill="none" xmlns="http://www.w3.org/2000/svg">
<path d="M6.14762 11.3749C6.14617 10.3372 6.35013 9.30943 6.74774 8.35088C7.14535 7.39233 7.72875 6.52196 8.46431 5.78993C9.19987 5.05791 10.073 4.4787 11.0335 4.08571C11.9939 3.69272 13.0227 3.49371 14.0604 3.50015C18.3905 3.53234 21.8541 7.13155 21.8541 11.4738V12.2499C21.8541 16.1673 22.6736 18.4404 23.3955 19.6829C23.4733 19.8156 23.5146 19.9665 23.5155 20.1204C23.5163 20.2742 23.4765 20.4256 23.4002 20.5591C23.3238 20.6927 23.2136 20.8038 23.0807 20.8812C22.9477 20.9586 22.7967 20.9995 22.6428 20.9999H5.358C5.20413 20.9995 5.05309 20.9586 4.92011 20.8812C4.78713 20.8038 4.67692 20.6926 4.60059 20.559C4.52426 20.4254 4.48451 20.2741 4.48536 20.1202C4.48621 19.9663 4.52763 19.8154 4.60543 19.6827C5.32766 18.4402 6.14762 16.1671 6.14762 12.2499L6.14762 11.3749Z" stroke="#3082F7" stroke-width="1.5" stroke-linecap="round" stroke-linejoin="round"/>
<path d="M10.5 21V21.875C10.5 22.8033 10.8687 23.6935 11.5251 24.3499C12.1815 25.0063 13.0717 25.375 14 25.375C14.9283 25.375 15.8185 25.0063 16.4749 24.3499C17.1313 23.6935 17.5 22.8033 17.5 21.875V21" stroke="#3082F7" stroke-width="1.5" stroke-linecap="round" stroke-linejoin="round"/>
</svg>
