<svg width="114" height="236" viewBox="0 0 114 236" fill="none" xmlns="http://www.w3.org/2000/svg">
<g clip-path="url(#clip0_0_2065)">
<path d="M34.0419 99.7432C34.1544 99.9713 19.2031 123.92 15.6514 167.498L11.0498 221.189" stroke="#D68552" stroke-width="12" stroke-miterlimit="10"/>
<path d="M22.8992 222.789C22.8992 222.789 24.2653 212.77 17.103 212.051C9.94071 211.331 16.7521 217.232 16.7521 217.232C16.7521 217.232 19.1387 225.554 21.2011 225.823C22.0609 225.935 22.8992 222.789 22.8992 222.789Z" fill="#FAC52F"/>
<path d="M3.28997 195.149L2.7998 214.298L17.0762 216.083L21.9108 197.476L3.28997 195.149Z" fill="#FAC52F"/>
<path d="M17.0681 216.083C17.0681 216.083 18.5413 223.994 17.4913 231.288C16.4414 238.582 5.13279 234.112 2.92036 231.68C0.707924 229.248 -2.30001 221.001 2.79179 214.298C7.8836 207.594 17.0681 216.083 17.0681 216.083Z" fill="#FAC52F"/>
<path d="M11.0498 130.578C11.9551 94.6665 39.6802 83.6411 39.6802 83.6411L45.305 109.668C32.8232 113.759 30.3376 130.578 30.3376 130.578H11.0498Z" fill="#F5FAFA"/>
<path d="M92.2295 99.743C90.4912 128.129 81.7218 197.688 81.7218 197.688C61.2849 197.688 24.8789 146.849 24.8789 118.226C24.8789 89.6035 39.9213 85.4962 47.0273 83.072H84.0574C89.8055 85.1042 92.2295 91.3431 92.2295 99.743Z" fill="#F5FAFA"/>
<g style="mix-blend-mode:multiply">
<path d="M43.2133 83.0747C33.4636 88.2773 28.1709 100.65 28.1709 112.167H35.5046C36.4448 95.7914 37.6474 87.319 48.9935 83.0747H43.2133Z" fill="#D8DADE"/>
</g>
<g style="mix-blend-mode:multiply">
<path d="M78.2768 83.0747C68.5271 88.2773 63.2344 100.65 63.2344 112.167H70.5681C71.5082 95.7914 72.7109 87.319 84.057 83.0747H78.2768Z" fill="#D8DADE"/>
</g>
<path d="M24.8789 212.319L29.4136 267.999L34.1786 330.678C34.1786 330.678 41.432 335.83 46.1943 330.678L51.637 293.406L49.5987 267.999L57.9877 212.319H24.8789Z" fill="#27425F"/>
<g style="mix-blend-mode:multiply">
<path d="M41.442 212.913L38.71 268.364L42.5134 333.4C43.7643 333.242 46.1829 331.271 46.1829 331.271L51.6256 293.996L49.5873 268.593L57.9763 212.913H41.442Z" fill="#D8DADE"/>
</g>
<path d="M86.7868 212.913H24.8789V112.167H73.1828L67.3624 154.905L86.7868 178.542V212.913Z" fill="#27425F"/>
<path d="M86.7865 212.913L85.2009 268.483L77.4895 331.277C77.4895 331.277 71.8191 336.163 67.0568 331.008L61.6167 293.731L63.6578 268.33L53.6777 212.915L86.7865 212.913Z" fill="#27425F"/>
<path d="M39.9213 83.0747C30.1689 88.2773 24.8789 100.65 24.8789 112.167H32.2099C33.3456 93.7565 38.4106 87.319 49.7487 83.0747H39.9213Z" fill="#27425F"/>
<path d="M74.2326 83.0747C60.5562 87.319 59.1875 100.65 59.1875 112.167H66.8319C66.3793 95.0451 71.5594 88.1753 84.0573 83.0747H74.2326Z" fill="#27425F"/>
<g style="mix-blend-mode:multiply">
<path d="M61.7698 132.744C61.7698 143.305 54.7629 151.869 46.1194 151.869C37.4759 151.869 30.4609 143.305 30.4609 132.744C30.4609 122.183 37.4706 124.594 46.1114 124.594C54.7522 124.594 61.7698 122.18 61.7698 132.744Z" fill="#D8DADE"/>
</g>
<g style="mix-blend-mode:multiply">
<path d="M61.7618 132.927C61.7618 132.865 61.7618 132.803 61.7618 132.741C61.7618 122.178 54.7549 124.591 46.1114 124.591C37.4679 124.591 30.4609 122.175 30.4609 132.741C30.4609 132.803 30.4609 132.865 30.4609 132.927H61.7618Z" fill="#D8DADE"/>
</g>
<path d="M92.2296 99.7432C92.3448 99.9713 111.515 124.352 107.952 167.93L44.7588 173.694" stroke="#D68552" stroke-width="12" stroke-miterlimit="10"/>
<path d="M37.3154 160.459C37.3154 160.459 48.5196 159.034 48.3508 166.245C48.1821 173.455 41.4349 167.812 41.4349 167.812L37.3154 160.459Z" fill="#FAC52F"/>
<path d="M44.542 166.051C44.4884 165.41 46.125 163.265 46.125 163.265C46.125 163.265 42.3403 160.344 37.3154 160.459C40.6609 161.654 43.4706 165.157 44.542 166.051Z" fill="#B89021"/>
<path d="M63.3744 182.075L44.3545 180.193V165.775L63.3744 163.265V182.075Z" fill="#FAC52F"/>
<path d="M44.3542 165.775C44.3542 165.775 42.4981 159.729 35.1483 159.869C27.7985 160.008 27.9619 176.604 30.094 179.104C32.226 181.603 37.0875 184.424 44.3542 180.193C51.621 175.963 44.3542 165.775 44.3542 165.775Z" fill="#FAC52F"/>
<path d="M114 130.578C113.092 94.6665 85.3699 83.6411 85.3699 83.6411L79.7451 109.668C92.2269 113.759 94.7125 130.578 94.7125 130.578H114Z" fill="#F5FAFA"/>
<path d="M28.1705 135.574C29.266 135.574 30.1526 151.254 30.1526 170.599C30.1526 189.944 29.266 205.64 28.1705 205.64C27.075 205.64 26.1885 189.957 26.1885 170.615C26.1885 151.273 27.075 135.574 28.1705 135.574Z" fill="#2D4A6A"/>
<path d="M43.0203 83.0747C44.1158 83.0747 30.4046 90.8384 30.4689 103.985L28.2832 128.379C25.9771 128.379 26.3065 130.339 26.1887 105.112C26.1244 91.9659 41.9248 83.0801 43.0203 83.0747Z" fill="#2D4A6A"/>
<path d="M77.489 83.0747C78.5872 83.0747 64.876 90.8384 64.9377 103.985L62.752 120.865C60.4458 120.865 60.6574 115.805 60.6574 105.112C60.6574 91.9659 76.3935 83.0801 77.489 83.0747Z" fill="#2D4A6A"/>
<path d="M69.8831 83.6411C64.794 87.8183 49.5266 99.2893 46.6097 95.7081C43.6928 92.127 45.0026 87.8183 50.0917 83.6411H69.8831Z" fill="#D68552"/>
<path d="M40.875 50.4738C40.875 54.1355 38.4055 57.1046 35.3627 57.1046C32.3199 57.1046 29.8477 54.1355 29.8477 50.4738C29.8477 46.8121 32.3172 43.843 35.3627 43.843C38.4081 43.843 40.875 46.7987 40.875 50.4738Z" fill="#D68552"/>
<path d="M89.5722 50.4738C89.5722 54.1355 87.1027 57.1046 84.0572 57.1046C81.0118 57.1046 78.5449 54.1355 78.5449 50.4738C78.5449 46.8121 81.0145 43.843 84.0572 43.843C87.1 43.843 89.5722 46.7987 89.5722 50.4738Z" fill="#D68552"/>
<path d="M64.419 86.5057L52.6631 85.7325C52.6899 84.9057 52.6792 77.9044 52.6631 71.7353L64.4485 71.687C64.494 85.5741 64.4404 86.2265 64.419 86.5057Z" fill="#D68552"/>
<g style="mix-blend-mode:multiply">
<path d="M62.6376 82.393C62.6376 82.393 52.0897 85.0077 52.6442 71.7353L64.4295 71.687C64.4295 71.687 65.0135 82.393 62.6376 82.393Z" fill="#D8DADE"/>
</g>
<path d="M86.5705 37.0027C86.5705 54.9005 74.3111 79.0963 59.1883 79.0963C44.0656 79.0963 31.8008 54.9005 31.8008 37.0027C31.8008 19.1049 44.0602 14.2808 59.183 14.2808C74.3057 14.2808 86.5705 19.1049 86.5705 37.0027Z" fill="#D68552"/>
<path d="M78.623 32.8633C80.8649 40.9169 85.0514 44.7182 81.631 58.7825C81.6792 59.3194 86.2085 48.3128 87.4165 32.8633H78.623Z" fill="#1B0900"/>
<path d="M36.7502 58.7958C36.6565 59.8186 24.8791 29.2659 35.577 11.5667C37.3127 17.0995 40.7519 17.0995 40.7519 17.0995C40.7519 17.0995 46.674 -3.7298 71.8224 0.589623C67.4859 4.22449 71.8224 7.40567 71.8224 7.40567C71.8224 7.40567 78.5186 -0.790231 98.8537 11.4835C98.8537 11.4835 101.05 26.7854 86.763 34.4819C72.4759 42.1785 61.8182 32.635 56.0327 28.9974C56.0327 28.9974 42.6991 28.2109 37.3207 40.7423C35.5208 44.9248 36.6752 51.4214 36.7502 58.7958Z" fill="#1B0900"/>
<path d="M51.7148 66.8708C51.7148 70.0923 55.0603 72.7231 59.1878 72.7231C63.3154 72.7231 66.6608 70.103 66.6608 66.8708H51.7148Z" fill="#DBDBDB"/>
<g style="mix-blend-mode:multiply">
<path d="M62.798 47.8132L66.5371 63.5795L58.0303 64.1272L64.5738 63.3111L62.798 47.8132Z" fill="#D8DADE"/>
</g>
<path d="M62.2842 42.0012C62.3806 41.5449 64.9627 40.7476 64.9627 40.7476L76.5713 44.718C76.5713 44.718 62.0057 43.3596 62.2842 42.0012Z" fill="#1B0900"/>
<path d="M55.3171 42.0012C55.2234 41.5449 52.6386 40.7476 52.6386 40.7476L41.0273 44.718C41.0273 44.718 55.601 43.3596 55.3171 42.0012Z" fill="#1B0900"/>
<path d="M69.4301 50.8764C69.4301 53.1877 68.7819 55.0616 67.9838 55.0616C67.1856 55.0616 66.54 53.1824 66.54 50.8764C66.54 48.5703 67.1856 46.6885 67.9838 46.6885C68.7819 46.6885 69.4301 48.5623 69.4301 50.8764Z" fill="#1B0900"/>
<path d="M51.8884 50.8764C51.8884 53.1877 51.2402 55.0616 50.4447 55.0616C49.6492 55.0616 49.001 53.1824 49.001 50.8764C49.001 48.5703 49.6465 46.6885 50.4447 46.6885C51.2429 46.6885 51.8884 48.5623 51.8884 50.8764Z" fill="#1B0900"/>
</g>
<defs>
<clipPath id="clip0_0_2065">
<rect width="114" height="236" fill="white"/>
</clipPath>
</defs>
</svg>
