<svg width="384" height="433" viewBox="0 0 384 433" fill="none" xmlns="http://www.w3.org/2000/svg">
<g opacity="0.15">
<path d="M142.863 748.011C160.744 714.225 192.163 689.805 224.308 669.091C256.454 648.377 290.548 630.008 318.219 603.634C363.426 560.562 388.158 496.741 383.377 434.424C378.597 372.107 344.269 312.581 292.499 277.515C259.776 255.397 220.45 242.392 192.384 214.54C163.566 185.926 150.472 145.486 128.672 111.229C76.9244 29.8771 -27.1262 -12.2464 -122.142 3.49872C-217.157 19.2438 -299.644 88.8881 -337.826 177.275C-376.008 265.662 -371.413 370.014 -332.379 458.162C-293.345 546.31 -221.692 618.256 -137.093 664.552C-95.6546 687.3 -51.1165 704.231 -10.7627 728.83C29.5912 753.429 66.7225 787.518 82.1195 832.209L149.095 855.749C123.819 826.975 124.959 781.796 142.863 748.011Z" fill="url(#paint0_linear_213_16259)" style="mix-blend-mode:multiply"/>
</g>
<defs>
<linearGradient id="paint0_linear_213_16259" x1="-397882" y1="103331" x2="-101358" y2="423018" gradientUnits="userSpaceOnUse">
<stop stop-color="white" stop-opacity="0.32"/>
<stop offset="1" stop-color="#3082F6"/>
</linearGradient>
</defs>
</svg>
