<svg width="221" height="292" viewBox="0 0 221 292" fill="none" xmlns="http://www.w3.org/2000/svg">
<g opacity="0.15">
<path d="M85.8299 428.715C95.5694 408.845 113.307 394.144 131.532 381.573C149.756 369.003 169.149 357.753 184.684 341.991C210.064 316.248 223.231 278.88 219.354 242.923C215.477 206.966 194.558 173.165 163.987 153.832C144.664 141.639 121.685 134.838 104.954 119.243C87.7734 103.221 79.478 80.0708 66.2571 60.6558C34.8728 14.5504 -26.0649 -7.9059 -80.7435 2.94368C-135.422 13.7933 -181.892 55.5887 -202.4 107.413C-222.908 159.237 -218.388 219.51 -194.237 269.78C-170.085 320.049 -127.355 360.349 -77.5946 385.576C-53.2192 397.974 -27.1549 406.95 -3.3741 420.438C20.4067 433.926 42.4929 452.963 52.1966 478.53L91.3575 490.917C76.2231 474.738 76.0766 448.585 85.8299 428.715Z" fill="url(#paint0_linear_213_16256)" style="mix-blend-mode:multiply"/>
</g>
<defs>
<linearGradient id="paint0_linear_213_16256" x1="-228313" y1="67062.6" x2="-51089" y2="246534" gradientUnits="userSpaceOnUse">
<stop stop-color="white"/>
<stop offset="1" stop-color="#3082F6"/>
</linearGradient>
</defs>
</svg>
