<svg width="1221" height="48" viewBox="0 0 1221 48" fill="none" xmlns="http://www.w3.org/2000/svg">
<path d="M0 0H1221V40C1221 44.4183 1217.42 48 1213 48H7.99997C3.58169 48 0 44.4183 0 40V0Z" fill="#3082F7"/>
<path d="M23.9375 30H17.5703V18.5781H23.9375V19.7578H18.8984V23.4375H23.6328V24.6094H18.8984V28.8125H23.9375V30ZM37.1953 30V24.4297C37.1953 23.7474 37.0495 23.237 36.7578 22.8984C36.4661 22.5547 36.013 22.3828 35.3984 22.3828C34.5911 22.3828 33.9948 22.6146 33.6094 23.0781C33.224 23.5417 33.0312 24.2552 33.0312 25.2188V30H31.7344V24.4297C31.7344 23.7474 31.5885 23.237 31.2969 22.8984C31.0052 22.5547 30.5495 22.3828 29.9297 22.3828C29.1172 22.3828 28.5208 22.6276 28.1406 23.1172C27.7656 23.6016 27.5781 24.3984 27.5781 25.5078V30H26.2812V21.4375H27.3359L27.5469 22.6094H27.6094C27.8542 22.1927 28.1979 21.8672 28.6406 21.6328C29.0885 21.3984 29.5885 21.2812 30.1406 21.2812C31.4792 21.2812 32.3542 21.7656 32.7656 22.7344H32.8281C33.0833 22.2865 33.4531 21.9323 33.9375 21.6719C34.4219 21.4115 34.974 21.2812 35.5938 21.2812C36.5625 21.2812 37.2865 21.5312 37.7656 22.0312C38.25 22.526 38.4922 23.3203 38.4922 24.4141V30H37.1953ZM46.4375 30L46.1797 28.7812H46.1172C45.6901 29.3177 45.263 29.6823 44.8359 29.875C44.4141 30.0625 43.8854 30.1562 43.25 30.1562C42.401 30.1562 41.7344 29.9375 41.25 29.5C40.7708 29.0625 40.5312 28.4401 40.5312 27.6328C40.5312 25.9036 41.9141 24.9974 44.6797 24.9141L46.1328 24.8672V24.3359C46.1328 23.6641 45.987 23.1693 45.6953 22.8516C45.4089 22.5286 44.9479 22.3672 44.3125 22.3672C43.599 22.3672 42.7917 22.5859 41.8906 23.0234L41.4922 22.0312C41.9141 21.8021 42.375 21.6224 42.875 21.4922C43.3802 21.362 43.8854 21.2969 44.3906 21.2969C45.4115 21.2969 46.1667 21.5234 46.6562 21.9766C47.151 22.4297 47.3984 23.1562 47.3984 24.1562V30H46.4375ZM43.5078 29.0859C44.3151 29.0859 44.9479 28.8646 45.4062 28.4219C45.8698 27.9792 46.1016 27.3594 46.1016 26.5625V25.7891L44.8047 25.8438C43.7734 25.8802 43.0286 26.0417 42.5703 26.3281C42.1172 26.6094 41.8906 27.0495 41.8906 27.6484C41.8906 28.1172 42.0312 28.474 42.3125 28.7188C42.599 28.9635 42.9974 29.0859 43.5078 29.0859ZM51.375 30H50.0781V21.4375H51.375V30ZM49.9688 19.1172C49.9688 18.8203 50.0417 18.6042 50.1875 18.4688C50.3333 18.3281 50.5156 18.2578 50.7344 18.2578C50.9427 18.2578 51.1224 18.3281 51.2734 18.4688C51.4245 18.6094 51.5 18.8255 51.5 19.1172C51.5 19.4089 51.4245 19.6276 51.2734 19.7734C51.1224 19.9141 50.9427 19.9844 50.7344 19.9844C50.5156 19.9844 50.3333 19.9141 50.1875 19.7734C50.0417 19.6276 49.9688 19.4089 49.9688 19.1172ZM55.4219 30H54.125V17.8438H55.4219V30ZM62.5078 18.5781L58.25 30H56.9531L61.2109 18.5781H62.5078ZM72.8672 18.5781V25.9688C72.8672 27.2708 72.474 28.2943 71.6875 29.0391C70.901 29.7839 69.8203 30.1562 68.4453 30.1562C67.0703 30.1562 66.0052 29.7812 65.25 29.0312C64.5 28.2812 64.125 27.25 64.125 25.9375V18.5781H65.4531V26.0312C65.4531 26.9844 65.7135 27.7161 66.2344 28.2266C66.7552 28.737 67.5208 28.9922 68.5312 28.9922C69.4948 28.9922 70.237 28.737 70.7578 28.2266C71.2786 27.7109 71.5391 26.974 71.5391 26.0156V18.5781H72.8672ZM81.2266 27.6641C81.2266 28.4609 80.9297 29.0755 80.3359 29.5078C79.7422 29.9401 78.9089 30.1562 77.8359 30.1562C76.7005 30.1562 75.8151 29.9766 75.1797 29.6172V28.4141C75.5911 28.6224 76.0312 28.7865 76.5 28.9062C76.974 29.026 77.4297 29.0859 77.8672 29.0859C78.5443 29.0859 79.0651 28.9792 79.4297 28.7656C79.7943 28.5469 79.9766 28.2161 79.9766 27.7734C79.9766 27.4401 79.8307 27.1562 79.5391 26.9219C79.2526 26.6823 78.6901 26.401 77.8516 26.0781C77.0547 25.7812 76.487 25.5234 76.1484 25.3047C75.8151 25.0807 75.5651 24.8281 75.3984 24.5469C75.237 24.2656 75.1562 23.9297 75.1562 23.5391C75.1562 22.8411 75.4401 22.2917 76.0078 21.8906C76.5755 21.4844 77.3542 21.2812 78.3438 21.2812C79.2656 21.2812 80.1667 21.4688 81.0469 21.8438L80.5859 22.8984C79.7266 22.5443 78.9479 22.3672 78.25 22.3672C77.6354 22.3672 77.1719 22.4635 76.8594 22.6562C76.5469 22.849 76.3906 23.1146 76.3906 23.4531C76.3906 23.6823 76.4479 23.8776 76.5625 24.0391C76.6823 24.2005 76.8724 24.3542 77.1328 24.5C77.3932 24.6458 77.8932 24.8568 78.6328 25.1328C79.6484 25.5026 80.3333 25.875 80.6875 26.25C81.0469 26.625 81.2266 27.0964 81.2266 27.6641ZM86.9609 30.1562C85.6953 30.1562 84.6953 29.7708 83.9609 29C83.2318 28.2292 82.8672 27.1589 82.8672 25.7891C82.8672 24.4089 83.2057 23.3125 83.8828 22.5C84.5651 21.6875 85.4792 21.2812 86.625 21.2812C87.6979 21.2812 88.5469 21.6354 89.1719 22.3438C89.7969 23.0469 90.1094 23.9766 90.1094 25.1328V25.9531H84.2109C84.237 26.9583 84.4896 27.7214 84.9688 28.2422C85.4531 28.763 86.1328 29.0234 87.0078 29.0234C87.9297 29.0234 88.8411 28.8307 89.7422 28.4453V29.6016C89.2839 29.7995 88.849 29.9401 88.4375 30.0234C88.0312 30.112 87.5391 30.1562 86.9609 30.1562ZM86.6094 22.3672C85.9219 22.3672 85.3724 22.5911 84.9609 23.0391C84.5547 23.487 84.3151 24.1068 84.2422 24.8984H88.7188C88.7188 24.0807 88.5365 23.4557 88.1719 23.0234C87.8073 22.5859 87.2865 22.3672 86.6094 22.3672ZM96.2344 21.2812C96.6146 21.2812 96.9557 21.3125 97.2578 21.375L97.0781 22.5781C96.724 22.5 96.4115 22.4609 96.1406 22.4609C95.4479 22.4609 94.8542 22.7422 94.3594 23.3047C93.8698 23.8672 93.625 24.5677 93.625 25.4062V30H92.3281V21.4375H93.3984L93.5469 23.0234H93.6094C93.9271 22.4661 94.3099 22.0365 94.7578 21.7344C95.2057 21.4323 95.6979 21.2812 96.2344 21.2812ZM104.719 30V24.4609C104.719 23.763 104.56 23.2422 104.242 22.8984C103.924 22.5547 103.427 22.3828 102.75 22.3828C101.854 22.3828 101.198 22.625 100.781 23.1094C100.365 23.5938 100.156 24.3932 100.156 25.5078V30H98.8594V21.4375H99.9141L100.125 22.6094H100.188C100.453 22.1875 100.826 21.862 101.305 21.6328C101.784 21.3984 102.318 21.2812 102.906 21.2812C103.938 21.2812 104.714 21.5312 105.234 22.0312C105.755 22.526 106.016 23.3203 106.016 24.4141V30H104.719ZM113.953 30L113.695 28.7812H113.633C113.206 29.3177 112.779 29.6823 112.352 29.875C111.93 30.0625 111.401 30.1562 110.766 30.1562C109.917 30.1562 109.25 29.9375 108.766 29.5C108.286 29.0625 108.047 28.4401 108.047 27.6328C108.047 25.9036 109.43 24.9974 112.195 24.9141L113.648 24.8672V24.3359C113.648 23.6641 113.503 23.1693 113.211 22.8516C112.924 22.5286 112.464 22.3672 111.828 22.3672C111.115 22.3672 110.307 22.5859 109.406 23.0234L109.008 22.0312C109.43 21.8021 109.891 21.6224 110.391 21.4922C110.896 21.362 111.401 21.2969 111.906 21.2969C112.927 21.2969 113.682 21.5234 114.172 21.9766C114.667 22.4297 114.914 23.1562 114.914 24.1562V30H113.953ZM111.023 29.0859C111.831 29.0859 112.464 28.8646 112.922 28.4219C113.385 27.9792 113.617 27.3594 113.617 26.5625V25.7891L112.32 25.8438C111.289 25.8802 110.544 26.0417 110.086 26.3281C109.633 26.6094 109.406 27.0495 109.406 27.6484C109.406 28.1172 109.547 28.474 109.828 28.7188C110.115 28.9635 110.513 29.0859 111.023 29.0859ZM128.508 30V24.4297C128.508 23.7474 128.362 23.237 128.07 22.8984C127.779 22.5547 127.326 22.3828 126.711 22.3828C125.904 22.3828 125.307 22.6146 124.922 23.0781C124.536 23.5417 124.344 24.2552 124.344 25.2188V30H123.047V24.4297C123.047 23.7474 122.901 23.237 122.609 22.8984C122.318 22.5547 121.862 22.3828 121.242 22.3828C120.43 22.3828 119.833 22.6276 119.453 23.1172C119.078 23.6016 118.891 24.3984 118.891 25.5078V30H117.594V21.4375H118.648L118.859 22.6094H118.922C119.167 22.1927 119.51 21.8672 119.953 21.6328C120.401 21.3984 120.901 21.2812 121.453 21.2812C122.792 21.2812 123.667 21.7656 124.078 22.7344H124.141C124.396 22.2865 124.766 21.9323 125.25 21.6719C125.734 21.4115 126.286 21.2812 126.906 21.2812C127.875 21.2812 128.599 21.5312 129.078 22.0312C129.562 22.526 129.805 23.3203 129.805 24.4141V30H128.508ZM136.102 30.1562C134.836 30.1562 133.836 29.7708 133.102 29C132.372 28.2292 132.008 27.1589 132.008 25.7891C132.008 24.4089 132.346 23.3125 133.023 22.5C133.706 21.6875 134.62 21.2812 135.766 21.2812C136.839 21.2812 137.688 21.6354 138.312 22.3438C138.938 23.0469 139.25 23.9766 139.25 25.1328V25.9531H133.352C133.378 26.9583 133.63 27.7214 134.109 28.2422C134.594 28.763 135.273 29.0234 136.148 29.0234C137.07 29.0234 137.982 28.8307 138.883 28.4453V29.6016C138.424 29.7995 137.99 29.9401 137.578 30.0234C137.172 30.112 136.68 30.1562 136.102 30.1562ZM135.75 22.3672C135.062 22.3672 134.513 22.5911 134.102 23.0391C133.695 23.487 133.456 24.1068 133.383 24.8984H137.859C137.859 24.0807 137.677 23.4557 137.312 23.0234C136.948 22.5859 136.427 22.3672 135.75 22.3672Z" fill="white"/>
<path d="M280.47 30H279.142V18.5781H285.509V19.7578H280.47V23.9375H285.204V25.1172H280.47V30ZM288.431 21.4375V26.9922C288.431 27.6901 288.59 28.2109 288.907 28.5547C289.225 28.8984 289.722 29.0703 290.399 29.0703C291.295 29.0703 291.949 28.8255 292.36 28.3359C292.777 27.8464 292.985 27.0469 292.985 25.9375V21.4375H294.282V30H293.212L293.024 28.8516H292.954C292.688 29.2734 292.319 29.5964 291.845 29.8203C291.376 30.0443 290.84 30.1562 290.235 30.1562C289.194 30.1562 288.412 29.9089 287.892 29.4141C287.376 28.9193 287.118 28.1276 287.118 27.0391V21.4375H288.431ZM298.337 30H297.04V17.8438H298.337V30ZM302.384 30H301.087V17.8438H302.384V30ZM318.407 30H316.892L310.649 20.4141H310.587C310.67 21.5391 310.712 22.5703 310.712 23.5078V30H309.485V18.5781H310.985L317.212 28.125H317.274C317.264 27.9844 317.241 27.5339 317.204 26.7734C317.168 26.0078 317.155 25.4609 317.165 25.1328V18.5781H318.407V30ZM326.618 30L326.36 28.7812H326.298C325.871 29.3177 325.444 29.6823 325.017 29.875C324.595 30.0625 324.066 30.1562 323.431 30.1562C322.582 30.1562 321.915 29.9375 321.431 29.5C320.951 29.0625 320.712 28.4401 320.712 27.6328C320.712 25.9036 322.095 24.9974 324.86 24.9141L326.313 24.8672V24.3359C326.313 23.6641 326.168 23.1693 325.876 22.8516C325.59 22.5286 325.129 22.3672 324.493 22.3672C323.78 22.3672 322.972 22.5859 322.071 23.0234L321.673 22.0312C322.095 21.8021 322.556 21.6224 323.056 21.4922C323.561 21.362 324.066 21.2969 324.571 21.2969C325.592 21.2969 326.347 21.5234 326.837 21.9766C327.332 22.4297 327.579 23.1562 327.579 24.1562V30H326.618ZM323.688 29.0859C324.496 29.0859 325.129 28.8646 325.587 28.4219C326.05 27.9792 326.282 27.3594 326.282 26.5625V25.7891L324.985 25.8438C323.954 25.8802 323.209 26.0417 322.751 26.3281C322.298 26.6094 322.071 27.0495 322.071 27.6484C322.071 28.1172 322.212 28.474 322.493 28.7188C322.78 28.9635 323.178 29.0859 323.688 29.0859ZM341.173 30V24.4297C341.173 23.7474 341.027 23.237 340.735 22.8984C340.444 22.5547 339.991 22.3828 339.376 22.3828C338.569 22.3828 337.972 22.6146 337.587 23.0781C337.201 23.5417 337.009 24.2552 337.009 25.2188V30H335.712V24.4297C335.712 23.7474 335.566 23.237 335.274 22.8984C334.983 22.5547 334.527 22.3828 333.907 22.3828C333.095 22.3828 332.498 22.6276 332.118 23.1172C331.743 23.6016 331.556 24.3984 331.556 25.5078V30H330.259V21.4375H331.313L331.524 22.6094H331.587C331.832 22.1927 332.175 21.8672 332.618 21.6328C333.066 21.3984 333.566 21.2812 334.118 21.2812C335.457 21.2812 336.332 21.7656 336.743 22.7344H336.806C337.061 22.2865 337.431 21.9323 337.915 21.6719C338.399 21.4115 338.951 21.2812 339.571 21.2812C340.54 21.2812 341.264 21.5312 341.743 22.0312C342.228 22.526 342.47 23.3203 342.47 24.4141V30H341.173ZM348.767 30.1562C347.501 30.1562 346.501 29.7708 345.767 29C345.037 28.2292 344.673 27.1589 344.673 25.7891C344.673 24.4089 345.011 23.3125 345.688 22.5C346.371 21.6875 347.285 21.2812 348.431 21.2812C349.504 21.2812 350.353 21.6354 350.978 22.3438C351.603 23.0469 351.915 23.9766 351.915 25.1328V25.9531H346.017C346.043 26.9583 346.295 27.7214 346.774 28.2422C347.259 28.763 347.938 29.0234 348.813 29.0234C349.735 29.0234 350.647 28.8307 351.548 28.4453V29.6016C351.09 29.7995 350.655 29.9401 350.243 30.0234C349.837 30.112 349.345 30.1562 348.767 30.1562ZM348.415 22.3672C347.728 22.3672 347.178 22.5911 346.767 23.0391C346.36 23.487 346.121 24.1068 346.048 24.8984H350.524C350.524 24.0807 350.342 23.4557 349.978 23.0234C349.613 22.5859 349.092 22.3672 348.415 22.3672Z" fill="white"/>
<path d="M471.338 18.5781V25.9688C471.338 27.2708 470.945 28.2943 470.159 29.0391C469.372 29.7839 468.292 30.1562 466.917 30.1562C465.542 30.1562 464.476 29.7812 463.721 29.0312C462.971 28.2812 462.596 27.25 462.596 25.9375V18.5781H463.924V26.0312C463.924 26.9844 464.185 27.7161 464.706 28.2266C465.226 28.737 465.992 28.9922 467.002 28.9922C467.966 28.9922 468.708 28.737 469.229 28.2266C469.75 27.7109 470.01 26.974 470.01 26.0156V18.5781H471.338ZM479.698 27.6641C479.698 28.4609 479.401 29.0755 478.807 29.5078C478.213 29.9401 477.38 30.1562 476.307 30.1562C475.172 30.1562 474.286 29.9766 473.651 29.6172V28.4141C474.062 28.6224 474.502 28.7865 474.971 28.9062C475.445 29.026 475.901 29.0859 476.338 29.0859C477.015 29.0859 477.536 28.9792 477.901 28.7656C478.265 28.5469 478.448 28.2161 478.448 27.7734C478.448 27.4401 478.302 27.1562 478.01 26.9219C477.724 26.6823 477.161 26.401 476.323 26.0781C475.526 25.7812 474.958 25.5234 474.62 25.3047C474.286 25.0807 474.036 24.8281 473.87 24.5469C473.708 24.2656 473.627 23.9297 473.627 23.5391C473.627 22.8411 473.911 22.2917 474.479 21.8906C475.047 21.4844 475.825 21.2812 476.815 21.2812C477.737 21.2812 478.638 21.4688 479.518 21.8438L479.057 22.8984C478.198 22.5443 477.419 22.3672 476.721 22.3672C476.107 22.3672 475.643 22.4635 475.331 22.6562C475.018 22.849 474.862 23.1146 474.862 23.4531C474.862 23.6823 474.919 23.8776 475.034 24.0391C475.153 24.2005 475.344 24.3542 475.604 24.5C475.864 24.6458 476.364 24.8568 477.104 25.1328C478.12 25.5026 478.805 25.875 479.159 26.25C479.518 26.625 479.698 27.0964 479.698 27.6641ZM485.432 30.1562C484.167 30.1562 483.167 29.7708 482.432 29C481.703 28.2292 481.338 27.1589 481.338 25.7891C481.338 24.4089 481.677 23.3125 482.354 22.5C483.036 21.6875 483.95 21.2812 485.096 21.2812C486.169 21.2812 487.018 21.6354 487.643 22.3438C488.268 23.0469 488.581 23.9766 488.581 25.1328V25.9531H482.682C482.708 26.9583 482.961 27.7214 483.44 28.2422C483.924 28.763 484.604 29.0234 485.479 29.0234C486.401 29.0234 487.312 28.8307 488.213 28.4453V29.6016C487.755 29.7995 487.32 29.9401 486.909 30.0234C486.502 30.112 486.01 30.1562 485.432 30.1562ZM485.081 22.3672C484.393 22.3672 483.844 22.5911 483.432 23.0391C483.026 23.487 482.786 24.1068 482.713 24.8984H487.19C487.19 24.0807 487.008 23.4557 486.643 23.0234C486.278 22.5859 485.758 22.3672 485.081 22.3672ZM494.706 21.2812C495.086 21.2812 495.427 21.3125 495.729 21.375L495.549 22.5781C495.195 22.5 494.883 22.4609 494.612 22.4609C493.919 22.4609 493.325 22.7422 492.831 23.3047C492.341 23.8672 492.096 24.5677 492.096 25.4062V30H490.799V21.4375H491.87L492.018 23.0234H492.081C492.398 22.4661 492.781 22.0365 493.229 21.7344C493.677 21.4323 494.169 21.2812 494.706 21.2812ZM506.573 19.6016C505.318 19.6016 504.325 20.0208 503.596 20.8594C502.872 21.6927 502.51 22.8359 502.51 24.2891C502.51 25.7839 502.859 26.9401 503.557 27.7578C504.26 28.5703 505.26 28.9766 506.557 28.9766C507.354 28.9766 508.263 28.8333 509.284 28.5469V29.7109C508.492 30.0078 507.515 30.1562 506.354 30.1562C504.672 30.1562 503.372 29.6458 502.456 28.625C501.544 27.6042 501.088 26.1536 501.088 24.2734C501.088 23.0964 501.307 22.0651 501.745 21.1797C502.187 20.2943 502.823 19.612 503.651 19.1328C504.484 18.6536 505.463 18.4141 506.588 18.4141C507.786 18.4141 508.833 18.6328 509.729 19.0703L509.167 20.2109C508.302 19.8047 507.437 19.6016 506.573 19.6016ZM515.487 21.2812C515.867 21.2812 516.208 21.3125 516.51 21.375L516.331 22.5781C515.976 22.5 515.664 22.4609 515.393 22.4609C514.7 22.4609 514.107 22.7422 513.612 23.3047C513.122 23.8672 512.877 24.5677 512.877 25.4062V30H511.581V21.4375H512.651L512.799 23.0234H512.862C513.18 22.4661 513.562 22.0365 514.01 21.7344C514.458 21.4323 514.95 21.2812 515.487 21.2812ZM521.729 30.1562C520.463 30.1562 519.463 29.7708 518.729 29C518 28.2292 517.635 27.1589 517.635 25.7891C517.635 24.4089 517.974 23.3125 518.651 22.5C519.333 21.6875 520.247 21.2812 521.393 21.2812C522.466 21.2812 523.315 21.6354 523.94 22.3438C524.565 23.0469 524.877 23.9766 524.877 25.1328V25.9531H518.979C519.005 26.9583 519.258 27.7214 519.737 28.2422C520.221 28.763 520.901 29.0234 521.776 29.0234C522.698 29.0234 523.609 28.8307 524.51 28.4453V29.6016C524.052 29.7995 523.617 29.9401 523.206 30.0234C522.799 30.112 522.307 30.1562 521.729 30.1562ZM521.377 22.3672C520.69 22.3672 520.14 22.5911 519.729 23.0391C519.323 23.487 519.083 24.1068 519.01 24.8984H523.487C523.487 24.0807 523.305 23.4557 522.94 23.0234C522.575 22.5859 522.055 22.3672 521.377 22.3672ZM532.362 30L532.104 28.7812H532.042C531.614 29.3177 531.187 29.6823 530.76 29.875C530.338 30.0625 529.81 30.1562 529.174 30.1562C528.325 30.1562 527.659 29.9375 527.174 29.5C526.695 29.0625 526.456 28.4401 526.456 27.6328C526.456 25.9036 527.838 24.9974 530.604 24.9141L532.057 24.8672V24.3359C532.057 23.6641 531.911 23.1693 531.62 22.8516C531.333 22.5286 530.872 22.3672 530.237 22.3672C529.523 22.3672 528.716 22.5859 527.815 23.0234L527.417 22.0312C527.838 21.8021 528.299 21.6224 528.799 21.4922C529.305 21.362 529.81 21.2969 530.315 21.2969C531.336 21.2969 532.091 21.5234 532.581 21.9766C533.075 22.4297 533.323 23.1562 533.323 24.1562V30H532.362ZM529.432 29.0859C530.239 29.0859 530.872 28.8646 531.331 28.4219C531.794 27.9792 532.026 27.3594 532.026 26.5625V25.7891L530.729 25.8438C529.698 25.8802 528.953 26.0417 528.495 26.3281C528.042 26.6094 527.815 27.0495 527.815 27.6484C527.815 28.1172 527.956 28.474 528.237 28.7188C528.523 28.9635 528.922 29.0859 529.432 29.0859ZM538.768 29.0859C538.997 29.0859 539.219 29.0703 539.432 29.0391C539.646 29.0026 539.815 28.9661 539.94 28.9297V29.9219C539.799 29.9896 539.591 30.0443 539.315 30.0859C539.044 30.1328 538.799 30.1562 538.581 30.1562C536.924 30.1562 536.096 29.2839 536.096 27.5391V22.4453H534.87V21.8203L536.096 21.2812L536.643 19.4531H537.393V21.4375H539.877V22.4453H537.393V27.4844C537.393 28 537.515 28.3958 537.76 28.6719C538.005 28.9479 538.341 29.0859 538.768 29.0859ZM545.276 30.1562C544.01 30.1562 543.01 29.7708 542.276 29C541.547 28.2292 541.182 27.1589 541.182 25.7891C541.182 24.4089 541.521 23.3125 542.198 22.5C542.88 21.6875 543.794 21.2812 544.94 21.2812C546.013 21.2812 546.862 21.6354 547.487 22.3438C548.112 23.0469 548.424 23.9766 548.424 25.1328V25.9531H542.526C542.552 26.9583 542.805 27.7214 543.284 28.2422C543.768 28.763 544.448 29.0234 545.323 29.0234C546.245 29.0234 547.156 28.8307 548.057 28.4453V29.6016C547.599 29.7995 547.164 29.9401 546.752 30.0234C546.346 30.112 545.854 30.1562 545.276 30.1562ZM544.924 22.3672C544.237 22.3672 543.687 22.5911 543.276 23.0391C542.87 23.487 542.63 24.1068 542.557 24.8984H547.034C547.034 24.0807 546.851 23.4557 546.487 23.0234C546.122 22.5859 545.601 22.3672 544.924 22.3672ZM556.471 28.8516H556.401C555.802 29.7214 554.906 30.1562 553.713 30.1562C552.594 30.1562 551.721 29.7734 551.096 29.0078C550.476 28.2422 550.167 27.1536 550.167 25.7422C550.167 24.3307 550.479 23.2344 551.104 22.4531C551.729 21.6719 552.599 21.2812 553.713 21.2812C554.875 21.2812 555.765 21.7031 556.385 22.5469H556.487L556.432 21.9297L556.401 21.3281V17.8438H557.698V30H556.643L556.471 28.8516ZM553.877 29.0703C554.763 29.0703 555.403 28.8307 555.799 28.3516C556.2 27.8672 556.401 27.0885 556.401 26.0156V25.7422C556.401 24.5286 556.198 23.6641 555.792 23.1484C555.39 22.6276 554.747 22.3672 553.862 22.3672C553.101 22.3672 552.518 22.6641 552.112 23.2578C551.711 23.8464 551.51 24.6797 551.51 25.7578C551.51 26.8516 551.711 27.6771 552.112 28.2344C552.513 28.7917 553.101 29.0703 553.877 29.0703ZM568.596 21.2969C569.721 21.2969 570.594 21.6823 571.213 22.4531C571.838 23.2188 572.151 24.3047 572.151 25.7109C572.151 27.1172 571.836 28.2109 571.206 28.9922C570.581 29.7682 569.711 30.1562 568.596 30.1562C568.039 30.1562 567.528 30.0547 567.065 29.8516C566.607 29.6432 566.221 29.3255 565.909 28.8984H565.815L565.542 30H564.612V17.8438H565.909V20.7969C565.909 21.4583 565.888 22.0521 565.846 22.5781H565.909C566.513 21.724 567.409 21.2969 568.596 21.2969ZM568.409 22.3828C567.523 22.3828 566.885 22.638 566.495 23.1484C566.104 23.6536 565.909 24.5078 565.909 25.7109C565.909 26.9141 566.109 27.776 566.51 28.2969C566.911 28.8125 567.555 29.0703 568.44 29.0703C569.237 29.0703 569.831 28.7812 570.221 28.2031C570.612 27.6198 570.807 26.7839 570.807 25.6953C570.807 24.5807 570.612 23.75 570.221 23.2031C569.831 22.6562 569.226 22.3828 568.409 22.3828ZM573.065 21.4375H574.456L576.331 26.3203C576.742 27.4349 576.997 28.2396 577.096 28.7344H577.159C577.226 28.4688 577.367 28.0156 577.581 27.375C577.799 26.7292 578.508 24.75 579.706 21.4375H581.096L577.417 31.1875C577.052 32.151 576.625 32.8333 576.135 33.2344C575.651 33.6406 575.055 33.8438 574.346 33.8438C573.95 33.8438 573.56 33.7995 573.174 33.7109V32.6719C573.461 32.7344 573.781 32.7656 574.135 32.7656C575.026 32.7656 575.661 32.2656 576.042 31.2656L576.518 30.0469L573.065 21.4375Z" fill="white"/>
<path d="M676.175 19.6016C674.92 19.6016 673.928 20.0208 673.199 20.8594C672.475 21.6927 672.113 22.8359 672.113 24.2891C672.113 25.7839 672.462 26.9401 673.16 27.7578C673.863 28.5703 674.863 28.9766 676.16 28.9766C676.957 28.9766 677.865 28.8333 678.886 28.5469V29.7109C678.095 30.0078 677.118 30.1562 675.957 30.1562C674.274 30.1562 672.975 29.6458 672.058 28.625C671.147 27.6042 670.691 26.1536 670.691 24.2734C670.691 23.0964 670.91 22.0651 671.347 21.1797C671.79 20.2943 672.425 19.612 673.253 19.1328C674.087 18.6536 675.066 18.4141 676.191 18.4141C677.389 18.4141 678.436 18.6328 679.332 19.0703L678.769 20.2109C677.904 19.8047 677.04 19.6016 676.175 19.6016ZM687.042 30V24.4609C687.042 23.763 686.884 23.2422 686.566 22.8984C686.248 22.5547 685.751 22.3828 685.074 22.3828C684.173 22.3828 683.514 22.6276 683.097 23.1172C682.686 23.6068 682.48 24.4089 682.48 25.5234V30H681.183V17.8438H682.48V21.5234C682.48 21.9661 682.459 22.3333 682.417 22.625H682.496C682.751 22.2135 683.113 21.8906 683.582 21.6562C684.056 21.4167 684.595 21.2969 685.199 21.2969C686.246 21.2969 687.029 21.5469 687.55 22.0469C688.076 22.5417 688.339 23.3307 688.339 24.4141V30H687.042ZM696.277 30L696.019 28.7812H695.957C695.529 29.3177 695.102 29.6823 694.675 29.875C694.253 30.0625 693.725 30.1562 693.089 30.1562C692.24 30.1562 691.574 29.9375 691.089 29.5C690.61 29.0625 690.371 28.4401 690.371 27.6328C690.371 25.9036 691.753 24.9974 694.519 24.9141L695.972 24.8672V24.3359C695.972 23.6641 695.826 23.1693 695.535 22.8516C695.248 22.5286 694.787 22.3672 694.152 22.3672C693.438 22.3672 692.631 22.5859 691.73 23.0234L691.332 22.0312C691.753 21.8021 692.214 21.6224 692.714 21.4922C693.22 21.362 693.725 21.2969 694.23 21.2969C695.251 21.2969 696.006 21.5234 696.496 21.9766C696.99 22.4297 697.238 23.1562 697.238 24.1562V30H696.277ZM693.347 29.0859C694.154 29.0859 694.787 28.8646 695.246 28.4219C695.709 27.9792 695.941 27.3594 695.941 26.5625V25.7891L694.644 25.8438C693.613 25.8802 692.868 26.0417 692.41 26.3281C691.957 26.6094 691.73 27.0495 691.73 27.6484C691.73 28.1172 691.871 28.474 692.152 28.7188C692.438 28.9635 692.837 29.0859 693.347 29.0859ZM705.777 30V24.4609C705.777 23.763 705.618 23.2422 705.3 22.8984C704.983 22.5547 704.485 22.3828 703.808 22.3828C702.912 22.3828 702.256 22.625 701.839 23.1094C701.423 23.5938 701.214 24.3932 701.214 25.5078V30H699.917V21.4375H700.972L701.183 22.6094H701.246C701.511 22.1875 701.884 21.862 702.363 21.6328C702.842 21.3984 703.376 21.2812 703.964 21.2812C704.996 21.2812 705.772 21.5312 706.292 22.0312C706.813 22.526 707.074 23.3203 707.074 24.4141V30H705.777ZM716.753 21.4375V22.2578L715.167 22.4453C715.313 22.6276 715.444 22.8672 715.558 23.1641C715.673 23.4557 715.73 23.7865 715.73 24.1562C715.73 24.9948 715.444 25.6641 714.871 26.1641C714.298 26.6641 713.511 26.9141 712.511 26.9141C712.256 26.9141 712.016 26.8932 711.792 26.8516C711.24 27.1432 710.964 27.5104 710.964 27.9531C710.964 28.1875 711.061 28.362 711.253 28.4766C711.446 28.5859 711.777 28.6406 712.246 28.6406H713.761C714.688 28.6406 715.399 28.8359 715.894 29.2266C716.394 29.6172 716.644 30.1849 716.644 30.9297C716.644 31.8776 716.264 32.599 715.503 33.0938C714.743 33.5938 713.634 33.8438 712.175 33.8438C711.056 33.8438 710.191 33.6354 709.582 33.2188C708.977 32.8021 708.675 32.2135 708.675 31.4531C708.675 30.9323 708.842 30.4818 709.175 30.1016C709.509 29.7214 709.977 29.4635 710.582 29.3281C710.363 29.2292 710.178 29.0755 710.027 28.8672C709.881 28.6589 709.808 28.4167 709.808 28.1406C709.808 27.8281 709.891 27.5547 710.058 27.3203C710.225 27.0859 710.488 26.8594 710.847 26.6406C710.404 26.4583 710.042 26.1484 709.761 25.7109C709.485 25.2734 709.347 24.7734 709.347 24.2109C709.347 23.2734 709.628 22.5521 710.191 22.0469C710.753 21.5365 711.55 21.2812 712.582 21.2812C713.029 21.2812 713.433 21.3333 713.792 21.4375H716.753ZM709.925 31.4375C709.925 31.901 710.121 32.2526 710.511 32.4922C710.902 32.7318 711.462 32.8516 712.191 32.8516C713.279 32.8516 714.084 32.6875 714.605 32.3594C715.131 32.0365 715.394 31.5964 715.394 31.0391C715.394 30.5755 715.251 30.2526 714.964 30.0703C714.678 29.8932 714.139 29.8047 713.347 29.8047H711.792C711.204 29.8047 710.746 29.9453 710.417 30.2266C710.089 30.5078 709.925 30.9115 709.925 31.4375ZM710.628 24.1797C710.628 24.7786 710.798 25.2318 711.136 25.5391C711.475 25.8464 711.946 26 712.55 26C713.816 26 714.449 25.3854 714.449 24.1562C714.449 22.8698 713.808 22.2266 712.527 22.2266C711.917 22.2266 711.449 22.3906 711.121 22.7188C710.792 23.0469 710.628 23.5339 710.628 24.1797ZM722.128 30.1562C720.863 30.1562 719.863 29.7708 719.128 29C718.399 28.2292 718.035 27.1589 718.035 25.7891C718.035 24.4089 718.373 23.3125 719.05 22.5C719.733 21.6875 720.647 21.2812 721.792 21.2812C722.865 21.2812 723.714 21.6354 724.339 22.3438C724.964 23.0469 725.277 23.9766 725.277 25.1328V25.9531H719.378C719.404 26.9583 719.657 27.7214 720.136 28.2422C720.621 28.763 721.3 29.0234 722.175 29.0234C723.097 29.0234 724.009 28.8307 724.91 28.4453V29.6016C724.451 29.7995 724.016 29.9401 723.605 30.0234C723.199 30.112 722.707 30.1562 722.128 30.1562ZM721.777 22.3672C721.089 22.3672 720.54 22.5911 720.128 23.0391C719.722 23.487 719.483 24.1068 719.41 24.8984H723.886C723.886 24.0807 723.704 23.4557 723.339 23.0234C722.975 22.5859 722.454 22.3672 721.777 22.3672ZM739.089 21.9062C739.089 23.0625 738.694 23.9531 737.902 24.5781C737.115 25.1979 735.988 25.5078 734.519 25.5078H733.175V30H731.847V18.5781H734.808C737.662 18.5781 739.089 19.6875 739.089 21.9062ZM733.175 24.3672H734.371C735.548 24.3672 736.399 24.1771 736.925 23.7969C737.451 23.4167 737.714 22.8073 737.714 21.9688C737.714 21.2135 737.467 20.651 736.972 20.2812C736.477 19.9115 735.707 19.7266 734.66 19.7266H733.175V24.3672ZM746.558 30L746.3 28.7812H746.238C745.811 29.3177 745.384 29.6823 744.957 29.875C744.535 30.0625 744.006 30.1562 743.371 30.1562C742.522 30.1562 741.855 29.9375 741.371 29.5C740.891 29.0625 740.652 28.4401 740.652 27.6328C740.652 25.9036 742.035 24.9974 744.8 24.9141L746.253 24.8672V24.3359C746.253 23.6641 746.108 23.1693 745.816 22.8516C745.529 22.5286 745.069 22.3672 744.433 22.3672C743.72 22.3672 742.912 22.5859 742.011 23.0234L741.613 22.0312C742.035 21.8021 742.496 21.6224 742.996 21.4922C743.501 21.362 744.006 21.2969 744.511 21.2969C745.532 21.2969 746.287 21.5234 746.777 21.9766C747.272 22.4297 747.519 23.1562 747.519 24.1562V30H746.558ZM743.628 29.0859C744.436 29.0859 745.069 28.8646 745.527 28.4219C745.99 27.9792 746.222 27.3594 746.222 26.5625V25.7891L744.925 25.8438C743.894 25.8802 743.149 26.0417 742.691 26.3281C742.238 26.6094 742.011 27.0495 742.011 27.6484C742.011 28.1172 742.152 28.474 742.433 28.7188C742.72 28.9635 743.118 29.0859 743.628 29.0859ZM755.722 27.6641C755.722 28.4609 755.425 29.0755 754.832 29.5078C754.238 29.9401 753.404 30.1562 752.332 30.1562C751.196 30.1562 750.311 29.9766 749.675 29.6172V28.4141C750.087 28.6224 750.527 28.7865 750.996 28.9062C751.47 29.026 751.925 29.0859 752.363 29.0859C753.04 29.0859 753.561 28.9792 753.925 28.7656C754.29 28.5469 754.472 28.2161 754.472 27.7734C754.472 27.4401 754.326 27.1562 754.035 26.9219C753.748 26.6823 753.186 26.401 752.347 26.0781C751.55 25.7812 750.983 25.5234 750.644 25.3047C750.311 25.0807 750.061 24.8281 749.894 24.5469C749.733 24.2656 749.652 23.9297 749.652 23.5391C749.652 22.8411 749.936 22.2917 750.503 21.8906C751.071 21.4844 751.85 21.2812 752.839 21.2812C753.761 21.2812 754.662 21.4688 755.542 21.8438L755.082 22.8984C754.222 22.5443 753.444 22.3672 752.746 22.3672C752.131 22.3672 751.667 22.4635 751.355 22.6562C751.042 22.849 750.886 23.1146 750.886 23.4531C750.886 23.6823 750.944 23.8776 751.058 24.0391C751.178 24.2005 751.368 24.3542 751.628 24.5C751.889 24.6458 752.389 24.8568 753.128 25.1328C754.144 25.5026 754.829 25.875 755.183 26.25C755.542 26.625 755.722 27.0964 755.722 27.6641ZM763.363 27.6641C763.363 28.4609 763.066 29.0755 762.472 29.5078C761.878 29.9401 761.045 30.1562 759.972 30.1562C758.837 30.1562 757.951 29.9766 757.316 29.6172V28.4141C757.727 28.6224 758.167 28.7865 758.636 28.9062C759.11 29.026 759.566 29.0859 760.003 29.0859C760.681 29.0859 761.201 28.9792 761.566 28.7656C761.931 28.5469 762.113 28.2161 762.113 27.7734C762.113 27.4401 761.967 27.1562 761.675 26.9219C761.389 26.6823 760.826 26.401 759.988 26.0781C759.191 25.7812 758.623 25.5234 758.285 25.3047C757.951 25.0807 757.701 24.8281 757.535 24.5469C757.373 24.2656 757.292 23.9297 757.292 23.5391C757.292 22.8411 757.576 22.2917 758.144 21.8906C758.712 21.4844 759.49 21.2812 760.48 21.2812C761.402 21.2812 762.303 21.4688 763.183 21.8438L762.722 22.8984C761.863 22.5443 761.084 22.3672 760.386 22.3672C759.772 22.3672 759.308 22.4635 758.996 22.6562C758.683 22.849 758.527 23.1146 758.527 23.4531C758.527 23.6823 758.584 23.8776 758.699 24.0391C758.819 24.2005 759.009 24.3542 759.269 24.5C759.529 24.6458 760.029 24.8568 760.769 25.1328C761.785 25.5026 762.47 25.875 762.824 26.25C763.183 26.625 763.363 27.0964 763.363 27.6641ZM772.472 30L770.902 24.9766C770.803 24.6693 770.618 23.9714 770.347 22.8828H770.285C770.076 23.7943 769.894 24.4974 769.738 24.9922L768.121 30H766.621L764.285 21.4375H765.644C766.196 23.5885 766.615 25.2266 766.902 26.3516C767.194 27.4766 767.36 28.2344 767.402 28.625H767.464C767.522 28.3281 767.613 27.9453 767.738 27.4766C767.868 27.0026 767.98 26.6276 768.074 26.3516L769.644 21.4375H771.05L772.582 26.3516C772.873 27.2474 773.071 28 773.175 28.6094H773.238C773.259 28.4219 773.313 28.1328 773.402 27.7422C773.496 27.3516 774.04 25.25 775.035 21.4375H776.378L774.011 30H772.472ZM785.324 25.7109C785.324 27.1068 784.972 28.1979 784.269 28.9844C783.566 29.7656 782.595 30.1562 781.355 30.1562C780.589 30.1562 779.91 29.9766 779.316 29.6172C778.722 29.2578 778.264 28.7422 777.941 28.0703C777.618 27.3984 777.457 26.612 777.457 25.7109C777.457 24.3151 777.806 23.2292 778.503 22.4531C779.201 21.6719 780.17 21.2812 781.41 21.2812C782.608 21.2812 783.558 21.6797 784.261 22.4766C784.97 23.2734 785.324 24.3516 785.324 25.7109ZM778.8 25.7109C778.8 26.8047 779.019 27.638 779.457 28.2109C779.894 28.7839 780.537 29.0703 781.386 29.0703C782.235 29.0703 782.878 28.7865 783.316 28.2188C783.759 27.6458 783.98 26.8099 783.98 25.7109C783.98 24.6224 783.759 23.7969 783.316 23.2344C782.878 22.6667 782.23 22.3828 781.371 22.3828C780.522 22.3828 779.881 22.6615 779.449 23.2188C779.016 23.776 778.8 24.6068 778.8 25.7109ZM791.511 21.2812C791.891 21.2812 792.233 21.3125 792.535 21.375L792.355 22.5781C792.001 22.5 791.688 22.4609 791.417 22.4609C790.725 22.4609 790.131 22.7422 789.636 23.3047C789.147 23.8672 788.902 24.5677 788.902 25.4062V30H787.605V21.4375H788.675L788.824 23.0234H788.886C789.204 22.4661 789.587 22.0365 790.035 21.7344C790.483 21.4323 790.975 21.2812 791.511 21.2812ZM799.964 28.8516H799.894C799.295 29.7214 798.399 30.1562 797.207 30.1562C796.087 30.1562 795.214 29.7734 794.589 29.0078C793.97 28.2422 793.66 27.1536 793.66 25.7422C793.66 24.3307 793.972 23.2344 794.597 22.4531C795.222 21.6719 796.092 21.2812 797.207 21.2812C798.368 21.2812 799.259 21.7031 799.878 22.5469H799.98L799.925 21.9297L799.894 21.3281V17.8438H801.191V30H800.136L799.964 28.8516ZM797.371 29.0703C798.256 29.0703 798.897 28.8307 799.292 28.3516C799.694 27.8672 799.894 27.0885 799.894 26.0156V25.7422C799.894 24.5286 799.691 23.6641 799.285 23.1484C798.884 22.6276 798.24 22.3672 797.355 22.3672C796.595 22.3672 796.011 22.6641 795.605 23.2578C795.204 23.8464 795.003 24.6797 795.003 25.7578C795.003 26.8516 795.204 27.6771 795.605 28.2344C796.006 28.7917 796.595 29.0703 797.371 29.0703Z" fill="white"/>
<path d="M844.223 30H837.856V18.5781H844.223V19.7578H839.184V23.4375H843.918V24.6094H839.184V28.8125H844.223V30ZM852.395 28.8516H852.325C851.726 29.7214 850.83 30.1562 849.637 30.1562C848.517 30.1562 847.645 29.7734 847.02 29.0078C846.4 28.2422 846.09 27.1536 846.09 25.7422C846.09 24.3307 846.403 23.2344 847.028 22.4531C847.653 21.6719 848.523 21.2812 849.637 21.2812C850.799 21.2812 851.689 21.7031 852.309 22.5469H852.411L852.356 21.9297L852.325 21.3281V17.8438H853.622V30H852.567L852.395 28.8516ZM849.801 29.0703C850.687 29.0703 851.327 28.8307 851.723 28.3516C852.124 27.8672 852.325 27.0885 852.325 26.0156V25.7422C852.325 24.5286 852.122 23.6641 851.715 23.1484C851.314 22.6276 850.671 22.3672 849.786 22.3672C849.025 22.3672 848.442 22.6641 848.036 23.2578C847.635 23.8464 847.434 24.6797 847.434 25.7578C847.434 26.8516 847.635 27.6771 848.036 28.2344C848.437 28.7917 849.025 29.0703 849.801 29.0703ZM857.676 30H856.379V21.4375H857.676V30ZM856.27 19.1172C856.27 18.8203 856.343 18.6042 856.489 18.4688C856.635 18.3281 856.817 18.2578 857.036 18.2578C857.244 18.2578 857.424 18.3281 857.575 18.4688C857.726 18.6094 857.801 18.8255 857.801 19.1172C857.801 19.4089 857.726 19.6276 857.575 19.7734C857.424 19.9141 857.244 19.9844 857.036 19.9844C856.817 19.9844 856.635 19.9141 856.489 19.7734C856.343 19.6276 856.27 19.4089 856.27 19.1172ZM863.192 29.0859C863.421 29.0859 863.642 29.0703 863.856 29.0391C864.069 29.0026 864.239 28.9661 864.364 28.9297V29.9219C864.223 29.9896 864.015 30.0443 863.739 30.0859C863.468 30.1328 863.223 30.1562 863.004 30.1562C861.348 30.1562 860.52 29.2839 860.52 27.5391V22.4453H859.293V21.8203L860.52 21.2812L861.067 19.4531H861.817V21.4375H864.301V22.4453H861.817V27.4844C861.817 28 861.939 28.3958 862.184 28.6719C862.429 28.9479 862.765 29.0859 863.192 29.0859Z" fill="white"/>
<path d="M901.755 25.25V30H900.427V18.5781H903.56C904.961 18.5781 905.995 18.8464 906.662 19.3828C907.333 19.9193 907.669 20.7266 907.669 21.8047C907.669 23.3151 906.904 24.3359 905.373 24.8672L908.474 30H906.904L904.138 25.25H901.755ZM901.755 24.1094H903.576C904.513 24.1094 905.201 23.9245 905.638 23.5547C906.076 23.1797 906.294 22.6198 906.294 21.875C906.294 21.1198 906.07 20.5755 905.623 20.2422C905.18 19.9089 904.466 19.7422 903.482 19.7422H901.755V24.1094ZM913.74 30.1562C912.474 30.1562 911.474 29.7708 910.74 29C910.011 28.2292 909.646 27.1589 909.646 25.7891C909.646 24.4089 909.985 23.3125 910.662 22.5C911.344 21.6875 912.258 21.2812 913.404 21.2812C914.477 21.2812 915.326 21.6354 915.951 22.3438C916.576 23.0469 916.888 23.9766 916.888 25.1328V25.9531H910.99C911.016 26.9583 911.268 27.7214 911.748 28.2422C912.232 28.763 912.912 29.0234 913.787 29.0234C914.708 29.0234 915.62 28.8307 916.521 28.4453V29.6016C916.063 29.7995 915.628 29.9401 915.216 30.0234C914.81 30.112 914.318 30.1562 913.74 30.1562ZM913.388 22.3672C912.701 22.3672 912.151 22.5911 911.74 23.0391C911.333 23.487 911.094 24.1068 911.021 24.8984H915.498C915.498 24.0807 915.315 23.4557 914.951 23.0234C914.586 22.5859 914.065 22.3672 913.388 22.3672ZM924.63 27.6641C924.63 28.4609 924.333 29.0755 923.74 29.5078C923.146 29.9401 922.313 30.1562 921.24 30.1562C920.104 30.1562 919.219 29.9766 918.583 29.6172V28.4141C918.995 28.6224 919.435 28.7865 919.904 28.9062C920.378 29.026 920.833 29.0859 921.271 29.0859C921.948 29.0859 922.469 28.9792 922.833 28.7656C923.198 28.5469 923.38 28.2161 923.38 27.7734C923.38 27.4401 923.235 27.1562 922.943 26.9219C922.656 26.6823 922.094 26.401 921.255 26.0781C920.458 25.7812 919.891 25.5234 919.552 25.3047C919.219 25.0807 918.969 24.8281 918.802 24.5469C918.641 24.2656 918.56 23.9297 918.56 23.5391C918.56 22.8411 918.844 22.2917 919.412 21.8906C919.979 21.4844 920.758 21.2812 921.748 21.2812C922.669 21.2812 923.57 21.4688 924.451 21.8438L923.99 22.8984C923.13 22.5443 922.352 22.3672 921.654 22.3672C921.039 22.3672 920.576 22.4635 920.263 22.6562C919.951 22.849 919.794 23.1146 919.794 23.4531C919.794 23.6823 919.852 23.8776 919.966 24.0391C920.086 24.2005 920.276 24.3542 920.537 24.5C920.797 24.6458 921.297 24.8568 922.037 25.1328C923.052 25.5026 923.737 25.875 924.091 26.25C924.451 26.625 924.63 27.0964 924.63 27.6641ZM930.365 30.1562C929.099 30.1562 928.099 29.7708 927.365 29C926.636 28.2292 926.271 27.1589 926.271 25.7891C926.271 24.4089 926.61 23.3125 927.287 22.5C927.969 21.6875 928.883 21.2812 930.029 21.2812C931.102 21.2812 931.951 21.6354 932.576 22.3438C933.201 23.0469 933.513 23.9766 933.513 25.1328V25.9531H927.615C927.641 26.9583 927.893 27.7214 928.373 28.2422C928.857 28.763 929.537 29.0234 930.412 29.0234C931.333 29.0234 932.245 28.8307 933.146 28.4453V29.6016C932.688 29.7995 932.253 29.9401 931.841 30.0234C931.435 30.112 930.943 30.1562 930.365 30.1562ZM930.013 22.3672C929.326 22.3672 928.776 22.5911 928.365 23.0391C927.958 23.487 927.719 24.1068 927.646 24.8984H932.123C932.123 24.0807 931.94 23.4557 931.576 23.0234C931.211 22.5859 930.69 22.3672 930.013 22.3672ZM938.498 29.0859C938.727 29.0859 938.948 29.0703 939.162 29.0391C939.375 29.0026 939.544 28.9661 939.669 28.9297V29.9219C939.529 29.9896 939.32 30.0443 939.044 30.0859C938.774 30.1328 938.529 30.1562 938.31 30.1562C936.654 30.1562 935.826 29.2839 935.826 27.5391V22.4453H934.599V21.8203L935.826 21.2812L936.373 19.4531H937.123V21.4375H939.607V22.4453H937.123V27.4844C937.123 28 937.245 28.3958 937.49 28.6719C937.735 28.9479 938.07 29.0859 938.498 29.0859ZM952.982 21.9062C952.982 23.0625 952.586 23.9531 951.794 24.5781C951.008 25.1979 949.88 25.5078 948.412 25.5078H947.068V30H945.74V18.5781H948.701C951.555 18.5781 952.982 19.6875 952.982 21.9062ZM947.068 24.3672H948.263C949.44 24.3672 950.292 24.1771 950.818 23.7969C951.344 23.4167 951.607 22.8073 951.607 21.9688C951.607 21.2135 951.36 20.651 950.865 20.2812C950.37 19.9115 949.599 19.7266 948.552 19.7266H947.068V24.3672ZM960.451 30L960.193 28.7812H960.13C959.703 29.3177 959.276 29.6823 958.849 29.875C958.427 30.0625 957.899 30.1562 957.263 30.1562C956.414 30.1562 955.748 29.9375 955.263 29.5C954.784 29.0625 954.544 28.4401 954.544 27.6328C954.544 25.9036 955.927 24.9974 958.693 24.9141L960.146 24.8672V24.3359C960.146 23.6641 960 23.1693 959.708 22.8516C959.422 22.5286 958.961 22.3672 958.326 22.3672C957.612 22.3672 956.805 22.5859 955.904 23.0234L955.505 22.0312C955.927 21.8021 956.388 21.6224 956.888 21.4922C957.393 21.362 957.899 21.2969 958.404 21.2969C959.425 21.2969 960.18 21.5234 960.669 21.9766C961.164 22.4297 961.412 23.1562 961.412 24.1562V30H960.451ZM957.521 29.0859C958.328 29.0859 958.961 28.8646 959.419 28.4219C959.883 27.9792 960.115 27.3594 960.115 26.5625V25.7891L958.818 25.8438C957.787 25.8802 957.042 26.0417 956.583 26.3281C956.13 26.6094 955.904 27.0495 955.904 27.6484C955.904 28.1172 956.044 28.474 956.326 28.7188C956.612 28.9635 957.011 29.0859 957.521 29.0859ZM969.615 27.6641C969.615 28.4609 969.318 29.0755 968.724 29.5078C968.13 29.9401 967.297 30.1562 966.224 30.1562C965.089 30.1562 964.203 29.9766 963.568 29.6172V28.4141C963.979 28.6224 964.419 28.7865 964.888 28.9062C965.362 29.026 965.818 29.0859 966.255 29.0859C966.932 29.0859 967.453 28.9792 967.818 28.7656C968.182 28.5469 968.365 28.2161 968.365 27.7734C968.365 27.4401 968.219 27.1562 967.927 26.9219C967.641 26.6823 967.078 26.401 966.24 26.0781C965.443 25.7812 964.875 25.5234 964.537 25.3047C964.203 25.0807 963.953 24.8281 963.787 24.5469C963.625 24.2656 963.544 23.9297 963.544 23.5391C963.544 22.8411 963.828 22.2917 964.396 21.8906C964.964 21.4844 965.742 21.2812 966.732 21.2812C967.654 21.2812 968.555 21.4688 969.435 21.8438L968.974 22.8984C968.115 22.5443 967.336 22.3672 966.638 22.3672C966.024 22.3672 965.56 22.4635 965.248 22.6562C964.935 22.849 964.779 23.1146 964.779 23.4531C964.779 23.6823 964.836 23.8776 964.951 24.0391C965.07 24.2005 965.261 24.3542 965.521 24.5C965.781 24.6458 966.281 24.8568 967.021 25.1328C968.037 25.5026 968.722 25.875 969.076 26.25C969.435 26.625 969.615 27.0964 969.615 27.6641ZM977.255 27.6641C977.255 28.4609 976.958 29.0755 976.365 29.5078C975.771 29.9401 974.938 30.1562 973.865 30.1562C972.729 30.1562 971.844 29.9766 971.208 29.6172V28.4141C971.62 28.6224 972.06 28.7865 972.529 28.9062C973.003 29.026 973.458 29.0859 973.896 29.0859C974.573 29.0859 975.094 28.9792 975.458 28.7656C975.823 28.5469 976.005 28.2161 976.005 27.7734C976.005 27.4401 975.86 27.1562 975.568 26.9219C975.281 26.6823 974.719 26.401 973.88 26.0781C973.083 25.7812 972.516 25.5234 972.177 25.3047C971.844 25.0807 971.594 24.8281 971.427 24.5469C971.266 24.2656 971.185 23.9297 971.185 23.5391C971.185 22.8411 971.469 22.2917 972.037 21.8906C972.604 21.4844 973.383 21.2812 974.373 21.2812C975.294 21.2812 976.195 21.4688 977.076 21.8438L976.615 22.8984C975.755 22.5443 974.977 22.3672 974.279 22.3672C973.664 22.3672 973.201 22.4635 972.888 22.6562C972.576 22.849 972.419 23.1146 972.419 23.4531C972.419 23.6823 972.477 23.8776 972.591 24.0391C972.711 24.2005 972.901 24.3542 973.162 24.5C973.422 24.6458 973.922 24.8568 974.662 25.1328C975.677 25.5026 976.362 25.875 976.716 26.25C977.076 26.625 977.255 27.0964 977.255 27.6641ZM986.365 30L984.794 24.9766C984.695 24.6693 984.511 23.9714 984.24 22.8828H984.177C983.969 23.7943 983.787 24.4974 983.63 24.9922L982.013 30H980.513L978.177 21.4375H979.537C980.089 23.5885 980.508 25.2266 980.794 26.3516C981.086 27.4766 981.253 28.2344 981.294 28.625H981.357C981.414 28.3281 981.505 27.9453 981.63 27.4766C981.761 27.0026 981.873 26.6276 981.966 26.3516L983.537 21.4375H984.943L986.474 26.3516C986.766 27.2474 986.964 28 987.068 28.6094H987.13C987.151 28.4219 987.206 28.1328 987.294 27.7422C987.388 27.3516 987.932 25.25 988.927 21.4375H990.271L987.904 30H986.365ZM999.216 25.7109C999.216 27.1068 998.865 28.1979 998.162 28.9844C997.458 29.7656 996.487 30.1562 995.248 30.1562C994.482 30.1562 993.802 29.9766 993.208 29.6172C992.615 29.2578 992.156 28.7422 991.833 28.0703C991.511 27.3984 991.349 26.612 991.349 25.7109C991.349 24.3151 991.698 23.2292 992.396 22.4531C993.094 21.6719 994.063 21.2812 995.302 21.2812C996.5 21.2812 997.451 21.6797 998.154 22.4766C998.862 23.2734 999.216 24.3516 999.216 25.7109ZM992.693 25.7109C992.693 26.8047 992.912 27.638 993.349 28.2109C993.787 28.7839 994.43 29.0703 995.279 29.0703C996.128 29.0703 996.771 28.7865 997.208 28.2188C997.651 27.6458 997.873 26.8099 997.873 25.7109C997.873 24.6224 997.651 23.7969 997.208 23.2344C996.771 22.6667 996.123 22.3828 995.263 22.3828C994.414 22.3828 993.774 22.6615 993.341 23.2188C992.909 23.776 992.693 24.6068 992.693 25.7109ZM1005.4 21.2812C1005.78 21.2812 1006.13 21.3125 1006.43 21.375L1006.25 22.5781C1005.89 22.5 1005.58 22.4609 1005.31 22.4609C1004.62 22.4609 1004.02 22.7422 1003.53 23.3047C1003.04 23.8672 1002.79 24.5677 1002.79 25.4062V30H1001.5V21.4375H1002.57L1002.72 23.0234H1002.78C1003.1 22.4661 1003.48 22.0365 1003.93 21.7344C1004.38 21.4323 1004.87 21.2812 1005.4 21.2812ZM1013.86 28.8516H1013.79C1013.19 29.7214 1012.29 30.1562 1011.1 30.1562C1009.98 30.1562 1009.11 29.7734 1008.48 29.0078C1007.86 28.2422 1007.55 27.1536 1007.55 25.7422C1007.55 24.3307 1007.86 23.2344 1008.49 22.4531C1009.11 21.6719 1009.98 21.2812 1011.1 21.2812C1012.26 21.2812 1013.15 21.7031 1013.77 22.5469H1013.87L1013.82 21.9297L1013.79 21.3281V17.8438H1015.08V30H1014.03L1013.86 28.8516ZM1011.26 29.0703C1012.15 29.0703 1012.79 28.8307 1013.19 28.3516C1013.59 27.8672 1013.79 27.0885 1013.79 26.0156V25.7422C1013.79 24.5286 1013.58 23.6641 1013.18 23.1484C1012.78 22.6276 1012.13 22.3672 1011.25 22.3672C1010.49 22.3672 1009.9 22.6641 1009.5 23.2578C1009.1 23.8464 1008.9 24.6797 1008.9 25.7578C1008.9 26.8516 1009.1 27.6771 1009.5 28.2344C1009.9 28.7917 1010.49 29.0703 1011.26 29.0703Z" fill="white"/>
<path d="M1053.33 25.25V30H1052V18.5781H1055.13C1056.53 18.5781 1057.57 18.8464 1058.23 19.3828C1058.91 19.9193 1059.24 20.7266 1059.24 21.8047C1059.24 23.3151 1058.48 24.3359 1056.94 24.8672L1060.05 30H1058.48L1055.71 25.25H1053.33ZM1053.33 24.1094H1055.15C1056.08 24.1094 1056.77 23.9245 1057.21 23.5547C1057.65 23.1797 1057.87 22.6198 1057.87 21.875C1057.87 21.1198 1057.64 20.5755 1057.19 20.2422C1056.75 19.9089 1056.04 19.7422 1055.05 19.7422H1053.33V24.1094ZM1065.31 30.1562C1064.05 30.1562 1063.05 29.7708 1062.31 29C1061.58 28.2292 1061.22 27.1589 1061.22 25.7891C1061.22 24.4089 1061.56 23.3125 1062.23 22.5C1062.92 21.6875 1063.83 21.2812 1064.98 21.2812C1066.05 21.2812 1066.9 21.6354 1067.52 22.3438C1068.15 23.0469 1068.46 23.9766 1068.46 25.1328V25.9531H1062.56C1062.59 26.9583 1062.84 27.7214 1063.32 28.2422C1063.8 28.763 1064.48 29.0234 1065.36 29.0234C1066.28 29.0234 1067.19 28.8307 1068.09 28.4453V29.6016C1067.63 29.7995 1067.2 29.9401 1066.79 30.0234C1066.38 30.112 1065.89 30.1562 1065.31 30.1562ZM1064.96 22.3672C1064.27 22.3672 1063.72 22.5911 1063.31 23.0391C1062.91 23.487 1062.67 24.1068 1062.59 24.8984H1067.07C1067.07 24.0807 1066.89 23.4557 1066.52 23.0234C1066.16 22.5859 1065.64 22.3672 1064.96 22.3672ZM1076.2 27.6641C1076.2 28.4609 1075.91 29.0755 1075.31 29.5078C1074.72 29.9401 1073.88 30.1562 1072.81 30.1562C1071.68 30.1562 1070.79 29.9766 1070.16 29.6172V28.4141C1070.57 28.6224 1071.01 28.7865 1071.48 28.9062C1071.95 29.026 1072.41 29.0859 1072.84 29.0859C1073.52 29.0859 1074.04 28.9792 1074.41 28.7656C1074.77 28.5469 1074.95 28.2161 1074.95 27.7734C1074.95 27.4401 1074.81 27.1562 1074.51 26.9219C1074.23 26.6823 1073.67 26.401 1072.83 26.0781C1072.03 25.7812 1071.46 25.5234 1071.12 25.3047C1070.79 25.0807 1070.54 24.8281 1070.37 24.5469C1070.21 24.2656 1070.13 23.9297 1070.13 23.5391C1070.13 22.8411 1070.42 22.2917 1070.98 21.8906C1071.55 21.4844 1072.33 21.2812 1073.32 21.2812C1074.24 21.2812 1075.14 21.4688 1076.02 21.8438L1075.56 22.8984C1074.7 22.5443 1073.92 22.3672 1073.23 22.3672C1072.61 22.3672 1072.15 22.4635 1071.83 22.6562C1071.52 22.849 1071.37 23.1146 1071.37 23.4531C1071.37 23.6823 1071.42 23.8776 1071.54 24.0391C1071.66 24.2005 1071.85 24.3542 1072.11 24.5C1072.37 24.6458 1072.87 24.8568 1073.61 25.1328C1074.62 25.5026 1075.31 25.875 1075.66 26.25C1076.02 26.625 1076.2 27.0964 1076.2 27.6641ZM1081.94 30.1562C1080.67 30.1562 1079.67 29.7708 1078.94 29C1078.21 28.2292 1077.84 27.1589 1077.84 25.7891C1077.84 24.4089 1078.18 23.3125 1078.86 22.5C1079.54 21.6875 1080.45 21.2812 1081.6 21.2812C1082.67 21.2812 1083.52 21.6354 1084.15 22.3438C1084.77 23.0469 1085.08 23.9766 1085.08 25.1328V25.9531H1079.19C1079.21 26.9583 1079.47 27.7214 1079.94 28.2422C1080.43 28.763 1081.11 29.0234 1081.98 29.0234C1082.91 29.0234 1083.82 28.8307 1084.72 28.4453V29.6016C1084.26 29.7995 1083.82 29.9401 1083.41 30.0234C1083.01 30.112 1082.51 30.1562 1081.94 30.1562ZM1081.58 22.3672C1080.9 22.3672 1080.35 22.5911 1079.94 23.0391C1079.53 23.487 1079.29 24.1068 1079.22 24.8984H1083.69C1083.69 24.0807 1083.51 23.4557 1083.15 23.0234C1082.78 22.5859 1082.26 22.3672 1081.58 22.3672ZM1090.07 29.0859C1090.3 29.0859 1090.52 29.0703 1090.73 29.0391C1090.95 29.0026 1091.12 28.9661 1091.24 28.9297V29.9219C1091.1 29.9896 1090.89 30.0443 1090.62 30.0859C1090.35 30.1328 1090.1 30.1562 1089.88 30.1562C1088.23 30.1562 1087.4 29.2839 1087.4 27.5391V22.4453H1086.17V21.8203L1087.4 21.2812L1087.94 19.4531H1088.69V21.4375H1091.18V22.4453H1088.69V27.4844C1088.69 28 1088.82 28.3958 1089.06 28.6719C1089.31 28.9479 1089.64 29.0859 1090.07 29.0859ZM1104.55 21.9062C1104.55 23.0625 1104.16 23.9531 1103.37 24.5781C1102.58 25.1979 1101.45 25.5078 1099.98 25.5078H1098.64V30H1097.31V18.5781H1100.27C1103.13 18.5781 1104.55 19.6875 1104.55 21.9062ZM1098.64 24.3672H1099.83C1101.01 24.3672 1101.86 24.1771 1102.39 23.7969C1102.92 23.4167 1103.18 22.8073 1103.18 21.9688C1103.18 21.2135 1102.93 20.651 1102.44 20.2812C1101.94 19.9115 1101.17 19.7266 1100.12 19.7266H1098.64V24.3672ZM1106.95 30V18.5781H1108.28V30H1106.95ZM1120.34 30H1118.83L1112.58 20.4141H1112.52C1112.61 21.5391 1112.65 22.5703 1112.65 23.5078V30H1111.42V18.5781H1112.92L1119.15 28.125H1119.21C1119.2 27.9844 1119.18 27.5339 1119.14 26.7734C1119.1 26.0078 1119.09 25.4609 1119.1 25.1328V18.5781H1120.34V30Z" fill="white"/>
<path d="M1166.69 24.1797C1166.69 26.0651 1166.17 27.5078 1165.15 28.5078C1164.13 29.5026 1162.66 30 1160.73 30H1157.57V18.5781H1161.07C1162.85 18.5781 1164.23 19.0703 1165.21 20.0547C1166.2 21.0391 1166.69 22.4141 1166.69 24.1797ZM1165.28 24.2266C1165.28 22.737 1164.91 21.6146 1164.16 20.8594C1163.41 20.1042 1162.3 19.7266 1160.83 19.7266H1158.9V28.8516H1160.52C1162.1 28.8516 1163.29 28.4635 1164.09 27.6875C1164.88 26.9062 1165.28 25.7526 1165.28 24.2266ZM1172.66 30.1562C1171.4 30.1562 1170.4 29.7708 1169.66 29C1168.93 28.2292 1168.57 27.1589 1168.57 25.7891C1168.57 24.4089 1168.91 23.3125 1169.59 22.5C1170.27 21.6875 1171.18 21.2812 1172.33 21.2812C1173.4 21.2812 1174.25 21.6354 1174.88 22.3438C1175.5 23.0469 1175.81 23.9766 1175.81 25.1328V25.9531H1169.91C1169.94 26.9583 1170.19 27.7214 1170.67 28.2422C1171.16 28.763 1171.84 29.0234 1172.71 29.0234C1173.63 29.0234 1174.54 28.8307 1175.45 28.4453V29.6016C1174.99 29.7995 1174.55 29.9401 1174.14 30.0234C1173.73 30.112 1173.24 30.1562 1172.66 30.1562ZM1172.31 22.3672C1171.62 22.3672 1171.08 22.5911 1170.66 23.0391C1170.26 23.487 1170.02 24.1068 1169.95 24.8984H1174.42C1174.42 24.0807 1174.24 23.4557 1173.88 23.0234C1173.51 22.5859 1172.99 22.3672 1172.31 22.3672ZM1179.33 30H1178.03V17.8438H1179.33V30ZM1185.7 30.1562C1184.43 30.1562 1183.43 29.7708 1182.7 29C1181.97 28.2292 1181.6 27.1589 1181.6 25.7891C1181.6 24.4089 1181.94 23.3125 1182.62 22.5C1183.3 21.6875 1184.21 21.2812 1185.36 21.2812C1186.43 21.2812 1187.28 21.6354 1187.91 22.3438C1188.53 23.0469 1188.84 23.9766 1188.84 25.1328V25.9531H1182.95C1182.97 26.9583 1183.22 27.7214 1183.7 28.2422C1184.19 28.763 1184.87 29.0234 1185.74 29.0234C1186.66 29.0234 1187.58 28.8307 1188.48 28.4453V29.6016C1188.02 29.7995 1187.58 29.9401 1187.17 30.0234C1186.77 30.112 1186.27 30.1562 1185.7 30.1562ZM1185.34 22.3672C1184.66 22.3672 1184.11 22.5911 1183.7 23.0391C1183.29 23.487 1183.05 24.1068 1182.98 24.8984H1187.45C1187.45 24.0807 1187.27 23.4557 1186.91 23.0234C1186.54 22.5859 1186.02 22.3672 1185.34 22.3672ZM1193.83 29.0859C1194.06 29.0859 1194.28 29.0703 1194.49 29.0391C1194.71 29.0026 1194.88 28.9661 1195 28.9297V29.9219C1194.86 29.9896 1194.65 30.0443 1194.38 30.0859C1194.1 30.1328 1193.86 30.1562 1193.64 30.1562C1191.98 30.1562 1191.16 29.2839 1191.16 27.5391V22.4453H1189.93V21.8203L1191.16 21.2812L1191.7 19.4531H1192.45V21.4375H1194.94V22.4453H1192.45V27.4844C1192.45 28 1192.58 28.3958 1192.82 28.6719C1193.07 28.9479 1193.4 29.0859 1193.83 29.0859ZM1200.34 30.1562C1199.07 30.1562 1198.07 29.7708 1197.34 29C1196.61 28.2292 1196.24 27.1589 1196.24 25.7891C1196.24 24.4089 1196.58 23.3125 1197.26 22.5C1197.94 21.6875 1198.85 21.2812 1200 21.2812C1201.07 21.2812 1201.92 21.6354 1202.55 22.3438C1203.17 23.0469 1203.48 23.9766 1203.48 25.1328V25.9531H1197.59C1197.61 26.9583 1197.86 27.7214 1198.34 28.2422C1198.83 28.763 1199.51 29.0234 1200.38 29.0234C1201.3 29.0234 1202.22 28.8307 1203.12 28.4453V29.6016C1202.66 29.7995 1202.22 29.9401 1201.81 30.0234C1201.41 30.112 1200.91 30.1562 1200.34 30.1562ZM1199.98 22.3672C1199.3 22.3672 1198.75 22.5911 1198.34 23.0391C1197.93 23.487 1197.69 24.1068 1197.62 24.8984H1202.09C1202.09 24.0807 1201.91 23.4557 1201.55 23.0234C1201.18 22.5859 1200.66 22.3672 1199.98 22.3672Z" fill="white"/>
</svg>
